<?xml version="1.0" encoding="UTF-8" standalone="no"?>
<!DOCTYPE svg PUBLIC "-//W3C//DTD SVG 1.1//EN" "http://www.w3.org/Graphics/SVG/1.1/DTD/svg11.dtd">
<svg xmlns="http://www.w3.org/2000/svg" version="1.1" viewBox="0.00 0.00 1024.00 1024.00">
<g stroke-width="2.00" fill="none" stroke-linecap="butt">
<path stroke="#143c2b" vector-effect="non-scaling-stroke" d="
  M 535.99 723.73
  A 2.06 2.04 -72.6 0 1 535.12 722.05
  L 535.05 621.34
  A 2.25 2.24 87.9 0 1 537.13 619.10
  Q 541.04 618.81 541.24 618.78
  C 547.55 617.66 553.79 617.07 559.84 615.80
  Q 573.35 612.96 589.68 608.06
  C 596.08 606.14 600.96 603.70 606.38 601.78
  Q 611.85 599.85 618.72 596.63
  Q 632.11 590.37 645.09 582.34
  Q 660.06 573.08 675.60 560.13
  Q 720.21 522.98 744.92 469.45
  Q 753.73 450.37 760.50 423.63
  C 761.25 420.67 761.85 416.11 762.57 413.14
  Q 763.46 409.48 764.02 405.24
  Q 767.11 381.56 767.14 376.00
  Q 767.16 371.84 767.18 357.17
  C 767.19 353.18 765.99 349.00 766.14 345.28
  C 766.25 342.50 765.42 339.90 765.33 337.11
  Q 765.25 334.55 764.67 330.97
  Q 762.00 314.71 759.52 304.96
  Q 751.19 272.27 733.76 241.23
  Q 732.28 238.59 730.74 236.24
  C 728.12 232.22 725.71 227.75 723.07 223.97
  Q 709.86 205.04 697.92 192.83
  Q 686.10 180.75 682.89 177.86
  Q 646.71 145.29 600.75 128.28
  Q 571.51 117.46 541.36 114.22
  Q 535.74 113.61 533.44 113.33
  Q 528.37 112.71 525.50 112.68
  Q 498.17 112.37 492.01 112.88
  Q 411.59 119.52 349.51 170.23
  Q 343.78 174.91 334.24 183.98
  Q 330.29 187.74 325.05 193.30
  C 308.06 211.36 294.27 231.37 282.74 253.98
  Q 274.48 270.20 266.40 296.47
  Q 264.45 302.78 262.89 311.04
  Q 260.25 324.99 260.14 325.76
  Q 255.91 353.15 257.18 376.50
  Q 257.22 377.17 257.80 385.75
  Q 259.28 407.31 264.79 429.52
  C 266.30 435.64 268.40 441.09 270.36 447.36
  C 272.89 455.46 277.06 465.70 279.61 471.05
  Q 308.89 532.58 363.40 572.77
  Q 385.00 588.69 406.88 597.87
  Q 426.88 606.26 434.21 608.30
  C 436.07 608.82 437.67 609.00 439.38 609.56
  Q 455.58 614.87 471.45 616.99
  Q 477.46 617.79 479.60 618.18
  Q 483.24 618.86 487.69 619.44
  A 1.38 1.38 0.0 0 1 488.89 620.81
  L 488.89 722.26
  A 1.56 1.56 0.0 0 1 487.34 723.82
  C 461.10 723.97 434.68 723.60 404.85 723.99
  Q 395.45 724.11 391.74 725.63
  C 383.54 728.97 378.86 736.40 378.69 745.32
  Q 378.57 751.20 379.04 752.66
  Q 382.66 764.06 392.49 767.83
  Q 396.34 769.31 405.39 769.16
  Q 417.85 768.94 486.75 769.06
  A 2.16 2.16 0.0 0 1 488.91 771.22
  Q 489.03 819.51 488.93 889.23
  C 488.91 898.65 494.82 908.41 504.32 910.92
  Q 510.06 912.44 514.49 911.97
  C 524.55 910.89 531.58 904.79 534.18 895.09
  Q 535.15 891.49 535.14 890.62
  Q 534.78 832.82 535.21 770.66
  A 1.63 1.63 0.0 0 1 536.84 769.04
  Q 607.17 768.82 617.88 769.00
  Q 626.65 769.15 630.02 768.01
  C 646.28 762.52 650.00 741.02 637.81 729.72
  Q 631.48 723.87 622.53 723.81
  Q 588.95 723.58 539.00 723.96
  Q 536.34 723.98 535.99 723.73"
/>
<path stroke="#143c2b" vector-effect="non-scaling-stroke" d="
  M 365.17 214.92
  Q 363.40 216.56 363.35 216.62
  Q 359.51 220.85 358.90 221.38
  Q 357.08 222.96 350.95 229.82
  Q 342.84 238.87 334.77 251.49
  Q 332.71 254.71 331.62 256.34
  A 7.16 5.99 89.4 0 0 331.15 257.18
  Q 329.80 260.04 327.53 263.99
  Q 321.54 274.39 314.78 291.64
  Q 312.30 297.96 310.77 304.01
  C 308.62 312.46 307.17 316.94 305.82 323.92
  Q 304.87 328.82 304.61 331.33
  C 303.99 337.36 303.13 341.10 303.12 345.92
  C 303.11 349.01 302.12 352.66 302.15 356.38
  Q 302.21 363.49 302.10 368.11
  Q 302.00 372.62 302.65 379.84
  Q 304.11 396.20 305.18 402.42
  Q 306.95 412.74 310.28 424.56
  Q 313.78 437.01 317.62 446.07
  Q 328.45 471.62 345.33 493.21
  Q 352.07 501.82 355.06 505.02
  Q 369.55 520.52 377.30 526.52
  Q 392.42 538.24 400.68 543.29
  Q 419.91 555.05 442.48 563.44
  Q 454.09 567.75 476.75 572.20
  Q 477.75 572.40 481.70 572.83
  Q 483.29 573.01 486.59 573.54
  C 498.58 575.49 512.03 575.27 525.00 574.94
  C 530.43 574.80 534.48 574.08 541.24 573.31
  Q 546.78 572.68 553.29 571.20
  Q 563.08 568.99 573.79 566.17
  Q 575.58 565.70 576.11 565.41
  C 577.82 564.48 579.75 564.35 581.93 563.56
  Q 603.56 555.66 622.31 543.81
  Q 633.44 536.78 638.00 533.25
  Q 665.51 512.01 684.29 485.33
  Q 710.70 447.82 718.93 401.49
  Q 719.78 396.66 720.04 392.94
  Q 720.38 388.01 720.99 384.39
  Q 721.99 378.50 721.89 371.55
  Q 721.88 370.98 721.89 358.63
  Q 721.89 352.60 721.34 348.88
  Q 720.72 344.68 720.37 339.15
  Q 719.95 332.58 718.16 324.67
  Q 715.38 312.49 714.29 308.70
  Q 702.76 268.73 676.79 236.46
  Q 671.73 230.17 670.13 228.41
  Q 649.01 205.11 623.16 188.43
  Q 615.93 183.76 606.41 178.92
  Q 596.38 173.82 588.81 171.05
  C 575.40 166.15 566.62 163.03 555.75 161.11
  Q 541.81 158.64 527.00 157.31
  Q 520.95 156.77 502.14 156.91
  C 494.74 156.96 486.06 158.74 479.15 159.17
  C 478.09 159.23 476.84 159.79 475.68 159.91
  C 462.71 161.29 451.82 165.02 436.74 170.05
  Q 431.45 171.82 415.49 179.31
  Q 408.02 182.81 394.36 191.39
  C 390.88 193.58 387.76 196.50 384.53 198.65
  C 377.54 203.30 371.00 209.50 365.17 214.92"
/>
</g>
<path fill="#060d08" d="
  M 487.78 722.63
  L 487.78 620.83
  A 0.72 0.72 0.0 0 0 487.13 620.11
  Q 456.91 617.30 428.18 607.34
  Q 417.74 603.72 404.95 598.02
  Q 392.57 592.51 382.66 586.59
  Q 355.59 570.42 333.34 548.40
  Q 306.27 521.63 287.54 488.73
  Q 265.23 449.58 258.24 401.30
  C 257.90 398.99 258.04 396.20 257.34 393.54
  A 7.69 7.45 38.1 0 1 257.11 391.86
  Q 257.02 386.20 256.56 381.90
  C 255.70 373.76 256.03 370.30 256.04 360.36
  Q 256.05 353.77 256.48 348.65
  Q 258.23 327.71 261.12 314.01
  Q 264.10 299.90 268.52 286.01
  Q 269.75 282.13 274.87 268.85
  Q 279.31 257.31 287.98 241.97
  Q 312.39 198.81 351.49 167.49
  Q 407.55 122.60 479.07 113.31
  Q 481.68 112.97 483.44 112.94
  C 485.46 112.90 487.29 112.26 489.25 112.16
  Q 511.14 111.06 515.51 111.33
  Q 523.68 111.83 532.50 112.23
  Q 533.41 112.27 535.56 112.66
  C 538.01 113.11 540.57 112.87 542.77 113.30
  Q 545.53 113.84 546.86 113.99
  Q 557.75 115.20 569.94 118.09
  Q 591.62 123.24 611.27 131.48
  Q 668.02 155.28 708.06 202.70
  C 738.30 238.51 757.94 281.81 765.20 327.97
  Q 765.88 332.27 765.91 332.90
  C 766.10 337.06 767.14 341.09 767.06 344.29
  C 766.99 347.08 767.78 350.05 767.82 352.93
  Q 768.14 373.34 767.88 377.19
  Q 766.39 399.98 762.93 417.00
  Q 752.48 468.34 722.39 510.90
  Q 703.15 538.12 677.02 560.27
  Q 662.41 572.66 645.52 583.25
  Q 612.56 603.92 572.77 614.04
  Q 555.41 618.45 536.28 620.23
  A 0.34 0.34 0.0 0 0 535.97 620.57
  L 535.97 722.61
  A 0.45 0.44 0.0 0 0 536.42 723.05
  Q 600.14 723.10 620.93 723.03
  Q 627.94 723.01 631.22 724.36
  C 643.53 729.43 648.71 742.57 644.46 754.96
  C 641.01 764.99 632.17 769.96 621.71 769.96
  Q 573.97 769.98 536.40 769.96
  A 0.43 0.43 0.0 0 0 535.97 770.39
  Q 536.02 815.72 536.01 887.79
  Q 536.01 895.56 533.06 901.04
  Q 529.10 908.42 521.09 911.33
  Q 516.38 913.04 511.66 912.91
  C 509.07 912.84 507.10 912.05 504.73 911.92
  A 3.45 3.33 -32.8 0 1 503.67 911.71
  Q 487.82 905.93 487.80 887.95
  Q 487.71 820.31 487.83 770.47
  A 0.50 0.50 0.0 0 0 487.33 769.97
  Q 443.26 769.96 403.06 770.00
  Q 395.98 770.01 392.21 768.61
  Q 382.07 764.84 378.34 753.76
  Q 377.24 750.51 377.62 744.70
  C 378.24 735.32 383.19 728.01 392.04 724.48
  Q 396.26 722.80 405.76 723.06
  Q 406.79 723.09 487.37 723.05
  A 0.42 0.41 90.0 0 0 487.78 722.63
  Z
  M 535.99 723.73
  A 2.06 2.04 -72.6 0 1 535.12 722.05
  L 535.05 621.34
  A 2.25 2.24 87.9 0 1 537.13 619.10
  Q 541.04 618.81 541.24 618.78
  C 547.55 617.66 553.79 617.07 559.84 615.80
  Q 573.35 612.96 589.68 608.06
  C 596.08 606.14 600.96 603.70 606.38 601.78
  Q 611.85 599.85 618.72 596.63
  Q 632.11 590.37 645.09 582.34
  Q 660.06 573.08 675.60 560.13
  Q 720.21 522.98 744.92 469.45
  Q 753.73 450.37 760.50 423.63
  C 761.25 420.67 761.85 416.11 762.57 413.14
  Q 763.46 409.48 764.02 405.24
  Q 767.11 381.56 767.14 376.00
  Q 767.16 371.84 767.18 357.17
  C 767.19 353.18 765.99 349.00 766.14 345.28
  C 766.25 342.50 765.42 339.90 765.33 337.11
  Q 765.25 334.55 764.67 330.97
  Q 762.00 314.71 759.52 304.96
  Q 751.19 272.27 733.76 241.23
  Q 732.28 238.59 730.74 236.24
  C 728.12 232.22 725.71 227.75 723.07 223.97
  Q 709.86 205.04 697.92 192.83
  Q 686.10 180.75 682.89 177.86
  Q 646.71 145.29 600.75 128.28
  Q 571.51 117.46 541.36 114.22
  Q 535.74 113.61 533.44 113.33
  Q 528.37 112.71 525.50 112.68
  Q 498.17 112.37 492.01 112.88
  Q 411.59 119.52 349.51 170.23
  Q 343.78 174.91 334.24 183.98
  Q 330.29 187.74 325.05 193.30
  C 308.06 211.36 294.27 231.37 282.74 253.98
  Q 274.48 270.20 266.40 296.47
  Q 264.45 302.78 262.89 311.04
  Q 260.25 324.99 260.14 325.76
  Q 255.91 353.15 257.18 376.50
  Q 257.22 377.17 257.80 385.75
  Q 259.28 407.31 264.79 429.52
  C 266.30 435.64 268.40 441.09 270.36 447.36
  C 272.89 455.46 277.06 465.70 279.61 471.05
  Q 308.89 532.58 363.40 572.77
  Q 385.00 588.69 406.88 597.87
  Q 426.88 606.26 434.21 608.30
  C 436.07 608.82 437.67 609.00 439.38 609.56
  Q 455.58 614.87 471.45 616.99
  Q 477.46 617.79 479.60 618.18
  Q 483.24 618.86 487.69 619.44
  A 1.38 1.38 0.0 0 1 488.89 620.81
  L 488.89 722.26
  A 1.56 1.56 0.0 0 1 487.34 723.82
  C 461.10 723.97 434.68 723.60 404.85 723.99
  Q 395.45 724.11 391.74 725.63
  C 383.54 728.97 378.86 736.40 378.69 745.32
  Q 378.57 751.20 379.04 752.66
  Q 382.66 764.06 392.49 767.83
  Q 396.34 769.31 405.39 769.16
  Q 417.85 768.94 486.75 769.06
  A 2.16 2.16 0.0 0 1 488.91 771.22
  Q 489.03 819.51 488.93 889.23
  C 488.91 898.65 494.82 908.41 504.32 910.92
  Q 510.06 912.44 514.49 911.97
  C 524.55 910.89 531.58 904.79 534.18 895.09
  Q 535.15 891.49 535.14 890.62
  Q 534.78 832.82 535.21 770.66
  A 1.63 1.63 0.0 0 1 536.84 769.04
  Q 607.17 768.82 617.88 769.00
  Q 626.65 769.15 630.02 768.01
  C 646.28 762.52 650.00 741.02 637.81 729.72
  Q 631.48 723.87 622.53 723.81
  Q 588.95 723.58 539.00 723.96
  Q 536.34 723.98 535.99 723.73
  Z"
/>
<path fill="#226a4e" d="
  M 535.99 723.73
  Q 536.34 723.98 539.00 723.96
  Q 588.95 723.58 622.53 723.81
  Q 631.48 723.87 637.81 729.72
  C 650.00 741.02 646.28 762.52 630.02 768.01
  Q 626.65 769.15 617.88 769.00
  Q 607.17 768.82 536.84 769.04
  A 1.63 1.63 0.0 0 0 535.21 770.66
  Q 534.78 832.82 535.14 890.62
  Q 535.15 891.49 534.18 895.09
  C 531.58 904.79 524.55 910.89 514.49 911.97
  Q 510.06 912.44 504.32 910.92
  C 494.82 908.41 488.91 898.65 488.93 889.23
  Q 489.03 819.51 488.91 771.22
  A 2.16 2.16 0.0 0 0 486.75 769.06
  Q 417.85 768.94 405.39 769.16
  Q 396.34 769.31 392.49 767.83
  Q 382.66 764.06 379.04 752.66
  Q 378.57 751.20 378.69 745.32
  C 378.86 736.40 383.54 728.97 391.74 725.63
  Q 395.45 724.11 404.85 723.99
  C 434.68 723.60 461.10 723.97 487.34 723.82
  A 1.56 1.56 0.0 0 0 488.89 722.26
  L 488.89 620.81
  A 1.38 1.38 0.0 0 0 487.69 619.44
  Q 483.24 618.86 479.60 618.18
  Q 477.46 617.79 471.45 616.99
  Q 455.58 614.87 439.38 609.56
  C 437.67 609.00 436.07 608.82 434.21 608.30
  Q 426.88 606.26 406.88 597.87
  Q 385.00 588.69 363.40 572.77
  Q 308.89 532.58 279.61 471.05
  C 277.06 465.70 272.89 455.46 270.36 447.36
  C 268.40 441.09 266.30 435.64 264.79 429.52
  Q 259.28 407.31 257.80 385.75
  Q 257.22 377.17 257.18 376.50
  Q 255.91 353.15 260.14 325.76
  Q 260.25 324.99 262.89 311.04
  Q 264.45 302.78 266.40 296.47
  Q 274.48 270.20 282.74 253.98
  C 294.27 231.37 308.06 211.36 325.05 193.30
  Q 330.29 187.74 334.24 183.98
  Q 343.78 174.91 349.51 170.23
  Q 411.59 119.52 492.01 112.88
  Q 498.17 112.37 525.50 112.68
  Q 528.37 112.71 533.44 113.33
  Q 535.74 113.61 541.36 114.22
  Q 571.51 117.46 600.75 128.28
  Q 646.71 145.29 682.89 177.86
  Q 686.10 180.75 697.92 192.83
  Q 709.86 205.04 723.07 223.97
  C 725.71 227.75 728.12 232.22 730.74 236.24
  Q 732.28 238.59 733.76 241.23
  Q 751.19 272.27 759.52 304.96
  Q 762.00 314.71 764.67 330.97
  Q 765.25 334.55 765.33 337.11
  C 765.42 339.90 766.25 342.50 766.14 345.28
  C 765.99 349.00 767.19 353.18 767.18 357.17
  Q 767.16 371.84 767.14 376.00
  Q 767.11 381.56 764.02 405.24
  Q 763.46 409.48 762.57 413.14
  C 761.85 416.11 761.25 420.67 760.50 423.63
  Q 753.73 450.37 744.92 469.45
  Q 720.21 522.98 675.60 560.13
  Q 660.06 573.08 645.09 582.34
  Q 632.11 590.37 618.72 596.63
  Q 611.85 599.85 606.38 601.78
  C 600.96 603.70 596.08 606.14 589.68 608.06
  Q 573.35 612.96 559.84 615.80
  C 553.79 617.07 547.55 617.66 541.24 618.78
  Q 541.04 618.81 537.13 619.10
  A 2.25 2.24 87.9 0 0 535.05 621.34
  L 535.12 722.05
  A 2.06 2.04 -72.6 0 0 535.99 723.73
  Z
  M 365.17 214.92
  Q 363.40 216.56 363.35 216.62
  Q 359.51 220.85 358.90 221.38
  Q 357.08 222.96 350.95 229.82
  Q 342.84 238.87 334.77 251.49
  Q 332.71 254.71 331.62 256.34
  A 7.16 5.99 89.4 0 0 331.15 257.18
  Q 329.80 260.04 327.53 263.99
  Q 321.54 274.39 314.78 291.64
  Q 312.30 297.96 310.77 304.01
  C 308.62 312.46 307.17 316.94 305.82 323.92
  Q 304.87 328.82 304.61 331.33
  C 303.99 337.36 303.13 341.10 303.12 345.92
  C 303.11 349.01 302.12 352.66 302.15 356.38
  Q 302.21 363.49 302.10 368.11
  Q 302.00 372.62 302.65 379.84
  Q 304.11 396.20 305.18 402.42
  Q 306.95 412.74 310.28 424.56
  Q 313.78 437.01 317.62 446.07
  Q 328.45 471.62 345.33 493.21
  Q 352.07 501.82 355.06 505.02
  Q 369.55 520.52 377.30 526.52
  Q 392.42 538.24 400.68 543.29
  Q 419.91 555.05 442.48 563.44
  Q 454.09 567.75 476.75 572.20
  Q 477.75 572.40 481.70 572.83
  Q 483.29 573.01 486.59 573.54
  C 498.58 575.49 512.03 575.27 525.00 574.94
  C 530.43 574.80 534.48 574.08 541.24 573.31
  Q 546.78 572.68 553.29 571.20
  Q 563.08 568.99 573.79 566.17
  Q 575.58 565.70 576.11 565.41
  C 577.82 564.48 579.75 564.35 581.93 563.56
  Q 603.56 555.66 622.31 543.81
  Q 633.44 536.78 638.00 533.25
  Q 665.51 512.01 684.29 485.33
  Q 710.70 447.82 718.93 401.49
  Q 719.78 396.66 720.04 392.94
  Q 720.38 388.01 720.99 384.39
  Q 721.99 378.50 721.89 371.55
  Q 721.88 370.98 721.89 358.63
  Q 721.89 352.60 721.34 348.88
  Q 720.72 344.68 720.37 339.15
  Q 719.95 332.58 718.16 324.67
  Q 715.38 312.49 714.29 308.70
  Q 702.76 268.73 676.79 236.46
  Q 671.73 230.17 670.13 228.41
  Q 649.01 205.11 623.16 188.43
  Q 615.93 183.76 606.41 178.92
  Q 596.38 173.82 588.81 171.05
  C 575.40 166.15 566.62 163.03 555.75 161.11
  Q 541.81 158.64 527.00 157.31
  Q 520.95 156.77 502.14 156.91
  C 494.74 156.96 486.06 158.74 479.15 159.17
  C 478.09 159.23 476.84 159.79 475.68 159.91
  C 462.71 161.29 451.82 165.02 436.74 170.05
  Q 431.45 171.82 415.49 179.31
  Q 408.02 182.81 394.36 191.39
  C 390.88 193.58 387.76 196.50 384.53 198.65
  C 377.54 203.30 371.00 209.50 365.17 214.92
  Z"
/>
<path fill="#060d08" d="
  M 365.17 214.92
  C 371.00 209.50 377.54 203.30 384.53 198.65
  C 387.76 196.50 390.88 193.58 394.36 191.39
  Q 408.02 182.81 415.49 179.31
  Q 431.45 171.82 436.74 170.05
  C 451.82 165.02 462.71 161.29 475.68 159.91
  C 476.84 159.79 478.09 159.23 479.15 159.17
  C 486.06 158.74 494.74 156.96 502.14 156.91
  Q 520.95 156.77 527.00 157.31
  Q 541.81 158.64 555.75 161.11
  C 566.62 163.03 575.40 166.15 588.81 171.05
  Q 596.38 173.82 606.41 178.92
  Q 615.93 183.76 623.16 188.43
  Q 649.01 205.11 670.13 228.41
  Q 671.73 230.17 676.79 236.46
  Q 702.76 268.73 714.29 308.70
  Q 715.38 312.49 718.16 324.67
  Q 719.95 332.58 720.37 339.15
  Q 720.72 344.68 721.34 348.88
  Q 721.89 352.60 721.89 358.63
  Q 721.88 370.98 721.89 371.55
  Q 721.99 378.50 720.99 384.39
  Q 720.38 388.01 720.04 392.94
  Q 719.78 396.66 718.93 401.49
  Q 710.70 447.82 684.29 485.33
  Q 665.51 512.01 638.00 533.25
  Q 633.44 536.78 622.31 543.81
  Q 603.56 555.66 581.93 563.56
  C 579.75 564.35 577.82 564.48 576.11 565.41
  Q 575.58 565.70 573.79 566.17
  Q 563.08 568.99 553.29 571.20
  Q 546.78 572.68 541.24 573.31
  C 534.48 574.08 530.43 574.80 525.00 574.94
  C 512.03 575.27 498.58 575.49 486.59 573.54
  Q 483.29 573.01 481.70 572.83
  Q 477.75 572.40 476.75 572.20
  Q 454.09 567.75 442.48 563.44
  Q 419.91 555.05 400.68 543.29
  Q 392.42 538.24 377.30 526.52
  Q 369.55 520.52 355.06 505.02
  Q 352.07 501.82 345.33 493.21
  Q 328.45 471.62 317.62 446.07
  Q 313.78 437.01 310.28 424.56
  Q 306.95 412.74 305.18 402.42
  Q 304.11 396.20 302.65 379.84
  Q 302.00 372.62 302.10 368.11
  Q 302.21 363.49 302.15 356.38
  C 302.12 352.66 303.11 349.01 303.12 345.92
  C 303.13 341.10 303.99 337.36 304.61 331.33
  Q 304.87 328.82 305.82 323.92
  C 307.17 316.94 308.62 312.46 310.77 304.01
  Q 312.30 297.96 314.78 291.64
  Q 321.54 274.39 327.53 263.99
  Q 329.80 260.04 331.15 257.18
  A 7.16 5.99 89.4 0 1 331.62 256.34
  Q 332.71 254.71 334.77 251.49
  Q 342.84 238.87 350.95 229.82
  Q 357.08 222.96 358.90 221.38
  Q 359.51 220.85 363.35 216.62
  Q 363.40 216.56 365.17 214.92
  Z
  M 424.27 176.22
  Q 423.46 176.71 422.42 177.18
  Q 388.80 192.48 361.56 219.80
  Q 347.17 234.23 336.80 250.28
  Q 305.53 298.66 303.21 356.84
  Q 302.13 383.81 307.97 411.01
  Q 318.72 461.04 352.71 500.79
  Q 363.88 513.86 376.36 524.39
  C 403.48 547.28 436.69 563.47 471.87 570.23
  Q 527.07 580.85 580.30 563.00
  Q 595.83 557.79 611.38 549.18
  Q 663.97 520.08 693.93 468.20
  Q 706.62 446.23 713.38 421.17
  Q 717.67 405.25 719.46 390.49
  Q 721.15 376.55 720.94 359.92
  C 720.89 355.88 720.27 352.13 720.15 348.34
  Q 719.98 343.39 719.49 339.67
  Q 715.15 307.02 702.61 280.08
  Q 679.57 230.59 634.95 197.72
  Q 593.86 167.44 544.61 160.23
  C 542.46 159.92 540.84 160.03 539.15 159.51
  C 536.22 158.60 532.13 159.12 529.10 158.56
  Q 526.28 158.04 523.24 158.02
  Q 511.28 157.92 500.05 158.01
  C 496.45 158.04 492.67 159.13 489.39 158.99
  C 486.91 158.89 484.80 159.81 482.23 159.93
  Q 479.94 160.03 476.84 160.55
  Q 450.51 164.96 424.69 176.01
  A 3.25 2.87 14.9 0 0 424.27 176.22
  Z"
/>
</svg>
