<?xml version="1.0" encoding="UTF-8" standalone="no"?>
<!DOCTYPE svg PUBLIC "-//W3C//DTD SVG 1.1//EN" "http://www.w3.org/Graphics/SVG/1.1/DTD/svg11.dtd">
<svg xmlns="http://www.w3.org/2000/svg" version="1.1" viewBox="0.00 0.00 1024.00 1024.00">
<g stroke-width="1.00" fill="none" stroke-linecap="butt">
<path stroke="#11242f" vector-effect="non-scaling-stroke" d="
  M 513.47 495.62
  Q 513.75 494.13 514.68 492.45
  Q 522.63 478.09 528.81 465.53
  Q 529.78 463.56 530.17 462.72
  Q 550.40 419.23 561.62 387.75
  Q 565.11 377.94 567.62 370.65
  Q 577.93 340.68 584.21 309.25
  Q 587.40 293.28 587.87 283.75
  Q 588.11 278.96 588.42 276.68
  Q 588.92 272.91 589.06 269.65
  Q 589.99 246.55 585.74 225.23
  C 585.64 224.73 585.35 224.27 585.26 223.78
  Q 581.04 200.93 568.88 181.92
  Q 557.58 164.24 540.16 151.90
  Q 522.39 139.31 502.50 134.09
  Q 488.95 130.54 476.66 130.83
  A 2.51 2.48 75.0 0 1 474.40 129.51
  Q 466.03 113.87 450.27 111.41
  C 436.46 109.25 422.87 115.32 416.03 127.31
  C 408.03 141.32 411.04 159.77 423.20 170.11
  C 431.89 177.49 443.39 179.83 454.35 176.37
  Q 466.26 172.60 473.02 161.85
  A 0.87 0.86 -68.8 0 1 473.90 161.46
  Q 475.86 161.83 482.46 161.97
  Q 486.91 162.07 491.50 162.91
  C 523.92 168.90 545.37 191.75 553.91 223.06
  Q 556.79 233.61 557.69 241.52
  Q 557.70 241.66 558.73 251.83
  Q 559.31 257.56 559.08 262.18
  Q 558.31 277.70 557.90 280.76
  Q 555.11 301.62 549.97 323.70
  C 548.07 331.87 545.63 339.46 543.74 346.17
  Q 541.46 354.27 538.53 362.84
  Q 521.65 412.16 497.11 458.87
  Q 487.61 476.95 486.87 478.19
  A 10.75 10.73 87.7 0 1 483.90 481.41
  C 480.19 484.07 478.41 485.64 475.99 489.12
  C 463.85 506.56 449.53 521.63 431.86 533.36
  Q 405.01 551.18 372.32 552.37
  Q 342.92 553.43 316.70 541.44
  C 300.28 533.93 285.15 521.92 272.53 508.71
  Q 265.23 501.06 259.19 491.57
  C 257.11 488.31 254.02 484.93 250.43 482.19
  Q 248.34 480.59 246.88 477.88
  Q 237.24 459.94 233.95 453.55
  Q 215.62 417.93 200.69 377.54
  Q 185.50 336.43 178.43 297.36
  C 176.93 289.06 176.03 280.76 175.38 271.51
  Q 174.18 254.72 176.35 238.55
  Q 178.08 225.70 184.49 209.97
  C 189.02 198.84 197.16 187.87 205.69 180.42
  Q 221.62 166.53 244.27 162.59
  C 249.40 161.70 252.71 161.89 259.33 161.73
  A 2.60 2.58 -18.4 0 1 261.52 162.82
  Q 272.08 177.54 289.85 178.00
  Q 292.32 178.06 295.72 177.24
  C 300.90 175.99 304.28 174.93 308.69 171.67
  Q 320.85 162.70 322.62 147.65
  Q 323.08 143.72 322.48 139.86
  Q 321.63 134.42 320.73 132.25
  C 315.70 120.19 304.66 111.28 291.21 111.11
  C 278.78 110.94 268.66 115.63 261.71 125.92
  C 259.91 128.58 260.65 130.46 256.33 130.65
  C 234.94 131.59 214.94 136.84 196.89 148.57
  C 171.80 164.89 154.71 191.90 148.64 221.10
  Q 145.32 237.08 145.04 251.51
  Q 144.55 275.88 148.57 301.23
  C 154.99 341.71 169.21 380.75 184.88 418.91
  Q 194.10 441.37 207.95 469.32
  Q 213.14 479.79 221.68 494.25
  A 2.86 2.84 -59.1 0 1 222.07 495.83
  Q 221.78 501.17 222.00 502.24
  C 222.88 506.63 225.81 511.82 228.84 516.08
  Q 254.76 552.56 293.88 574.04
  C 297.44 576.00 302.71 578.29 306.93 580.10
  Q 326.50 588.50 347.52 590.45
  Q 349.25 590.61 350.61 591.88
  A 1.18 1.18 0.0 0 1 350.99 592.77
  Q 350.91 620.83 351.00 631.00
  Q 351.10 642.35 351.83 651.11
  C 352.10 654.29 351.87 657.47 352.16 660.72
  Q 353.62 677.18 357.05 694.73
  C 364.26 731.65 378.65 766.53 401.18 795.57
  C 416.73 815.61 437.13 833.83 459.75 846.74
  Q 492.48 865.42 528.84 872.03
  C 535.94 873.32 542.37 873.92 550.58 874.86
  C 553.88 875.24 556.39 875.00 559.30 875.45
  Q 562.20 875.91 565.81 875.87
  Q 589.03 875.63 607.56 872.54
  Q 620.20 870.43 638.23 864.73
  C 645.33 862.49 649.63 860.44 657.36 857.11
  Q 680.02 847.36 700.59 831.33
  Q 706.83 826.47 713.28 820.53
  Q 735.82 799.77 751.11 774.12
  Q 765.55 749.91 774.22 718.92
  Q 783.99 683.99 784.37 647.83
  Q 784.61 626.00 784.36 609.61
  A 1.26 1.25 -7.9 0 1 785.30 608.37
  Q 813.95 600.84 833.27 579.62
  Q 845.65 566.04 851.71 549.95
  Q 857.64 534.21 857.32 515.50
  C 856.79 484.36 839.01 454.96 812.33 439.26
  C 794.95 429.03 774.36 424.11 754.35 426.60
  Q 738.22 428.60 726.08 434.07
  Q 695.72 447.77 680.86 478.32
  Q 669.42 501.87 672.91 529.09
  Q 676.03 553.42 689.13 571.43
  Q 711.27 601.87 748.31 608.98
  A 1.00 0.99 4.4 0 1 749.12 609.92
  Q 749.91 628.27 749.26 647.98
  Q 748.89 659.32 747.14 673.28
  Q 743.46 702.68 733.78 728.05
  Q 725.38 750.07 711.94 768.46
  Q 686.97 802.60 649.16 822.37
  Q 630.60 832.06 604.75 837.55
  Q 598.18 838.95 589.55 839.69
  Q 576.66 840.80 574.22 840.97
  C 565.94 841.54 557.88 840.41 549.80 839.66
  C 523.01 837.17 497.41 828.28 474.77 814.23
  Q 428.37 785.45 405.87 735.40
  Q 395.76 712.90 391.72 690.82
  Q 387.82 669.50 387.34 660.26
  C 386.97 653.08 386.12 646.68 386.09 640.57
  Q 385.97 610.07 386.12 591.98
  A 0.76 0.75 -5.6 0 1 386.73 591.24
  C 388.08 590.97 389.42 591.17 390.95 590.85
  Q 396.96 589.62 402.71 588.38
  Q 423.03 584.02 440.67 574.43
  C 467.82 559.66 491.00 538.05 508.71 512.99
  Q 511.35 509.25 511.95 507.79
  C 513.48 504.07 514.81 501.11 513.51 496.51
  A 2.04 2.03 -47.7 0 1 513.47 495.62"
/>
<path stroke="#11242f" vector-effect="non-scaling-stroke" d="
  M 826.63 517.78
  A 61.97 61.97 0.0 0 0 764.66 455.81
  A 61.97 61.97 0.0 0 0 702.69 517.78
  A 61.97 61.97 0.0 0 0 764.66 579.75
  A 61.97 61.97 0.0 0 0 826.63 517.78"
/>
<path stroke="#11242f" vector-effect="non-scaling-stroke" d="
  M 798.05 518.27
  A 33.54 33.54 0.0 0 0 764.51 484.73
  A 33.54 33.54 0.0 0 0 730.97 518.27
  A 33.54 33.54 0.0 0 0 764.51 551.81
  A 33.54 33.54 0.0 0 0 798.05 518.27"
/>
</g>
<path fill="#010101" d="
  M 785.38 609.73
  Q 785.79 627.36 785.62 643.99
  Q 785.50 655.95 783.91 672.74
  Q 780.79 705.72 768.92 738.72
  Q 752.01 785.71 715.19 820.19
  Q 692.10 841.80 663.26 855.52
  Q 656.53 858.71 645.60 863.06
  Q 630.95 868.89 612.78 872.49
  Q 587.75 877.44 563.06 876.81
  Q 553.78 876.57 537.97 874.48
  Q 497.13 869.10 460.58 848.42
  C 422.55 826.89 391.51 791.77 374.16 752.83
  Q 357.40 715.20 352.57 673.69
  Q 352.46 672.72 351.56 665.40
  C 350.89 659.92 351.04 656.34 350.38 651.50
  Q 350.20 650.20 350.05 645.94
  Q 349.11 619.99 349.50 592.63
  A 1.03 1.03 0.0 0 0 348.56 591.59
  Q 326.90 589.83 306.07 580.89
  Q 275.94 567.95 251.13 543.63
  Q 237.33 530.10 227.16 515.34
  C 224.45 511.39 222.31 507.32 221.10 503.18
  Q 220.32 500.52 221.01 496.00
  A 1.88 1.86 -57.0 0 0 220.75 494.74
  Q 213.89 483.87 205.01 466.00
  Q 185.73 427.16 169.78 383.47
  Q 156.81 347.96 150.05 315.99
  Q 142.84 281.91 144.14 247.26
  Q 144.53 236.96 146.98 223.75
  Q 152.11 196.05 168.96 173.50
  Q 183.41 154.16 204.21 143.01
  Q 229.17 129.62 257.64 129.57
  A 1.38 1.37 -76.7 0 0 258.87 128.80
  C 263.21 120.05 272.17 112.65 281.75 110.74
  Q 292.01 108.70 300.61 111.65
  Q 317.19 117.35 322.80 134.90
  A 3.22 3.18 35.9 0 1 322.95 135.80
  Q 322.97 137.70 323.68 139.49
  A 4.01 3.98 -56.2 0 1 323.95 140.88
  Q 324.06 149.24 322.62 153.74
  Q 317.86 168.59 304.66 175.24
  Q 292.92 181.15 280.63 177.75
  Q 268.55 174.40 260.82 163.54
  A 1.82 1.82 0.0 0 0 259.30 162.78
  L 246.74 163.07
  A 2.77 2.70 36.3 0 0 246.17 163.15
  Q 242.78 164.05 240.96 164.04
  A 1.65 1.62 27.1 0 0 239.97 164.35
  Q 239.09 164.96 237.44 165.03
  A 4.04 3.90 -54.8 0 0 236.44 165.22
  Q 233.69 166.13 228.86 167.81
  Q 224.48 169.33 221.56 170.86
  C 200.73 181.83 187.25 200.77 180.80 223.31
  Q 179.14 229.11 177.57 237.79
  Q 176.94 241.23 176.93 243.88
  C 176.91 246.93 176.09 249.00 176.05 251.99
  C 175.95 260.15 175.86 265.54 176.63 272.41
  Q 176.84 274.32 177.14 279.24
  Q 177.61 287.03 181.56 307.24
  Q 185.11 325.38 192.00 348.03
  Q 198.52 369.45 209.65 397.43
  Q 224.27 434.19 248.89 479.20
  A 3.16 3.08 -86.1 0 0 249.70 480.15
  Q 254.76 484.07 256.55 486.20
  Q 258.43 488.45 263.10 495.31
  Q 265.86 499.37 270.06 504.19
  Q 284.47 520.73 302.63 532.44
  Q 322.91 545.51 346.44 549.51
  Q 392.43 557.32 431.11 532.60
  Q 433.62 531.00 440.12 526.12
  Q 444.76 522.64 448.64 519.07
  Q 464.22 504.74 475.61 487.88
  Q 478.75 483.22 483.01 480.78
  A 6.13 6.10 89.9 0 0 485.31 478.46
  Q 510.61 433.43 529.30 385.06
  Q 539.93 357.55 547.01 330.75
  Q 552.36 310.45 555.56 288.81
  Q 557.54 275.39 557.67 261.76
  Q 557.89 240.43 552.11 220.88
  Q 549.65 212.54 545.28 203.94
  C 535.80 185.26 519.98 171.91 499.77 165.93
  Q 487.15 162.20 474.02 162.88
  A 0.99 0.98 14.6 0 0 473.25 163.33
  Q 469.56 169.18 464.35 172.65
  Q 450.62 181.78 436.06 177.89
  Q 425.51 175.08 418.53 166.82
  Q 411.66 158.69 410.67 147.61
  Q 409.57 135.34 415.96 125.44
  Q 422.15 115.86 434.01 111.48
  Q 437.90 110.05 443.62 109.96
  Q 449.42 109.87 453.33 110.92
  Q 467.84 114.79 475.22 128.58
  A 2.10 2.10 0.0 0 0 477.18 129.68
  Q 480.63 129.49 486.24 130.00
  Q 489.29 130.28 490.22 130.56
  C 492.01 131.09 493.61 130.94 495.55 131.34
  Q 520.38 136.42 540.97 151.08
  Q 563.70 167.27 576.08 192.47
  Q 581.85 204.23 585.00 217.00
  Q 589.26 234.22 590.00 251.50
  Q 590.14 254.75 589.97 271.30
  C 589.93 275.90 588.92 280.41 588.93 285.16
  A 7.77 7.39 53.0 0 1 588.71 287.06
  Q 587.88 290.49 587.91 293.81
  A 4.48 4.40 -37.0 0 1 587.70 295.22
  C 587.01 297.43 587.04 299.42 586.66 301.59
  Q 581.50 330.77 572.50 359.25
  Q 564.77 383.74 555.12 408.07
  Q 543.66 437.01 532.20 460.95
  Q 523.94 478.21 515.31 493.30
  Q 514.57 494.60 514.56 496.49
  A 2.11 1.93 -53.8 0 0 514.61 496.94
  Q 515.44 501.12 514.53 503.74
  C 513.51 506.71 512.49 509.34 510.48 512.23
  C 491.63 539.30 466.56 562.62 437.11 577.34
  Q 418.92 586.43 400.48 589.88
  Q 399.32 590.09 387.62 592.26
  A 0.64 0.64 0.0 0 0 387.09 592.89
  Q 386.96 607.58 386.98 631.72
  C 386.99 638.44 388.00 646.91 387.97 654.06
  C 387.95 658.45 389.08 662.53 389.06 667.43
  A 4.22 4.19 -53.8 0 0 389.25 668.68
  Q 389.65 669.95 389.97 672.74
  Q 393.76 706.79 408.41 738.08
  Q 430.80 785.89 476.02 813.72
  Q 509.42 834.26 548.98 838.56
  Q 572.47 841.12 594.75 837.96
  Q 651.84 829.86 692.46 789.45
  Q 710.88 771.13 722.32 750.10
  Q 731.44 733.34 736.46 717.27
  Q 741.52 701.04 744.46 684.74
  Q 745.78 677.38 746.15 672.13
  Q 746.22 671.05 746.70 668.54
  C 747.23 665.76 746.85 661.76 747.25 659.58
  C 747.74 656.94 747.97 654.22 747.99 652.44
  Q 748.12 634.40 748.04 610.11
  A 0.76 0.76 0.0 0 0 747.36 609.35
  C 744.45 609.03 742.43 608.90 739.73 608.11
  Q 708.80 599.12 689.86 574.16
  Q 678.93 559.76 674.30 542.73
  Q 669.57 525.33 671.49 507.73
  C 674.63 478.97 690.86 453.43 715.30 438.47
  Q 734.46 426.75 757.74 425.10
  Q 775.41 423.85 791.74 429.01
  Q 831.19 441.47 849.41 478.05
  Q 858.19 495.69 858.66 518.02
  C 858.72 521.00 858.03 523.70 858.01 526.59
  Q 858.00 528.80 857.81 530.00
  Q 854.92 547.62 848.80 559.31
  Q 836.11 583.52 812.54 598.04
  Q 800.01 605.76 785.93 609.02
  A 0.72 0.71 83.0 0 0 785.38 609.73
  Z
  M 513.47 495.62
  Q 513.75 494.13 514.68 492.45
  Q 522.63 478.09 528.81 465.53
  Q 529.78 463.56 530.17 462.72
  Q 550.40 419.23 561.62 387.75
  Q 565.11 377.94 567.62 370.65
  Q 577.93 340.68 584.21 309.25
  Q 587.40 293.28 587.87 283.75
  Q 588.11 278.96 588.42 276.68
  Q 588.92 272.91 589.06 269.65
  Q 589.99 246.55 585.74 225.23
  C 585.64 224.73 585.35 224.27 585.26 223.78
  Q 581.04 200.93 568.88 181.92
  Q 557.58 164.24 540.16 151.90
  Q 522.39 139.31 502.50 134.09
  Q 488.95 130.54 476.66 130.83
  A 2.51 2.48 75.0 0 1 474.40 129.51
  Q 466.03 113.87 450.27 111.41
  C 436.46 109.25 422.87 115.32 416.03 127.31
  C 408.03 141.32 411.04 159.77 423.20 170.11
  C 431.89 177.49 443.39 179.83 454.35 176.37
  Q 466.26 172.60 473.02 161.85
  A 0.87 0.86 -68.8 0 1 473.90 161.46
  Q 475.86 161.83 482.46 161.97
  Q 486.91 162.07 491.50 162.91
  C 523.92 168.90 545.37 191.75 553.91 223.06
  Q 556.79 233.61 557.69 241.52
  Q 557.70 241.66 558.73 251.83
  Q 559.31 257.56 559.08 262.18
  Q 558.31 277.70 557.90 280.76
  Q 555.11 301.62 549.97 323.70
  C 548.07 331.87 545.63 339.46 543.74 346.17
  Q 541.46 354.27 538.53 362.84
  Q 521.65 412.16 497.11 458.87
  Q 487.61 476.95 486.87 478.19
  A 10.75 10.73 87.7 0 1 483.90 481.41
  C 480.19 484.07 478.41 485.64 475.99 489.12
  C 463.85 506.56 449.53 521.63 431.86 533.36
  Q 405.01 551.18 372.32 552.37
  Q 342.92 553.43 316.70 541.44
  C 300.28 533.93 285.15 521.92 272.53 508.71
  Q 265.23 501.06 259.19 491.57
  C 257.11 488.31 254.02 484.93 250.43 482.19
  Q 248.34 480.59 246.88 477.88
  Q 237.24 459.94 233.95 453.55
  Q 215.62 417.93 200.69 377.54
  Q 185.50 336.43 178.43 297.36
  C 176.93 289.06 176.03 280.76 175.38 271.51
  Q 174.18 254.72 176.35 238.55
  Q 178.08 225.70 184.49 209.97
  C 189.02 198.84 197.16 187.87 205.69 180.42
  Q 221.62 166.53 244.27 162.59
  C 249.40 161.70 252.71 161.89 259.33 161.73
  A 2.60 2.58 -18.4 0 1 261.52 162.82
  Q 272.08 177.54 289.85 178.00
  Q 292.32 178.06 295.72 177.24
  C 300.90 175.99 304.28 174.93 308.69 171.67
  Q 320.85 162.70 322.62 147.65
  Q 323.08 143.72 322.48 139.86
  Q 321.63 134.42 320.73 132.25
  C 315.70 120.19 304.66 111.28 291.21 111.11
  C 278.78 110.94 268.66 115.63 261.71 125.92
  C 259.91 128.58 260.65 130.46 256.33 130.65
  C 234.94 131.59 214.94 136.84 196.89 148.57
  C 171.80 164.89 154.71 191.90 148.64 221.10
  Q 145.32 237.08 145.04 251.51
  Q 144.55 275.88 148.57 301.23
  C 154.99 341.71 169.21 380.75 184.88 418.91
  Q 194.10 441.37 207.95 469.32
  Q 213.14 479.79 221.68 494.25
  A 2.86 2.84 -59.1 0 1 222.07 495.83
  Q 221.78 501.17 222.00 502.24
  C 222.88 506.63 225.81 511.82 228.84 516.08
  Q 254.76 552.56 293.88 574.04
  C 297.44 576.00 302.71 578.29 306.93 580.10
  Q 326.50 588.50 347.52 590.45
  Q 349.25 590.61 350.61 591.88
  A 1.18 1.18 0.0 0 1 350.99 592.77
  Q 350.91 620.83 351.00 631.00
  Q 351.10 642.35 351.83 651.11
  C 352.10 654.29 351.87 657.47 352.16 660.72
  Q 353.62 677.18 357.05 694.73
  C 364.26 731.65 378.65 766.53 401.18 795.57
  C 416.73 815.61 437.13 833.83 459.75 846.74
  Q 492.48 865.42 528.84 872.03
  C 535.94 873.32 542.37 873.92 550.58 874.86
  C 553.88 875.24 556.39 875.00 559.30 875.45
  Q 562.20 875.91 565.81 875.87
  Q 589.03 875.63 607.56 872.54
  Q 620.20 870.43 638.23 864.73
  C 645.33 862.49 649.63 860.44 657.36 857.11
  Q 680.02 847.36 700.59 831.33
  Q 706.83 826.47 713.28 820.53
  Q 735.82 799.77 751.11 774.12
  Q 765.55 749.91 774.22 718.92
  Q 783.99 683.99 784.37 647.83
  Q 784.61 626.00 784.36 609.61
  A 1.26 1.25 -7.9 0 1 785.30 608.37
  Q 813.95 600.84 833.27 579.62
  Q 845.65 566.04 851.71 549.95
  Q 857.64 534.21 857.32 515.50
  C 856.79 484.36 839.01 454.96 812.33 439.26
  C 794.95 429.03 774.36 424.11 754.35 426.60
  Q 738.22 428.60 726.08 434.07
  Q 695.72 447.77 680.86 478.32
  Q 669.42 501.87 672.91 529.09
  Q 676.03 553.42 689.13 571.43
  Q 711.27 601.87 748.31 608.98
  A 1.00 0.99 4.4 0 1 749.12 609.92
  Q 749.91 628.27 749.26 647.98
  Q 748.89 659.32 747.14 673.28
  Q 743.46 702.68 733.78 728.05
  Q 725.38 750.07 711.94 768.46
  Q 686.97 802.60 649.16 822.37
  Q 630.60 832.06 604.75 837.55
  Q 598.18 838.95 589.55 839.69
  Q 576.66 840.80 574.22 840.97
  C 565.94 841.54 557.88 840.41 549.80 839.66
  C 523.01 837.17 497.41 828.28 474.77 814.23
  Q 428.37 785.45 405.87 735.40
  Q 395.76 712.90 391.72 690.82
  Q 387.82 669.50 387.34 660.26
  C 386.97 653.08 386.12 646.68 386.09 640.57
  Q 385.97 610.07 386.12 591.98
  A 0.76 0.75 -5.6 0 1 386.73 591.24
  C 388.08 590.97 389.42 591.17 390.95 590.85
  Q 396.96 589.62 402.71 588.38
  Q 423.03 584.02 440.67 574.43
  C 467.82 559.66 491.00 538.05 508.71 512.99
  Q 511.35 509.25 511.95 507.79
  C 513.48 504.07 514.81 501.11 513.51 496.51
  A 2.04 2.03 -47.7 0 1 513.47 495.62
  Z"
/>
<path fill="#20475d" d="
  M 513.51 496.51
  C 514.81 501.11 513.48 504.07 511.95 507.79
  Q 511.35 509.25 508.71 512.99
  C 491.00 538.05 467.82 559.66 440.67 574.43
  Q 423.03 584.02 402.71 588.38
  Q 396.96 589.62 390.95 590.85
  C 389.42 591.17 388.08 590.97 386.73 591.24
  A 0.76 0.75 -5.6 0 0 386.12 591.98
  Q 385.97 610.07 386.09 640.57
  C 386.12 646.68 386.97 653.08 387.34 660.26
  Q 387.82 669.50 391.72 690.82
  Q 395.76 712.90 405.87 735.40
  Q 428.37 785.45 474.77 814.23
  C 497.41 828.28 523.01 837.17 549.80 839.66
  C 557.88 840.41 565.94 841.54 574.22 840.97
  Q 576.66 840.80 589.55 839.69
  Q 598.18 838.95 604.75 837.55
  Q 630.60 832.06 649.16 822.37
  Q 686.97 802.60 711.94 768.46
  Q 725.38 750.07 733.78 728.05
  Q 743.46 702.68 747.14 673.28
  Q 748.89 659.32 749.26 647.98
  Q 749.91 628.27 749.12 609.92
  A 1.00 0.99 4.4 0 0 748.31 608.98
  Q 711.27 601.87 689.13 571.43
  Q 676.03 553.42 672.91 529.09
  Q 669.42 501.87 680.86 478.32
  Q 695.72 447.77 726.08 434.07
  Q 738.22 428.60 754.35 426.60
  C 774.36 424.11 794.95 429.03 812.33 439.26
  C 839.01 454.96 856.79 484.36 857.32 515.50
  Q 857.64 534.21 851.71 549.95
  Q 845.65 566.04 833.27 579.62
  Q 813.95 600.84 785.30 608.37
  A 1.26 1.25 -7.9 0 0 784.36 609.61
  Q 784.61 626.00 784.37 647.83
  Q 783.99 683.99 774.22 718.92
  Q 765.55 749.91 751.11 774.12
  Q 735.82 799.77 713.28 820.53
  Q 706.83 826.47 700.59 831.33
  Q 680.02 847.36 657.36 857.11
  C 649.63 860.44 645.33 862.49 638.23 864.73
  Q 620.20 870.43 607.56 872.54
  Q 589.03 875.63 565.81 875.87
  Q 562.20 875.91 559.30 875.45
  C 556.39 875.00 553.88 875.24 550.58 874.86
  C 542.37 873.92 535.94 873.32 528.84 872.03
  Q 492.48 865.42 459.75 846.74
  C 437.13 833.83 416.73 815.61 401.18 795.57
  C 378.65 766.53 364.26 731.65 357.05 694.73
  Q 353.62 677.18 352.16 660.72
  C 351.87 657.47 352.10 654.29 351.83 651.11
  Q 351.10 642.35 351.00 631.00
  Q 350.91 620.83 350.99 592.77
  A 1.18 1.18 0.0 0 0 350.61 591.88
  Q 349.25 590.61 347.52 590.45
  Q 326.50 588.50 306.93 580.10
  C 302.71 578.29 297.44 576.00 293.88 574.04
  Q 254.76 552.56 228.84 516.08
  C 225.81 511.82 222.88 506.63 222.00 502.24
  Q 221.78 501.17 222.07 495.83
  A 2.86 2.84 -59.1 0 0 221.68 494.25
  Q 213.14 479.79 207.95 469.32
  Q 194.10 441.37 184.88 418.91
  C 169.21 380.75 154.99 341.71 148.57 301.23
  Q 144.55 275.88 145.04 251.51
  Q 145.32 237.08 148.64 221.10
  C 154.71 191.90 171.80 164.89 196.89 148.57
  C 214.94 136.84 234.94 131.59 256.33 130.65
  C 260.65 130.46 259.91 128.58 261.71 125.92
  C 268.66 115.63 278.78 110.94 291.21 111.11
  C 304.66 111.28 315.70 120.19 320.73 132.25
  Q 321.63 134.42 322.48 139.86
  Q 323.08 143.72 322.62 147.65
  Q 320.85 162.70 308.69 171.67
  C 304.28 174.93 300.90 175.99 295.72 177.24
  Q 292.32 178.06 289.85 178.00
  Q 272.08 177.54 261.52 162.82
  A 2.60 2.58 -18.4 0 0 259.33 161.73
  C 252.71 161.89 249.40 161.70 244.27 162.59
  Q 221.62 166.53 205.69 180.42
  C 197.16 187.87 189.02 198.84 184.49 209.97
  Q 178.08 225.70 176.35 238.55
  Q 174.18 254.72 175.38 271.51
  C 176.03 280.76 176.93 289.06 178.43 297.36
  Q 185.50 336.43 200.69 377.54
  Q 215.62 417.93 233.95 453.55
  Q 237.24 459.94 246.88 477.88
  Q 248.34 480.59 250.43 482.19
  C 254.02 484.93 257.11 488.31 259.19 491.57
  Q 265.23 501.06 272.53 508.71
  C 285.15 521.92 300.28 533.93 316.70 541.44
  Q 342.92 553.43 372.32 552.37
  Q 405.01 551.18 431.86 533.36
  C 449.53 521.63 463.85 506.56 475.99 489.12
  C 478.41 485.64 480.19 484.07 483.90 481.41
  A 10.75 10.73 87.7 0 0 486.87 478.19
  Q 487.61 476.95 497.11 458.87
  Q 521.65 412.16 538.53 362.84
  Q 541.46 354.27 543.74 346.17
  C 545.63 339.46 548.07 331.87 549.97 323.70
  Q 555.11 301.62 557.90 280.76
  Q 558.31 277.70 559.08 262.18
  Q 559.31 257.56 558.73 251.83
  Q 557.70 241.66 557.69 241.52
  Q 556.79 233.61 553.91 223.06
  C 545.37 191.75 523.92 168.90 491.50 162.91
  Q 486.91 162.07 482.46 161.97
  Q 475.86 161.83 473.90 161.46
  A 0.87 0.86 -68.8 0 0 473.02 161.85
  Q 466.26 172.60 454.35 176.37
  C 443.39 179.83 431.89 177.49 423.20 170.11
  C 411.04 159.77 408.03 141.32 416.03 127.31
  C 422.87 115.32 436.46 109.25 450.27 111.41
  Q 466.03 113.87 474.40 129.51
  A 2.51 2.48 75.0 0 0 476.66 130.83
  Q 488.95 130.54 502.50 134.09
  Q 522.39 139.31 540.16 151.90
  Q 557.58 164.24 568.88 181.92
  Q 581.04 200.93 585.26 223.78
  C 585.35 224.27 585.64 224.73 585.74 225.23
  Q 589.99 246.55 589.06 269.65
  Q 588.92 272.91 588.42 276.68
  Q 588.11 278.96 587.87 283.75
  Q 587.40 293.28 584.21 309.25
  Q 577.93 340.68 567.62 370.65
  Q 565.11 377.94 561.62 387.75
  Q 550.40 419.23 530.17 462.72
  Q 529.78 463.56 528.81 465.53
  Q 522.63 478.09 514.68 492.45
  Q 513.75 494.13 513.47 495.62
  A 2.04 2.03 -47.7 0 0 513.51 496.51
  Z
  M 826.63 517.78
  A 61.97 61.97 0.0 0 0 764.66 455.81
  A 61.97 61.97 0.0 0 0 702.69 517.78
  A 61.97 61.97 0.0 0 0 764.66 579.75
  A 61.97 61.97 0.0 0 0 826.63 517.78
  Z"
/>
<path fill="#010101" d="
  M 826.63 517.78
  A 61.97 61.97 0.0 0 1 764.66 579.75
  A 61.97 61.97 0.0 0 1 702.69 517.78
  A 61.97 61.97 0.0 0 1 764.66 455.81
  A 61.97 61.97 0.0 0 1 826.63 517.78
  Z
  M 825.52 517.76
  A 60.88 60.88 0.0 0 0 764.64 456.88
  A 60.88 60.88 0.0 0 0 703.76 517.76
  A 60.88 60.88 0.0 0 0 764.64 578.64
  A 60.88 60.88 0.0 0 0 825.52 517.76
  Z"
/>
<path fill="#010101" d="
  M 773.6364 551.6601
  A 34.70 34.59 74.7 0 1 731.1160 527.3174
  A 34.70 34.59 74.7 0 1 755.3236 484.7199
  A 34.70 34.59 74.7 0 1 797.8440 509.0626
  A 34.70 34.59 74.7 0 1 773.6364 551.6601
  Z
  M 798.05 518.27
  A 33.54 33.54 0.0 0 0 764.51 484.73
  A 33.54 33.54 0.0 0 0 730.97 518.27
  A 33.54 33.54 0.0 0 0 764.51 551.81
  A 33.54 33.54 0.0 0 0 798.05 518.27
  Z"
/>
<path fill="#20475d" d="
  M 798.05 518.27
  A 33.54 33.54 0.0 0 1 764.51 551.81
  A 33.54 33.54 0.0 0 1 730.97 518.27
  A 33.54 33.54 0.0 0 1 764.51 484.73
  A 33.54 33.54 0.0 0 1 798.05 518.27
  Z"
/>
</svg>
