<?xml version="1.0" encoding="UTF-8" standalone="no"?>
<!DOCTYPE svg PUBLIC "-//W3C//DTD SVG 1.1//EN" "http://www.w3.org/Graphics/SVG/1.1/DTD/svg11.dtd">
<svg xmlns="http://www.w3.org/2000/svg" version="1.1" viewBox="0.00 0.00 1024.00 1024.00">
<g stroke-width="2.00" fill="none" stroke-linecap="butt">
<path stroke="#163a32" vector-effect="non-scaling-stroke" d="
  M 246.37 435.92
  L 246.49 325.55"
/>
<path stroke="#163a32" vector-effect="non-scaling-stroke" d="
  M 776.18 440.06
  C 776.06 408.18 775.91 388.65 776.16 372.75
  Q 776.49 352.14 775.75 287.53
  Q 775.58 272.59 760.55 268.04
  A 3.35 3.32 54.0 0 0 759.63 267.89
  C 755.37 267.77 746.51 266.94 739.20 266.87
  Q 735.84 266.85 732.51 266.20
  A 9.48 9.28 -38.9 0 0 730.73 266.03
  Q 727.16 266.06 723.78 265.67
  Q 717.21 264.91 716.84 264.88
  Q 693.02 262.95 670.11 257.69
  C 665.29 256.58 660.10 255.84 655.57 254.65
  Q 646.77 252.34 630.95 247.90
  Q 628.39 247.19 622.84 245.20
  Q 618.59 243.68 614.70 242.33
  Q 595.06 235.50 574.43 225.79
  Q 556.83 217.51 525.75 199.25
  Q 524.85 198.72 517.93 195.43
  A 6.06 5.71 -25.5 0 0 516.50 194.97
  Q 507.05 193.24 498.29 198.51
  Q 490.30 203.32 471.37 213.84
  Q 442.26 230.01 409.64 242.31
  Q 394.56 248.00 379.77 251.98
  Q 371.49 254.20 356.62 257.72
  Q 349.46 259.42 338.27 261.17
  Q 325.25 263.21 319.76 264.01
  Q 311.74 265.18 310.39 264.92
  A 2.80 2.74 40.7 0 0 309.02 265.01
  Q 305.62 266.11 300.88 265.90
  A 5.37 5.20 -50.3 0 0 299.24 266.08
  Q 295.89 266.97 293.75 266.90
  Q 287.10 266.68 283.04 267.60
  A 8.46 8.03 -48.5 0 1 280.87 267.79
  Q 274.17 267.50 268.26 267.81
  Q 262.41 268.11 259.71 269.18
  Q 254.14 271.40 250.46 277.16
  C 249.12 279.27 247.72 285.42 247.81 287.51
  Q 248.01 292.53 248.02 300.01
  C 248.13 376.73 248.29 419.97 247.94 440.68
  Q 247.79 449.36 248.50 455.92
  C 249.05 460.93 248.75 466.37 249.49 471.29
  Q 250.19 475.97 250.07 480.24
  A 8.29 8.02 41.0 0 0 250.22 481.99
  Q 251.06 486.34 250.95 489.26
  A 4.81 4.74 -52.0 0 0 251.12 490.73
  Q 251.47 492.03 252.07 497.99
  Q 253.95 516.80 258.63 538.12
  Q 263.65 561.01 267.20 571.87
  Q 273.32 590.62 275.76 597.23
  Q 278.07 603.47 285.45 620.50
  Q 288.70 628.01 292.62 635.60
  Q 299.25 648.43 300.35 650.40
  Q 316.37 678.81 337.55 703.76
  Q 350.55 719.07 355.91 724.64
  Q 375.77 745.26 393.67 760.07
  Q 421.64 783.24 452.49 801.74
  Q 469.44 811.91 473.06 813.92
  Q 477.88 816.61 491.95 824.06
  C 498.75 827.66 507.85 832.51 515.83 830.33
  Q 521.05 828.90 521.44 828.71
  Q 554.93 812.13 585.33 792.47
  C 588.86 790.19 592.03 787.74 595.28 785.77
  Q 598.56 783.79 602.68 780.64
  C 608.30 776.32 616.05 771.56 622.13 766.43
  C 628.25 761.25 634.20 756.87 639.69 751.70
  C 646.17 745.59 651.87 740.93 657.21 735.60
  Q 671.07 721.78 685.44 705.29
  C 687.96 702.39 689.84 699.53 691.87 697.31
  Q 693.36 695.68 696.66 691.30
  Q 742.20 630.91 760.62 557.44
  Q 760.99 555.94 765.93 535.00
  Q 767.29 529.22 771.47 499.19
  Q 773.18 486.86 773.10 484.65
  C 772.96 480.73 774.07 476.95 774.15 472.97
  Q 774.23 469.20 774.95 464.20
  Q 775.34 461.47 775.29 456.05
  C 775.23 450.37 776.19 445.05 776.18 440.06"
/>
<path stroke="#163a32" vector-effect="non-scaling-stroke" d="
  M 417.51 729.96
  Q 417.73 730.48 418.03 730.74
  Q 438.64 748.03 460.39 761.99
  Q 480.32 774.78 509.59 789.82
  Q 511.97 791.05 514.02 789.99
  Q 541.20 776.08 566.59 759.74
  Q 582.97 749.20 596.04 738.64
  Q 608.19 728.81 623.61 715.09
  Q 630.83 708.67 637.62 701.37
  Q 652.56 685.31 662.77 672.54
  Q 663.16 672.05 671.25 661.02
  Q 699.91 621.94 716.02 574.82
  Q 729.77 534.63 733.91 493.73
  Q 734.43 488.60 735.47 480.00
  Q 735.99 475.61 735.93 473.10
  C 735.80 467.23 736.86 462.40 736.84 455.81
  C 736.82 450.00 737.72 442.92 737.74 436.24
  C 737.92 385.30 737.76 341.01 737.80 306.27
  A 0.91 0.91 0.0 0 0 737.60 305.70
  C 736.15 303.96 734.87 304.70 733.07 304.63
  Q 717.27 304.02 698.50 301.09
  Q 698.32 301.06 695.97 300.80
  C 678.90 298.90 661.98 295.10 642.79 290.33
  Q 631.10 287.43 619.72 283.85
  Q 563.32 266.09 512.38 235.00
  A 1.75 1.75 0.0 0 0 510.60 234.97
  C 507.38 236.82 504.06 239.05 500.87 240.70
  Q 493.12 244.69 485.58 248.78
  Q 467.37 258.66 439.44 270.93
  Q 423.93 277.74 391.08 287.82
  Q 386.79 289.14 364.04 294.66
  Q 355.87 296.65 349.92 297.52
  Q 347.21 297.92 335.69 299.95
  Q 332.17 300.57 325.75 301.28
  Q 316.29 302.32 315.78 302.40
  C 306.50 303.77 296.05 304.03 287.78 304.69
  A 1.76 1.75 -2.5 0 0 286.16 306.45
  Q 286.20 336.00 286.22 443.12
  Q 286.22 447.77 286.79 453.84
  Q 287.21 458.38 287.12 464.58
  C 287.06 468.89 288.27 472.24 288.11 476.25
  C 288.03 478.50 288.71 480.54 288.93 482.94
  Q 290.99 505.89 295.34 528.21
  Q 303.03 567.78 319.57 604.89
  Q 328.16 624.17 339.36 641.87
  Q 351.20 660.57 363.79 675.98
  Q 381.61 697.78 399.86 714.59
  Q 405.26 719.56 406.64 720.93
  C 409.52 723.80 413.28 726.41 416.39 729.35
  Q 416.54 729.49 416.88 729.51
  A 0.71 0.71 0.0 0 1 417.51 729.96"
/>
</g>
<path fill="#091b16" d="
  M 246.37 435.92
  L 246.49 325.55
  Q 246.23 307.53 246.76 289.49
  Q 246.98 282.11 248.47 278.74
  Q 252.36 269.97 262.40 267.21
  A 3.30 3.22 35.4 0 1 263.24 267.08
  Q 297.50 265.52 303.22 264.58
  Q 303.70 264.50 311.50 263.69
  Q 393.00 255.23 466.44 215.16
  Q 484.43 205.34 498.56 197.02
  Q 504.35 193.62 511.58 193.39
  Q 517.99 193.19 523.14 196.34
  Q 546.66 210.72 572.08 223.11
  Q 630.95 251.78 697.08 261.47
  C 709.06 263.22 721.58 264.15 734.90 265.26
  Q 742.69 265.91 748.60 266.04
  Q 755.63 266.21 761.84 267.11
  A 5.72 5.31 -28.7 0 1 762.83 267.36
  Q 772.00 270.68 775.60 279.53
  Q 776.92 282.79 776.94 289.33
  Q 777.05 328.19 777.62 383.75
  Q 777.86 407.67 776.86 447.34
  C 776.71 453.24 776.26 457.88 775.88 464.99
  Q 775.36 474.77 773.48 493.25
  Q 770.33 524.19 762.98 554.27
  Q 750.23 606.49 723.75 652.84
  Q 701.76 691.33 668.94 725.51
  Q 637.14 758.63 599.53 784.52
  Q 563.77 809.14 523.50 829.26
  Q 513.54 834.23 502.99 830.73
  C 498.85 829.36 493.30 826.06 490.41 824.58
  Q 450.13 804.00 413.88 777.40
  Q 358.46 736.74 318.62 681.39
  Q 304.72 662.08 293.05 639.45
  Q 269.80 594.40 258.64 544.62
  Q 250.40 507.88 248.07 471.00
  Q 246.96 453.48 246.37 435.92
  Z
  M 776.18 440.06
  C 776.06 408.18 775.91 388.65 776.16 372.75
  Q 776.49 352.14 775.75 287.53
  Q 775.58 272.59 760.55 268.04
  A 3.35 3.32 54.0 0 0 759.63 267.89
  C 755.37 267.77 746.51 266.94 739.20 266.87
  Q 735.84 266.85 732.51 266.20
  A 9.48 9.28 -38.9 0 0 730.73 266.03
  Q 727.16 266.06 723.78 265.67
  Q 717.21 264.91 716.84 264.88
  Q 693.02 262.95 670.11 257.69
  C 665.29 256.58 660.10 255.84 655.57 254.65
  Q 646.77 252.34 630.95 247.90
  Q 628.39 247.19 622.84 245.20
  Q 618.59 243.68 614.70 242.33
  Q 595.06 235.50 574.43 225.79
  Q 556.83 217.51 525.75 199.25
  Q 524.85 198.72 517.93 195.43
  A 6.06 5.71 -25.5 0 0 516.50 194.97
  Q 507.05 193.24 498.29 198.51
  Q 490.30 203.32 471.37 213.84
  Q 442.26 230.01 409.64 242.31
  Q 394.56 248.00 379.77 251.98
  Q 371.49 254.20 356.62 257.72
  Q 349.46 259.42 338.27 261.17
  Q 325.25 263.21 319.76 264.01
  Q 311.74 265.18 310.39 264.92
  A 2.80 2.74 40.7 0 0 309.02 265.01
  Q 305.62 266.11 300.88 265.90
  A 5.37 5.20 -50.3 0 0 299.24 266.08
  Q 295.89 266.97 293.75 266.90
  Q 287.10 266.68 283.04 267.60
  A 8.46 8.03 -48.5 0 1 280.87 267.79
  Q 274.17 267.50 268.26 267.81
  Q 262.41 268.11 259.71 269.18
  Q 254.14 271.40 250.46 277.16
  C 249.12 279.27 247.72 285.42 247.81 287.51
  Q 248.01 292.53 248.02 300.01
  C 248.13 376.73 248.29 419.97 247.94 440.68
  Q 247.79 449.36 248.50 455.92
  C 249.05 460.93 248.75 466.37 249.49 471.29
  Q 250.19 475.97 250.07 480.24
  A 8.29 8.02 41.0 0 0 250.22 481.99
  Q 251.06 486.34 250.95 489.26
  A 4.81 4.74 -52.0 0 0 251.12 490.73
  Q 251.47 492.03 252.07 497.99
  Q 253.95 516.80 258.63 538.12
  Q 263.65 561.01 267.20 571.87
  Q 273.32 590.62 275.76 597.23
  Q 278.07 603.47 285.45 620.50
  Q 288.70 628.01 292.62 635.60
  Q 299.25 648.43 300.35 650.40
  Q 316.37 678.81 337.55 703.76
  Q 350.55 719.07 355.91 724.64
  Q 375.77 745.26 393.67 760.07
  Q 421.64 783.24 452.49 801.74
  Q 469.44 811.91 473.06 813.92
  Q 477.88 816.61 491.95 824.06
  C 498.75 827.66 507.85 832.51 515.83 830.33
  Q 521.05 828.90 521.44 828.71
  Q 554.93 812.13 585.33 792.47
  C 588.86 790.19 592.03 787.74 595.28 785.77
  Q 598.56 783.79 602.68 780.64
  C 608.30 776.32 616.05 771.56 622.13 766.43
  C 628.25 761.25 634.20 756.87 639.69 751.70
  C 646.17 745.59 651.87 740.93 657.21 735.60
  Q 671.07 721.78 685.44 705.29
  C 687.96 702.39 689.84 699.53 691.87 697.31
  Q 693.36 695.68 696.66 691.30
  Q 742.20 630.91 760.62 557.44
  Q 760.99 555.94 765.93 535.00
  Q 767.29 529.22 771.47 499.19
  Q 773.18 486.86 773.10 484.65
  C 772.96 480.73 774.07 476.95 774.15 472.97
  Q 774.23 469.20 774.95 464.20
  Q 775.34 461.47 775.29 456.05
  C 775.23 450.37 776.19 445.05 776.18 440.06
  Z"
/>
<path fill="#23584e" d="
  M 776.16 372.75
  C 775.91 388.65 776.06 408.18 776.18 440.06
  C 776.19 445.05 775.23 450.37 775.29 456.05
  Q 775.34 461.47 774.95 464.20
  Q 774.23 469.20 774.15 472.97
  C 774.07 476.95 772.96 480.73 773.10 484.65
  Q 773.18 486.86 771.47 499.19
  Q 767.29 529.22 765.93 535.00
  Q 760.99 555.94 760.62 557.44
  Q 742.20 630.91 696.66 691.30
  Q 693.36 695.68 691.87 697.31
  C 689.84 699.53 687.96 702.39 685.44 705.29
  Q 671.07 721.78 657.21 735.60
  C 651.87 740.93 646.17 745.59 639.69 751.70
  C 634.20 756.87 628.25 761.25 622.13 766.43
  C 616.05 771.56 608.30 776.32 602.68 780.64
  Q 598.56 783.79 595.28 785.77
  C 592.03 787.74 588.86 790.19 585.33 792.47
  Q 554.93 812.13 521.44 828.71
  Q 521.05 828.90 515.83 830.33
  C 507.85 832.51 498.75 827.66 491.95 824.06
  Q 477.88 816.61 473.06 813.92
  Q 469.44 811.91 452.49 801.74
  Q 421.64 783.24 393.67 760.07
  Q 375.77 745.26 355.91 724.64
  Q 350.55 719.07 337.55 703.76
  Q 316.37 678.81 300.35 650.40
  Q 299.25 648.43 292.62 635.60
  Q 288.70 628.01 285.45 620.50
  Q 278.07 603.47 275.76 597.23
  Q 273.32 590.62 267.20 571.87
  Q 263.65 561.01 258.63 538.12
  Q 253.95 516.80 252.07 497.99
  Q 251.47 492.03 251.12 490.73
  A 4.81 4.74 -52.0 0 1 250.95 489.26
  Q 251.06 486.34 250.22 481.99
  A 8.29 8.02 41.0 0 1 250.07 480.24
  Q 250.19 475.97 249.49 471.29
  C 248.75 466.37 249.05 460.93 248.50 455.92
  Q 247.79 449.36 247.94 440.68
  C 248.29 419.97 248.13 376.73 248.02 300.01
  Q 248.01 292.53 247.81 287.51
  C 247.72 285.42 249.12 279.27 250.46 277.16
  Q 254.14 271.40 259.71 269.18
  Q 262.41 268.11 268.26 267.81
  Q 274.17 267.50 280.87 267.79
  A 8.46 8.03 -48.5 0 0 283.04 267.60
  Q 287.10 266.68 293.75 266.90
  Q 295.89 266.97 299.24 266.08
  A 5.37 5.20 -50.3 0 1 300.88 265.90
  Q 305.62 266.11 309.02 265.01
  A 2.80 2.74 40.7 0 1 310.39 264.92
  Q 311.74 265.18 319.76 264.01
  Q 325.25 263.21 338.27 261.17
  Q 349.46 259.42 356.62 257.72
  Q 371.49 254.20 379.77 251.98
  Q 394.56 248.00 409.64 242.31
  Q 442.26 230.01 471.37 213.84
  Q 490.30 203.32 498.29 198.51
  Q 507.05 193.24 516.50 194.97
  A 6.06 5.71 -25.5 0 1 517.93 195.43
  Q 524.85 198.72 525.75 199.25
  Q 556.83 217.51 574.43 225.79
  Q 595.06 235.50 614.70 242.33
  Q 618.59 243.68 622.84 245.20
  Q 628.39 247.19 630.95 247.90
  Q 646.77 252.34 655.57 254.65
  C 660.10 255.84 665.29 256.58 670.11 257.69
  Q 693.02 262.95 716.84 264.88
  Q 717.21 264.91 723.78 265.67
  Q 727.16 266.06 730.73 266.03
  A 9.48 9.28 -38.9 0 1 732.51 266.20
  Q 735.84 266.85 739.20 266.87
  C 746.51 266.94 755.37 267.77 759.63 267.89
  A 3.35 3.32 54.0 0 1 760.55 268.04
  Q 775.58 272.59 775.75 287.53
  Q 776.49 352.14 776.16 372.75
  Z
  M 417.51 729.96
  Q 417.73 730.48 418.03 730.74
  Q 438.64 748.03 460.39 761.99
  Q 480.32 774.78 509.59 789.82
  Q 511.97 791.05 514.02 789.99
  Q 541.20 776.08 566.59 759.74
  Q 582.97 749.20 596.04 738.64
  Q 608.19 728.81 623.61 715.09
  Q 630.83 708.67 637.62 701.37
  Q 652.56 685.31 662.77 672.54
  Q 663.16 672.05 671.25 661.02
  Q 699.91 621.94 716.02 574.82
  Q 729.77 534.63 733.91 493.73
  Q 734.43 488.60 735.47 480.00
  Q 735.99 475.61 735.93 473.10
  C 735.80 467.23 736.86 462.40 736.84 455.81
  C 736.82 450.00 737.72 442.92 737.74 436.24
  C 737.92 385.30 737.76 341.01 737.80 306.27
  A 0.91 0.91 0.0 0 0 737.60 305.70
  C 736.15 303.96 734.87 304.70 733.07 304.63
  Q 717.27 304.02 698.50 301.09
  Q 698.32 301.06 695.97 300.80
  C 678.90 298.90 661.98 295.10 642.79 290.33
  Q 631.10 287.43 619.72 283.85
  Q 563.32 266.09 512.38 235.00
  A 1.75 1.75 0.0 0 0 510.60 234.97
  C 507.38 236.82 504.06 239.05 500.87 240.70
  Q 493.12 244.69 485.58 248.78
  Q 467.37 258.66 439.44 270.93
  Q 423.93 277.74 391.08 287.82
  Q 386.79 289.14 364.04 294.66
  Q 355.87 296.65 349.92 297.52
  Q 347.21 297.92 335.69 299.95
  Q 332.17 300.57 325.75 301.28
  Q 316.29 302.32 315.78 302.40
  C 306.50 303.77 296.05 304.03 287.78 304.69
  A 1.76 1.75 -2.5 0 0 286.16 306.45
  Q 286.20 336.00 286.22 443.12
  Q 286.22 447.77 286.79 453.84
  Q 287.21 458.38 287.12 464.58
  C 287.06 468.89 288.27 472.24 288.11 476.25
  C 288.03 478.50 288.71 480.54 288.93 482.94
  Q 290.99 505.89 295.34 528.21
  Q 303.03 567.78 319.57 604.89
  Q 328.16 624.17 339.36 641.87
  Q 351.20 660.57 363.79 675.98
  Q 381.61 697.78 399.86 714.59
  Q 405.26 719.56 406.64 720.93
  C 409.52 723.80 413.28 726.41 416.39 729.35
  Q 416.54 729.49 416.88 729.51
  A 0.71 0.71 0.0 0 1 417.51 729.96
  Z"
/>
<path fill="#091b16" d="
  M 416.88 729.51
  Q 416.54 729.49 416.39 729.35
  C 413.28 726.41 409.52 723.80 406.64 720.93
  Q 405.26 719.56 399.86 714.59
  Q 381.61 697.78 363.79 675.98
  Q 351.20 660.57 339.36 641.87
  Q 328.16 624.17 319.57 604.89
  Q 303.03 567.78 295.34 528.21
  Q 290.99 505.89 288.93 482.94
  C 288.71 480.54 288.03 478.50 288.11 476.25
  C 288.27 472.24 287.06 468.89 287.12 464.58
  Q 287.21 458.38 286.79 453.84
  Q 286.22 447.77 286.22 443.12
  Q 286.20 336.00 286.16 306.45
  A 1.76 1.75 -2.5 0 1 287.78 304.69
  C 296.05 304.03 306.50 303.77 315.78 302.40
  Q 316.29 302.32 325.75 301.28
  Q 332.17 300.57 335.69 299.95
  Q 347.21 297.92 349.92 297.52
  Q 355.87 296.65 364.04 294.66
  Q 386.79 289.14 391.08 287.82
  Q 423.93 277.74 439.44 270.93
  Q 467.37 258.66 485.58 248.78
  Q 493.12 244.69 500.87 240.70
  C 504.06 239.05 507.38 236.82 510.60 234.97
  A 1.75 1.75 0.0 0 1 512.38 235.00
  Q 563.32 266.09 619.72 283.85
  Q 631.10 287.43 642.79 290.33
  C 661.98 295.10 678.90 298.90 695.97 300.80
  Q 698.32 301.06 698.50 301.09
  Q 717.27 304.02 733.07 304.63
  C 734.87 304.70 736.15 303.96 737.60 305.70
  A 0.91 0.91 0.0 0 1 737.80 306.27
  C 737.76 341.01 737.92 385.30 737.74 436.24
  C 737.72 442.92 736.82 450.00 736.84 455.81
  C 736.86 462.40 735.80 467.23 735.93 473.10
  Q 735.99 475.61 735.47 480.00
  Q 734.43 488.60 733.91 493.73
  Q 729.77 534.63 716.02 574.82
  Q 699.91 621.94 671.25 661.02
  Q 663.16 672.05 662.77 672.54
  Q 652.56 685.31 637.62 701.37
  Q 630.83 708.67 623.61 715.09
  Q 608.19 728.81 596.04 738.64
  Q 582.97 749.20 566.59 759.74
  Q 541.20 776.08 514.02 789.99
  Q 511.97 791.05 509.59 789.82
  Q 480.32 774.78 460.39 761.99
  Q 438.64 748.03 418.03 730.74
  Q 417.73 730.48 417.51 729.96
  A 0.71 0.71 0.0 0 0 416.88 729.51
  Z
  M 511.15 236.24
  Q 477.56 256.09 443.11 270.81
  Q 394.91 291.40 340.80 300.60
  Q 332.81 301.95 313.50 304.07
  Q 309.59 304.50 304.91 304.86
  C 297.78 305.41 294.20 305.79 287.98 306.03
  A 0.71 0.71 0.0 0 0 287.29 306.74
  Q 287.26 394.56 287.29 432.83
  Q 287.29 436.93 287.68 445.66
  Q 288.02 453.47 288.24 458.50
  Q 288.87 473.15 292.07 499.27
  Q 295.95 530.82 304.83 561.17
  Q 318.68 608.49 345.32 648.69
  C 367.49 682.15 396.45 712.66 429.57 738.68
  Q 453.58 757.55 481.84 773.42
  Q 495.77 781.24 511.11 789.12
  A 1.80 1.80 0.0 0 0 512.75 789.12
  Q 539.48 775.59 564.45 759.69
  Q 585.14 746.51 608.26 727.03
  Q 644.72 696.31 671.85 658.09
  C 696.46 623.44 713.87 584.50 723.99 542.75
  Q 727.80 527.04 730.02 513.00
  Q 731.24 505.26 732.83 491.99
  Q 732.90 491.46 734.57 473.64
  C 735.02 468.82 734.92 464.67 735.29 460.82
  Q 735.78 455.74 735.92 451.18
  C 737.40 402.47 736.49 338.70 736.66 306.50
  A 0.51 0.51 0.0 0 0 736.17 305.98
  Q 713.40 305.06 689.79 301.41
  Q 594.05 286.61 511.89 236.25
  A 0.72 0.71 45.4 0 0 511.15 236.24
  Z"
/>
<path fill="#23584e" d="
  M 246.37 435.92
  L 246.49 325.55
  L 246.37 435.92
  Z"
/>
</svg>
