<?xml version="1.0" encoding="UTF-8" standalone="no"?>
<!DOCTYPE svg PUBLIC "-//W3C//DTD SVG 1.1//EN" "http://www.w3.org/Graphics/SVG/1.1/DTD/svg11.dtd">
<svg xmlns="http://www.w3.org/2000/svg" version="1.1" viewBox="0.00 0.00 1024.00 1024.00">
<g stroke-width="2.00" fill="none" stroke-linecap="butt">
<path stroke="#1a4e3f" vector-effect="non-scaling-stroke" d="
  M 529.96 847.36
  Q 525.19 846.62 520.50 847.67"
/>
<path stroke="#1a4e3f" vector-effect="non-scaling-stroke" d="
  M 511.46 847.69
  Q 505.57 846.68 499.55 847.26"
/>
<path stroke="#1a4e3f" vector-effect="non-scaling-stroke" d="
  M 489.87 846.83
  Q 486.44 845.82 483.08 846.39"
/>
<path stroke="#1a4e3f" vector-effect="non-scaling-stroke" d="
  M 126.51 518.31
  L 126.59 508.57"
/>
<path stroke="#1a4e3f" vector-effect="non-scaling-stroke" d="
  M 514.01 191.32
  Q 515.22 192.13 516.78 191.88
  A 0.43 0.42 79.1 0 1 517.26 192.21
  L 517.29 192.33
  A 0.47 0.46 84.1 0 1 516.83 192.90
  C 509.57 192.88 502.68 192.71 495.10 193.61
  Q 491.00 194.09 486.25 193.89
  A 3.61 3.51 -49.9 0 0 485.26 193.99
  C 480.83 195.09 476.70 194.54 472.43 195.36
  Q 470.30 195.77 463.96 196.43
  Q 459.34 196.92 455.53 197.65
  Q 444.06 199.85 438.51 200.96
  C 421.89 204.26 404.15 210.05 387.28 216.57
  Q 375.71 221.04 365.93 225.98
  Q 353.50 232.25 340.93 239.75
  Q 329.36 246.66 317.31 255.75
  Q 266.93 293.74 233.39 345.84
  Q 212.27 378.66 199.25 417.93
  C 197.99 421.76 197.17 426.00 195.88 429.55
  A 2.89 2.89 0.0 0 1 193.54 431.43
  Q 176.33 433.68 162.26 442.22
  C 159.83 443.69 158.01 445.43 155.69 446.97
  Q 153.33 448.54 151.02 450.85
  Q 139.89 461.99 134.57 475.32
  Q 130.75 484.87 128.41 499.66
  C 127.30 506.72 128.28 514.07 127.88 521.20
  A 14.12 13.93 -48.3 0 0 128.03 524.14
  C 129.64 534.23 130.48 540.49 132.99 548.74
  Q 138.67 567.33 151.71 580.51
  Q 166.07 595.03 185.81 598.82
  Q 192.74 600.15 194.86 600.88
  A 0.86 0.84 -87.6 0 1 195.41 601.49
  Q 202.27 628.92 210.12 645.95
  Q 218.04 663.12 221.26 669.27
  Q 234.94 695.34 257.19 724.07
  C 260.43 728.25 263.80 731.30 267.02 735.12
  Q 270.52 739.26 271.50 740.27
  Q 285.47 754.54 290.21 759.04
  Q 303.11 771.33 318.70 782.77
  Q 355.95 810.11 398.99 826.22
  Q 435.36 839.84 473.94 844.10
  Q 490.87 845.97 506.21 846.05
  C 510.38 846.07 514.50 847.01 518.25 846.53
  C 524.22 845.78 531.01 846.14 537.56 845.42
  Q 541.41 845.00 556.12 843.58
  Q 562.42 842.96 573.95 840.81
  Q 583.65 839.00 591.54 836.80
  Q 598.24 834.93 607.77 832.27
  C 615.33 830.16 623.40 826.51 629.53 824.37
  C 635.60 822.26 641.42 819.11 646.22 817.19
  Q 651.62 815.02 658.48 811.31
  Q 677.89 800.81 681.99 798.23
  Q 699.61 787.17 707.98 780.47
  Q 708.43 780.10 714.64 775.28
  Q 720.78 770.51 721.28 770.08
  Q 746.79 748.13 764.18 727.19
  Q 771.45 718.43 784.48 699.93
  C 789.05 693.44 793.64 685.22 797.49 678.51
  Q 806.44 662.97 814.61 643.15
  Q 823.13 622.49 827.75 601.99
  A 2.21 2.20 3.0 0 1 829.65 600.28
  C 837.78 599.35 845.34 597.19 852.38 594.11
  Q 859.48 591.00 864.21 587.58
  Q 881.89 574.75 889.89 553.61
  Q 894.93 540.32 896.07 527.68
  C 896.74 520.33 897.35 515.76 896.56 509.45
  Q 896.50 509.01 895.83 502.10
  C 894.31 486.54 888.44 469.98 878.31 457.86
  Q 873.89 452.57 872.06 450.94
  Q 857.66 438.09 838.75 432.96
  Q 835.78 432.15 831.29 431.70
  Q 829.78 431.56 828.47 430.39
  A 1.74 1.71 -76.5 0 1 827.97 429.56
  Q 820.27 400.49 805.70 372.75
  Q 803.71 368.95 799.93 361.91
  Q 797.17 356.79 793.75 351.32
  Q 786.93 340.43 784.54 336.96
  Q 743.86 277.93 683.21 240.15
  Q 674.19 234.53 662.98 228.84
  Q 652.92 223.74 641.96 219.01
  Q 611.51 205.88 579.05 199.96
  A 2.78 2.64 -41.3 0 0 578.28 199.93
  Q 574.08 200.30 573.68 195.92
  Q 572.35 181.54 568.48 168.07
  C 566.38 160.80 563.33 154.41 559.89 148.37
  Q 550.15 131.30 533.13 120.42
  Q 514.26 108.37 490.12 107.11
  Q 484.92 106.84 479.89 107.53
  Q 474.68 108.23 469.82 109.38
  Q 461.26 111.40 453.17 115.66
  Q 444.79 120.08 440.87 127.06
  Q 437.95 132.27 438.24 136.78
  C 438.54 141.31 439.32 146.10 442.14 149.88
  Q 447.29 156.78 455.61 157.71
  C 458.41 158.02 461.59 157.62 463.87 156.62
  Q 473.35 152.49 483.07 151.85
  C 487.01 151.60 490.30 152.10 493.76 152.03
  C 503.31 151.85 515.90 157.87 522.00 165.21
  C 528.05 172.50 531.15 180.58 532.67 190.16
  A 1.29 1.24 85.0 0 1 531.46 191.65
  Q 531.21 191.65 530.75 191.05"
/>
<path stroke="#1a4e3f" vector-effect="non-scaling-stroke" d="
  M 570.70 240.96
  Q 570.45 241.35 570.20 241.53
  A 2.99 2.97 79.1 0 0 569.02 243.28
  Q 565.54 257.89 556.98 272.00
  C 553.63 277.54 550.38 282.67 546.27 287.18
  Q 545.22 288.34 542.58 291.62
  C 538.27 296.98 533.22 301.23 526.74 306.59
  Q 522.67 309.96 518.62 312.64
  Q 512.18 316.90 508.16 319.38
  Q 498.04 325.62 483.39 330.41
  Q 470.77 334.54 457.95 332.47
  Q 453.66 331.77 450.55 328.92
  Q 441.95 321.03 443.62 310.58
  C 444.58 304.57 447.79 299.35 452.43 296.43
  C 457.89 293.01 467.64 290.69 473.46 288.02
  Q 486.84 281.87 493.83 277.30
  Q 506.96 268.69 518.53 253.29
  Q 524.45 245.40 527.20 235.40
  A 1.33 1.32 -74.3 0 0 526.29 233.77
  Q 524.10 233.13 521.75 233.14
  Q 511.49 233.14 502.35 233.99
  Q 501.21 234.10 499.19 234.06
  C 495.18 234.00 491.35 234.65 487.32 234.85
  C 481.60 235.13 478.38 235.62 472.07 236.37
  Q 471.18 236.48 454.75 239.31
  Q 444.91 241.01 437.61 243.07
  Q 420.27 247.96 411.21 251.24
  Q 388.65 259.41 366.52 272.03
  C 350.29 281.27 333.76 293.60 320.15 305.90
  Q 308.96 316.02 302.38 323.62
  C 297.78 328.95 293.13 333.91 289.19 338.76
  C 260.94 373.53 241.72 413.58 232.15 457.97
  C 231.05 463.05 227.87 466.55 223.30 470.09
  A 6.43 6.41 18.0 0 1 221.15 471.18
  Q 216.96 472.40 215.59 472.61
  Q 213.02 473.01 201.03 473.94
  C 198.63 474.12 196.24 474.66 193.31 475.35
  C 180.65 478.34 172.35 489.17 169.68 501.67
  Q 168.07 509.17 168.16 519.11
  A 5.69 5.45 -52.5 0 0 168.29 520.31
  C 168.95 523.31 168.75 526.17 169.45 528.73
  Q 172.17 538.61 175.56 543.94
  Q 183.48 556.42 199.51 559.04
  C 202.00 559.45 204.04 559.91 206.53 559.90
  Q 214.65 559.87 219.17 561.60
  Q 229.35 565.47 232.61 576.86
  Q 233.32 579.33 234.38 585.70
  Q 235.32 591.32 236.12 594.51
  Q 241.84 617.32 251.72 639.22
  Q 256.57 649.97 263.32 661.21
  Q 269.98 672.31 276.81 682.06
  Q 283.94 692.24 295.87 706.16
  Q 299.72 710.65 301.49 712.52
  Q 332.17 744.98 367.48 766.57
  C 372.01 769.34 377.44 772.10 380.74 774.01
  C 387.98 778.19 392.21 779.71 401.62 783.90
  Q 407.62 786.57 412.44 788.35
  Q 434.19 796.41 455.52 800.40
  Q 474.59 803.97 488.01 804.76
  Q 493.93 805.11 497.52 805.46
  Q 504.32 806.11 507.00 806.04
  C 516.93 805.78 523.77 806.22 532.61 805.34
  Q 537.34 804.87 542.50 804.89
  A 2.80 2.63 37.3 0 0 543.07 804.83
  L 546.62 804.01
  A 2.86 2.54 35.9 0 1 547.32 803.94
  Q 550.47 803.98 553.64 803.10
  A 5.20 5.17 37.7 0 1 555.17 802.91
  Q 556.96 802.94 557.47 802.84
  Q 574.71 799.51 581.49 797.92
  Q 586.33 796.78 597.35 793.43
  Q 604.99 791.10 612.94 788.04
  Q 659.99 769.91 698.07 736.84
  Q 712.95 723.92 723.33 712.58
  Q 741.96 692.22 756.53 669.07
  Q 765.68 654.52 771.50 642.04
  Q 776.96 630.30 782.70 613.81
  C 784.12 609.72 785.04 604.96 786.48 600.39
  C 788.60 593.64 789.65 586.13 790.84 580.07
  Q 791.96 574.41 792.78 572.55
  C 795.55 566.35 800.25 562.80 806.97 561.01
  Q 810.17 560.16 818.67 559.80
  C 839.64 558.92 850.94 547.91 855.22 527.66
  C 856.53 521.45 856.03 516.80 856.01 508.75
  A 7.37 6.84 -56.8 0 0 855.94 507.74
  Q 855.84 507.05 854.57 501.15
  Q 852.67 492.33 846.60 485.00
  Q 843.21 480.91 835.94 477.17
  Q 832.17 475.23 823.32 474.30
  Q 814.46 473.36 809.68 472.70
  Q 804.53 471.98 802.06 470.54
  C 795.65 466.81 793.35 462.45 791.38 454.50
  C 789.67 447.63 788.20 441.11 786.20 435.09
  Q 783.39 426.63 783.20 426.06
  Q 772.59 394.58 754.50 366.75
  Q 748.37 357.33 738.45 344.12
  C 730.79 333.90 722.45 325.51 712.49 315.50
  Q 697.22 300.16 685.36 291.41
  C 678.15 286.10 672.70 281.83 665.34 277.16
  Q 625.51 251.87 579.74 241.30
  Q 575.74 240.38 571.99 240.27
  A 1.51 1.48 -72.5 0 0 570.70 240.96"
/>
<path stroke="#1a4e3f" vector-effect="non-scaling-stroke" d="
  M 670.2947 490.6056
  A 43.23 42.07 -3.6 0 0 624.5084 451.3330
  A 43.23 42.07 -3.6 0 0 584.0053 496.0344
  A 43.23 42.07 -3.6 0 0 629.7916 535.3070
  A 43.23 42.07 -3.6 0 0 670.2947 490.6056"
/>
<path stroke="#1a4e3f" vector-effect="non-scaling-stroke" d="
  M 439.7787 500.3405
  A 42.70 42.00 9.3 0 0 404.4274 451.9921
  A 42.70 42.00 9.3 0 0 355.5013 486.5395
  A 42.70 42.00 9.3 0 0 390.8526 534.8879
  A 42.70 42.00 9.3 0 0 439.7787 500.3405"
/>
<path stroke="#1a4e3f" vector-effect="non-scaling-stroke" d="
  M 448.94 654.76
  Q 439.97 649.61 429.08 640.39
  C 423.63 635.79 420.04 631.07 415.07 625.53
  Q 408.22 617.88 398.05 618.96
  Q 391.98 619.60 388.17 622.89
  C 382.49 627.78 381.16 633.85 381.65 641.07
  C 381.93 645.22 384.53 649.65 386.84 652.65
  Q 399.01 668.53 415.12 680.13
  Q 415.67 680.52 422.60 685.31
  Q 426.52 688.02 430.39 690.01
  C 434.54 692.15 438.96 694.76 443.67 696.79
  Q 468.80 707.64 496.27 710.55
  C 504.51 711.42 510.12 711.01 520.29 711.04
  Q 525.71 711.06 531.65 710.18
  Q 542.84 708.52 542.97 708.50
  C 551.02 706.99 560.86 704.63 569.68 701.01
  Q 581.03 696.37 583.81 695.06
  Q 599.52 687.68 614.26 676.26
  Q 625.51 667.54 634.51 656.50
  C 639.92 649.87 644.24 642.30 642.33 633.87
  Q 640.69 626.61 635.10 622.45
  Q 629.02 617.94 620.52 619.01
  Q 614.91 619.71 612.38 621.09
  Q 609.83 622.47 606.38 626.68
  Q 599.30 635.35 596.75 637.72
  Q 572.51 660.27 540.88 667.93
  Q 537.90 668.65 534.48 669.09
  Q 531.23 669.50 528.06 670.12
  Q 523.43 671.04 518.36 670.97
  C 510.79 670.86 502.82 671.26 494.55 670.18
  Q 470.35 667.03 448.94 654.76"
/>
</g>
<path fill="#0e2b1f" d="
  M 529.96 847.36
  Q 525.19 846.62 520.50 847.67
  L 511.46 847.69
  Q 505.57 846.68 499.55 847.26
  L 489.87 846.83
  Q 486.44 845.82 483.08 846.39
  Q 407.71 839.89 342.87 800.37
  Q 308.10 779.19 279.30 750.22
  Q 232.56 703.22 207.08 642.51
  Q 200.68 627.28 196.55 611.28
  Q 195.15 605.83 194.60 602.25
  A 1.19 1.18 87.8 0 0 193.52 601.24
  C 184.23 600.46 175.98 598.30 167.63 593.82
  C 148.24 583.40 135.26 564.81 129.94 543.52
  Q 126.82 531.05 126.51 518.31
  L 126.59 508.57
  Q 127.06 491.20 132.26 477.54
  Q 144.57 445.15 178.29 433.54
  Q 181.05 432.59 185.68 431.63
  Q 189.77 430.78 193.11 430.53
  A 1.78 1.77 -85.3 0 0 194.71 429.16
  Q 195.62 425.19 196.99 420.75
  Q 203.35 400.20 211.73 382.48
  Q 226.61 350.97 246.74 324.50
  Q 280.17 280.55 323.18 249.94
  Q 337.14 240.01 354.17 230.72
  Q 370.20 221.98 387.20 215.28
  Q 427.23 199.49 469.94 194.45
  Q 478.70 193.41 489.04 192.58
  C 496.61 191.97 505.69 191.91 514.01 191.32
  Q 515.22 192.13 516.78 191.88
  A 0.43 0.42 79.1 0 1 517.26 192.21
  L 517.29 192.33
  A 0.47 0.46 84.1 0 1 516.83 192.90
  C 509.57 192.88 502.68 192.71 495.10 193.61
  Q 491.00 194.09 486.25 193.89
  A 3.61 3.51 -49.9 0 0 485.26 193.99
  C 480.83 195.09 476.70 194.54 472.43 195.36
  Q 470.30 195.77 463.96 196.43
  Q 459.34 196.92 455.53 197.65
  Q 444.06 199.85 438.51 200.96
  C 421.89 204.26 404.15 210.05 387.28 216.57
  Q 375.71 221.04 365.93 225.98
  Q 353.50 232.25 340.93 239.75
  Q 329.36 246.66 317.31 255.75
  Q 266.93 293.74 233.39 345.84
  Q 212.27 378.66 199.25 417.93
  C 197.99 421.76 197.17 426.00 195.88 429.55
  A 2.89 2.89 0.0 0 1 193.54 431.43
  Q 176.33 433.68 162.26 442.22
  C 159.83 443.69 158.01 445.43 155.69 446.97
  Q 153.33 448.54 151.02 450.85
  Q 139.89 461.99 134.57 475.32
  Q 130.75 484.87 128.41 499.66
  C 127.30 506.72 128.28 514.07 127.88 521.20
  A 14.12 13.93 -48.3 0 0 128.03 524.14
  C 129.64 534.23 130.48 540.49 132.99 548.74
  Q 138.67 567.33 151.71 580.51
  Q 166.07 595.03 185.81 598.82
  Q 192.74 600.15 194.86 600.88
  A 0.86 0.84 -87.6 0 1 195.41 601.49
  Q 202.27 628.92 210.12 645.95
  Q 218.04 663.12 221.26 669.27
  Q 234.94 695.34 257.19 724.07
  C 260.43 728.25 263.80 731.30 267.02 735.12
  Q 270.52 739.26 271.50 740.27
  Q 285.47 754.54 290.21 759.04
  Q 303.11 771.33 318.70 782.77
  Q 355.95 810.11 398.99 826.22
  Q 435.36 839.84 473.94 844.10
  Q 490.87 845.97 506.21 846.05
  C 510.38 846.07 514.50 847.01 518.25 846.53
  C 524.22 845.78 531.01 846.14 537.56 845.42
  Q 541.41 845.00 556.12 843.58
  Q 562.42 842.96 573.95 840.81
  Q 583.65 839.00 591.54 836.80
  Q 598.24 834.93 607.77 832.27
  C 615.33 830.16 623.40 826.51 629.53 824.37
  C 635.60 822.26 641.42 819.11 646.22 817.19
  Q 651.62 815.02 658.48 811.31
  Q 677.89 800.81 681.99 798.23
  Q 699.61 787.17 707.98 780.47
  Q 708.43 780.10 714.64 775.28
  Q 720.78 770.51 721.28 770.08
  Q 746.79 748.13 764.18 727.19
  Q 771.45 718.43 784.48 699.93
  C 789.05 693.44 793.64 685.22 797.49 678.51
  Q 806.44 662.97 814.61 643.15
  Q 823.13 622.49 827.75 601.99
  A 2.21 2.20 3.0 0 1 829.65 600.28
  C 837.78 599.35 845.34 597.19 852.38 594.11
  Q 859.48 591.00 864.21 587.58
  Q 881.89 574.75 889.89 553.61
  Q 894.93 540.32 896.07 527.68
  C 896.74 520.33 897.35 515.76 896.56 509.45
  Q 896.50 509.01 895.83 502.10
  C 894.31 486.54 888.44 469.98 878.31 457.86
  Q 873.89 452.57 872.06 450.94
  Q 857.66 438.09 838.75 432.96
  Q 835.78 432.15 831.29 431.70
  Q 829.78 431.56 828.47 430.39
  A 1.74 1.71 -76.5 0 1 827.97 429.56
  Q 820.27 400.49 805.70 372.75
  Q 803.71 368.95 799.93 361.91
  Q 797.17 356.79 793.75 351.32
  Q 786.93 340.43 784.54 336.96
  Q 743.86 277.93 683.21 240.15
  Q 674.19 234.53 662.98 228.84
  Q 652.92 223.74 641.96 219.01
  Q 611.51 205.88 579.05 199.96
  A 2.78 2.64 -41.3 0 0 578.28 199.93
  Q 574.08 200.30 573.68 195.92
  Q 572.35 181.54 568.48 168.07
  C 566.38 160.80 563.33 154.41 559.89 148.37
  Q 550.15 131.30 533.13 120.42
  Q 514.26 108.37 490.12 107.11
  Q 484.92 106.84 479.89 107.53
  Q 474.68 108.23 469.82 109.38
  Q 461.26 111.40 453.17 115.66
  Q 444.79 120.08 440.87 127.06
  Q 437.95 132.27 438.24 136.78
  C 438.54 141.31 439.32 146.10 442.14 149.88
  Q 447.29 156.78 455.61 157.71
  C 458.41 158.02 461.59 157.62 463.87 156.62
  Q 473.35 152.49 483.07 151.85
  C 487.01 151.60 490.30 152.10 493.76 152.03
  C 503.31 151.85 515.90 157.87 522.00 165.21
  C 528.05 172.50 531.15 180.58 532.67 190.16
  A 1.29 1.24 85.0 0 1 531.46 191.65
  Q 531.21 191.65 530.75 191.05
  Q 531.22 190.98 531.14 190.24
  Q 530.27 182.69 526.58 174.93
  C 520.29 161.68 508.64 154.78 493.94 153.26
  C 484.10 152.25 474.93 153.83 465.53 157.45
  Q 461.81 158.89 459.37 159.04
  Q 451.48 159.52 446.32 155.73
  Q 437.85 149.48 436.95 139.17
  Q 436.34 132.09 439.53 126.55
  C 445.60 115.99 459.96 110.22 471.50 107.61
  Q 474.36 106.96 476.62 106.91
  C 478.81 106.86 480.79 106.18 483.48 106.08
  Q 513.58 104.99 536.84 121.40
  C 553.78 133.35 565.17 150.87 570.68 170.82
  Q 574.15 183.36 575.01 196.90
  A 1.45 1.45 0.0 0 0 576.25 198.25
  Q 588.23 200.00 601.47 203.59
  Q 663.80 220.46 715.05 260.95
  Q 730.57 273.20 743.99 286.53
  C 779.44 321.74 807.30 364.29 823.77 411.20
  Q 826.95 420.26 829.16 429.02
  A 1.69 1.68 -3.1 0 0 830.55 430.26
  Q 856.24 433.85 874.04 451.39
  C 884.81 462.00 892.47 476.98 895.53 491.68
  Q 898.27 504.82 898.05 519.30
  Q 897.99 523.06 897.52 525.52
  C 897.00 528.32 897.14 530.98 896.69 533.81
  Q 894.32 548.83 887.39 562.40
  Q 880.26 576.36 868.68 585.73
  Q 855.26 596.58 837.75 600.42
  C 834.70 601.09 833.14 601.01 829.73 601.22
  A 0.64 0.64 0.0 0 0 829.13 601.77
  Q 828.73 604.46 828.06 607.02
  Q 822.35 629.00 813.10 650.37
  Q 806.34 665.97 795.80 684.33
  Q 783.56 705.65 764.11 729.12
  Q 747.46 749.21 723.96 769.20
  Q 678.47 807.92 622.03 828.79
  Q 577.76 845.15 529.96 847.36
  Z"
/>
<path fill="#25705f" d="
  M 514.01 191.32
  L 530.75 191.05
  Q 531.21 191.65 531.46 191.65
  A 1.29 1.24 85.0 0 0 532.67 190.16
  C 531.15 180.58 528.05 172.50 522.00 165.21
  C 515.90 157.87 503.31 151.85 493.76 152.03
  C 490.30 152.10 487.01 151.60 483.07 151.85
  Q 473.35 152.49 463.87 156.62
  C 461.59 157.62 458.41 158.02 455.61 157.71
  Q 447.29 156.78 442.14 149.88
  C 439.32 146.10 438.54 141.31 438.24 136.78
  Q 437.95 132.27 440.87 127.06
  Q 444.79 120.08 453.17 115.66
  Q 461.26 111.40 469.82 109.38
  Q 474.68 108.23 479.89 107.53
  Q 484.92 106.84 490.12 107.11
  Q 514.26 108.37 533.13 120.42
  Q 550.15 131.30 559.89 148.37
  C 563.33 154.41 566.38 160.80 568.48 168.07
  Q 572.35 181.54 573.68 195.92
  Q 574.08 200.30 578.28 199.93
  A 2.78 2.64 -41.3 0 1 579.05 199.96
  Q 611.51 205.88 641.96 219.01
  Q 652.92 223.74 662.98 228.84
  Q 674.19 234.53 683.21 240.15
  Q 743.86 277.93 784.54 336.96
  Q 786.93 340.43 793.75 351.32
  Q 797.17 356.79 799.93 361.91
  Q 803.71 368.95 805.70 372.75
  Q 820.27 400.49 827.97 429.56
  A 1.74 1.71 -76.5 0 0 828.47 430.39
  Q 829.78 431.56 831.29 431.70
  Q 835.78 432.15 838.75 432.96
  Q 857.66 438.09 872.06 450.94
  Q 873.89 452.57 878.31 457.86
  C 888.44 469.98 894.31 486.54 895.83 502.10
  Q 896.50 509.01 896.56 509.45
  C 897.35 515.76 896.74 520.33 896.07 527.68
  Q 894.93 540.32 889.89 553.61
  Q 881.89 574.75 864.21 587.58
  Q 859.48 591.00 852.38 594.11
  C 845.34 597.19 837.78 599.35 829.65 600.28
  A 2.21 2.20 3.0 0 0 827.75 601.99
  Q 823.13 622.49 814.61 643.15
  Q 806.44 662.97 797.49 678.51
  C 793.64 685.22 789.05 693.44 784.48 699.93
  Q 771.45 718.43 764.18 727.19
  Q 746.79 748.13 721.28 770.08
  Q 720.78 770.51 714.64 775.28
  Q 708.43 780.10 707.98 780.47
  Q 699.61 787.17 681.99 798.23
  Q 677.89 800.81 658.48 811.31
  Q 651.62 815.02 646.22 817.19
  C 641.42 819.11 635.60 822.26 629.53 824.37
  C 623.40 826.51 615.33 830.16 607.77 832.27
  Q 598.24 834.93 591.54 836.80
  Q 583.65 839.00 573.95 840.81
  Q 562.42 842.96 556.12 843.58
  Q 541.41 845.00 537.56 845.42
  C 531.01 846.14 524.22 845.78 518.25 846.53
  C 514.50 847.01 510.38 846.07 506.21 846.05
  Q 490.87 845.97 473.94 844.10
  Q 435.36 839.84 398.99 826.22
  Q 355.95 810.11 318.70 782.77
  Q 303.11 771.33 290.21 759.04
  Q 285.47 754.54 271.50 740.27
  Q 270.52 739.26 267.02 735.12
  C 263.80 731.30 260.43 728.25 257.19 724.07
  Q 234.94 695.34 221.26 669.27
  Q 218.04 663.12 210.12 645.95
  Q 202.27 628.92 195.41 601.49
  A 0.86 0.84 -87.6 0 0 194.86 600.88
  Q 192.74 600.15 185.81 598.82
  Q 166.07 595.03 151.71 580.51
  Q 138.67 567.33 132.99 548.74
  C 130.48 540.49 129.64 534.23 128.03 524.14
  A 14.12 13.93 -48.3 0 1 127.88 521.20
  C 128.28 514.07 127.30 506.72 128.41 499.66
  Q 130.75 484.87 134.57 475.32
  Q 139.89 461.99 151.02 450.85
  Q 153.33 448.54 155.69 446.97
  C 158.01 445.43 159.83 443.69 162.26 442.22
  Q 176.33 433.68 193.54 431.43
  A 2.89 2.89 0.0 0 0 195.88 429.55
  C 197.17 426.00 197.99 421.76 199.25 417.93
  Q 212.27 378.66 233.39 345.84
  Q 266.93 293.74 317.31 255.75
  Q 329.36 246.66 340.93 239.75
  Q 353.50 232.25 365.93 225.98
  Q 375.71 221.04 387.28 216.57
  C 404.15 210.05 421.89 204.26 438.51 200.96
  Q 444.06 199.85 455.53 197.65
  Q 459.34 196.92 463.96 196.43
  Q 470.30 195.77 472.43 195.36
  C 476.70 194.54 480.83 195.09 485.26 193.99
  A 3.61 3.51 -49.9 0 1 486.25 193.89
  Q 491.00 194.09 495.10 193.61
  C 502.68 192.71 509.57 192.88 516.83 192.90
  A 0.47 0.46 84.1 0 0 517.29 192.33
  L 517.26 192.21
  A 0.43 0.42 79.1 0 0 516.78 191.88
  Q 515.22 192.13 514.01 191.32
  Z
  M 570.70 240.96
  Q 570.45 241.35 570.20 241.53
  A 2.99 2.97 79.1 0 0 569.02 243.28
  Q 565.54 257.89 556.98 272.00
  C 553.63 277.54 550.38 282.67 546.27 287.18
  Q 545.22 288.34 542.58 291.62
  C 538.27 296.98 533.22 301.23 526.74 306.59
  Q 522.67 309.96 518.62 312.64
  Q 512.18 316.90 508.16 319.38
  Q 498.04 325.62 483.39 330.41
  Q 470.77 334.54 457.95 332.47
  Q 453.66 331.77 450.55 328.92
  Q 441.95 321.03 443.62 310.58
  C 444.58 304.57 447.79 299.35 452.43 296.43
  C 457.89 293.01 467.64 290.69 473.46 288.02
  Q 486.84 281.87 493.83 277.30
  Q 506.96 268.69 518.53 253.29
  Q 524.45 245.40 527.20 235.40
  A 1.33 1.32 -74.3 0 0 526.29 233.77
  Q 524.10 233.13 521.75 233.14
  Q 511.49 233.14 502.35 233.99
  Q 501.21 234.10 499.19 234.06
  C 495.18 234.00 491.35 234.65 487.32 234.85
  C 481.60 235.13 478.38 235.62 472.07 236.37
  Q 471.18 236.48 454.75 239.31
  Q 444.91 241.01 437.61 243.07
  Q 420.27 247.96 411.21 251.24
  Q 388.65 259.41 366.52 272.03
  C 350.29 281.27 333.76 293.60 320.15 305.90
  Q 308.96 316.02 302.38 323.62
  C 297.78 328.95 293.13 333.91 289.19 338.76
  C 260.94 373.53 241.72 413.58 232.15 457.97
  C 231.05 463.05 227.87 466.55 223.30 470.09
  A 6.43 6.41 18.0 0 1 221.15 471.18
  Q 216.96 472.40 215.59 472.61
  Q 213.02 473.01 201.03 473.94
  C 198.63 474.12 196.24 474.66 193.31 475.35
  C 180.65 478.34 172.35 489.17 169.68 501.67
  Q 168.07 509.17 168.16 519.11
  A 5.69 5.45 -52.5 0 0 168.29 520.31
  C 168.95 523.31 168.75 526.17 169.45 528.73
  Q 172.17 538.61 175.56 543.94
  Q 183.48 556.42 199.51 559.04
  C 202.00 559.45 204.04 559.91 206.53 559.90
  Q 214.65 559.87 219.17 561.60
  Q 229.35 565.47 232.61 576.86
  Q 233.32 579.33 234.38 585.70
  Q 235.32 591.32 236.12 594.51
  Q 241.84 617.32 251.72 639.22
  Q 256.57 649.97 263.32 661.21
  Q 269.98 672.31 276.81 682.06
  Q 283.94 692.24 295.87 706.16
  Q 299.72 710.65 301.49 712.52
  Q 332.17 744.98 367.48 766.57
  C 372.01 769.34 377.44 772.10 380.74 774.01
  C 387.98 778.19 392.21 779.71 401.62 783.90
  Q 407.62 786.57 412.44 788.35
  Q 434.19 796.41 455.52 800.40
  Q 474.59 803.97 488.01 804.76
  Q 493.93 805.11 497.52 805.46
  Q 504.32 806.11 507.00 806.04
  C 516.93 805.78 523.77 806.22 532.61 805.34
  Q 537.34 804.87 542.50 804.89
  A 2.80 2.63 37.3 0 0 543.07 804.83
  L 546.62 804.01
  A 2.86 2.54 35.9 0 1 547.32 803.94
  Q 550.47 803.98 553.64 803.10
  A 5.20 5.17 37.7 0 1 555.17 802.91
  Q 556.96 802.94 557.47 802.84
  Q 574.71 799.51 581.49 797.92
  Q 586.33 796.78 597.35 793.43
  Q 604.99 791.10 612.94 788.04
  Q 659.99 769.91 698.07 736.84
  Q 712.95 723.92 723.33 712.58
  Q 741.96 692.22 756.53 669.07
  Q 765.68 654.52 771.50 642.04
  Q 776.96 630.30 782.70 613.81
  C 784.12 609.72 785.04 604.96 786.48 600.39
  C 788.60 593.64 789.65 586.13 790.84 580.07
  Q 791.96 574.41 792.78 572.55
  C 795.55 566.35 800.25 562.80 806.97 561.01
  Q 810.17 560.16 818.67 559.80
  C 839.64 558.92 850.94 547.91 855.22 527.66
  C 856.53 521.45 856.03 516.80 856.01 508.75
  A 7.37 6.84 -56.8 0 0 855.94 507.74
  Q 855.84 507.05 854.57 501.15
  Q 852.67 492.33 846.60 485.00
  Q 843.21 480.91 835.94 477.17
  Q 832.17 475.23 823.32 474.30
  Q 814.46 473.36 809.68 472.70
  Q 804.53 471.98 802.06 470.54
  C 795.65 466.81 793.35 462.45 791.38 454.50
  C 789.67 447.63 788.20 441.11 786.20 435.09
  Q 783.39 426.63 783.20 426.06
  Q 772.59 394.58 754.50 366.75
  Q 748.37 357.33 738.45 344.12
  C 730.79 333.90 722.45 325.51 712.49 315.50
  Q 697.22 300.16 685.36 291.41
  C 678.15 286.10 672.70 281.83 665.34 277.16
  Q 625.51 251.87 579.74 241.30
  Q 575.74 240.38 571.99 240.27
  A 1.51 1.48 -72.5 0 0 570.70 240.96
  Z"
/>
<path fill="#0e2b1f" d="
  M 570.70 240.96
  A 1.51 1.48 -72.5 0 1 571.99 240.27
  Q 575.74 240.38 579.74 241.30
  Q 625.51 251.87 665.34 277.16
  C 672.70 281.83 678.15 286.10 685.36 291.41
  Q 697.22 300.16 712.49 315.50
  C 722.45 325.51 730.79 333.90 738.45 344.12
  Q 748.37 357.33 754.50 366.75
  Q 772.59 394.58 783.20 426.06
  Q 783.39 426.63 786.20 435.09
  C 788.20 441.11 789.67 447.63 791.38 454.50
  C 793.35 462.45 795.65 466.81 802.06 470.54
  Q 804.53 471.98 809.68 472.70
  Q 814.46 473.36 823.32 474.30
  Q 832.17 475.23 835.94 477.17
  Q 843.21 480.91 846.60 485.00
  Q 852.67 492.33 854.57 501.15
  Q 855.84 507.05 855.94 507.74
  A 7.37 6.84 -56.8 0 1 856.01 508.75
  C 856.03 516.80 856.53 521.45 855.22 527.66
  C 850.94 547.91 839.64 558.92 818.67 559.80
  Q 810.17 560.16 806.97 561.01
  C 800.25 562.80 795.55 566.35 792.78 572.55
  Q 791.96 574.41 790.84 580.07
  C 789.65 586.13 788.60 593.64 786.48 600.39
  C 785.04 604.96 784.12 609.72 782.70 613.81
  Q 776.96 630.30 771.50 642.04
  Q 765.68 654.52 756.53 669.07
  Q 741.96 692.22 723.33 712.58
  Q 712.95 723.92 698.07 736.84
  Q 659.99 769.91 612.94 788.04
  Q 604.99 791.10 597.35 793.43
  Q 586.33 796.78 581.49 797.92
  Q 574.71 799.51 557.47 802.84
  Q 556.96 802.94 555.17 802.91
  A 5.20 5.17 37.7 0 0 553.64 803.10
  Q 550.47 803.98 547.32 803.94
  A 2.86 2.54 35.9 0 0 546.62 804.01
  L 543.07 804.83
  A 2.80 2.63 37.3 0 1 542.50 804.89
  Q 537.34 804.87 532.61 805.34
  C 523.77 806.22 516.93 805.78 507.00 806.04
  Q 504.32 806.11 497.52 805.46
  Q 493.93 805.11 488.01 804.76
  Q 474.59 803.97 455.52 800.40
  Q 434.19 796.41 412.44 788.35
  Q 407.62 786.57 401.62 783.90
  C 392.21 779.71 387.98 778.19 380.74 774.01
  C 377.44 772.10 372.01 769.34 367.48 766.57
  Q 332.17 744.98 301.49 712.52
  Q 299.72 710.65 295.87 706.16
  Q 283.94 692.24 276.81 682.06
  Q 269.98 672.31 263.32 661.21
  Q 256.57 649.97 251.72 639.22
  Q 241.84 617.32 236.12 594.51
  Q 235.32 591.32 234.38 585.70
  Q 233.32 579.33 232.61 576.86
  Q 229.35 565.47 219.17 561.60
  Q 214.65 559.87 206.53 559.90
  C 204.04 559.91 202.00 559.45 199.51 559.04
  Q 183.48 556.42 175.56 543.94
  Q 172.17 538.61 169.45 528.73
  C 168.75 526.17 168.95 523.31 168.29 520.31
  A 5.69 5.45 -52.5 0 1 168.16 519.11
  Q 168.07 509.17 169.68 501.67
  C 172.35 489.17 180.65 478.34 193.31 475.35
  C 196.24 474.66 198.63 474.12 201.03 473.94
  Q 213.02 473.01 215.59 472.61
  Q 216.96 472.40 221.15 471.18
  A 6.43 6.41 18.0 0 0 223.30 470.09
  C 227.87 466.55 231.05 463.05 232.15 457.97
  C 241.72 413.58 260.94 373.53 289.19 338.76
  C 293.13 333.91 297.78 328.95 302.38 323.62
  Q 308.96 316.02 320.15 305.90
  C 333.76 293.60 350.29 281.27 366.52 272.03
  Q 388.65 259.41 411.21 251.24
  Q 420.27 247.96 437.61 243.07
  Q 444.91 241.01 454.75 239.31
  Q 471.18 236.48 472.07 236.37
  C 478.38 235.62 481.60 235.13 487.32 234.85
  C 491.35 234.65 495.18 234.00 499.19 234.06
  Q 501.21 234.10 502.35 233.99
  Q 511.49 233.14 521.75 233.14
  Q 524.10 233.13 526.29 233.77
  A 1.33 1.32 -74.3 0 1 527.20 235.40
  Q 524.45 245.40 518.53 253.29
  Q 506.96 268.69 493.83 277.30
  Q 486.84 281.87 473.46 288.02
  C 467.64 290.69 457.89 293.01 452.43 296.43
  C 447.79 299.35 444.58 304.57 443.62 310.58
  Q 441.95 321.03 450.55 328.92
  Q 453.66 331.77 457.95 332.47
  Q 470.77 334.54 483.39 330.41
  Q 498.04 325.62 508.16 319.38
  Q 512.18 316.90 518.62 312.64
  Q 522.67 309.96 526.74 306.59
  C 533.22 301.23 538.27 296.98 542.58 291.62
  Q 545.22 288.34 546.27 287.18
  C 550.38 282.67 553.63 277.54 556.98 272.00
  Q 565.54 257.89 569.02 243.28
  A 2.99 2.97 79.1 0 1 570.20 241.53
  Q 570.45 241.35 570.70 240.96
  Z
  M 525.82 235.16
  Q 511.16 234.45 497.40 235.52
  Q 492.93 235.87 488.58 236.15
  Q 484.83 236.39 479.76 236.93
  Q 422.69 243.04 372.87 269.97
  Q 354.20 280.06 337.31 293.25
  Q 320.17 306.64 305.79 321.78
  Q 272.22 357.16 251.91 401.45
  Q 240.49 426.34 233.88 456.93
  Q 232.42 463.69 226.72 468.86
  C 221.90 473.24 215.92 474.41 209.12 474.87
  Q 199.71 475.51 196.42 476.13
  Q 177.31 479.71 171.91 499.03
  Q 169.94 506.08 169.62 513.51
  Q 168.95 528.97 176.13 542.41
  C 184.30 557.69 200.90 558.30 215.80 559.16
  A 4.35 4.25 -34.4 0 1 216.72 559.32
  C 226.52 562.11 232.37 568.91 234.35 578.66
  C 235.36 583.61 236.34 589.50 237.51 594.19
  Q 244.47 622.13 255.43 643.84
  Q 282.43 697.27 328.22 736.48
  Q 368.45 770.93 417.36 788.60
  Q 441.40 797.29 465.57 800.90
  Q 493.14 805.03 521.00 804.48
  Q 549.64 803.92 576.09 797.84
  Q 633.86 784.55 682.17 748.13
  Q 696.29 737.49 708.30 726.06
  Q 739.71 696.14 761.08 658.98
  Q 771.85 640.25 778.50 621.58
  Q 785.90 600.82 789.20 581.71
  Q 790.60 573.63 792.33 570.58
  Q 796.05 564.01 803.41 560.75
  Q 806.74 559.28 813.38 558.89
  Q 821.65 558.39 826.32 557.56
  Q 845.00 554.21 851.21 536.50
  Q 858.26 516.40 851.79 497.11
  C 848.98 488.74 843.66 482.03 835.60 478.47
  Q 832.58 477.13 827.66 476.26
  Q 821.87 475.24 819.50 475.08
  Q 809.23 474.40 806.39 473.58
  Q 794.98 470.28 791.21 459.07
  C 789.42 453.74 788.27 446.82 786.62 441.21
  Q 777.84 411.31 764.14 385.86
  Q 752.46 364.18 735.12 342.00
  Q 725.80 330.07 713.71 318.12
  Q 701.08 305.63 689.96 296.54
  Q 660.87 272.72 625.62 257.63
  Q 606.01 249.23 583.00 243.48
  Q 578.34 242.32 571.75 241.51
  A 0.89 0.89 0.0 0 0 570.78 242.18
  C 563.92 269.65 546.97 293.09 524.52 310.01
  Q 513.34 318.44 501.75 324.46
  Q 491.85 329.60 479.04 333.13
  Q 477.33 333.60 473.90 334.11
  Q 468.78 334.86 468.74 334.87
  C 457.26 335.86 446.92 331.31 443.01 320.03
  Q 440.35 312.37 443.56 305.22
  Q 447.87 295.64 459.08 292.03
  Q 473.55 287.36 485.66 280.65
  C 496.68 274.54 505.61 267.20 513.55 257.57
  Q 521.66 247.74 526.04 235.50
  A 0.25 0.25 0.0 0 0 525.82 235.16
  Z"
/>
<path fill="#0e2b1f" d="
  M 671.4621 488.8920
  A 44.51 43.35 -5.8 0 1 631.5608 536.5181
  A 44.51 43.35 -5.8 0 1 582.8979 497.8880
  A 44.51 43.35 -5.8 0 1 622.7992 450.2619
  A 44.51 43.35 -5.8 0 1 671.4621 488.8920
  Z
  M 670.2947 490.6056
  A 43.23 42.07 -3.6 0 0 624.5084 451.3330
  A 43.23 42.07 -3.6 0 0 584.0053 496.0344
  A 43.23 42.07 -3.6 0 0 629.7916 535.3070
  A 43.23 42.07 -3.6 0 0 670.2947 490.6056
  Z"
/>
<path fill="#0e2b1f" d="
  M 441.2268 499.9821
  A 43.99 43.25 8.5 0 1 391.3272 536.2549
  A 43.99 43.25 8.5 0 1 354.2132 486.9779
  A 43.99 43.25 8.5 0 1 404.1128 450.7051
  A 43.99 43.25 8.5 0 1 441.2268 499.9821
  Z
  M 439.7787 500.3405
  A 42.70 42.00 9.3 0 0 404.4274 451.9921
  A 42.70 42.00 9.3 0 0 355.5013 486.5395
  A 42.70 42.00 9.3 0 0 390.8526 534.8879
  A 42.70 42.00 9.3 0 0 439.7787 500.3405
  Z"
/>
<ellipse fill="#25705f" cx="0.00" cy="0.00" transform="translate(397.64,493.44) rotate(9.3)" rx="42.70" ry="42.00"/>
<ellipse fill="#25705f" cx="0.00" cy="0.00" transform="translate(627.15,493.32) rotate(-3.6)" rx="43.23" ry="42.07"/>
<path fill="#25705f" d="
  M 126.51 518.31
  L 126.59 508.57
  L 126.51 518.31
  Z"
/>
<path fill="#0e2b1f" d="
  M 613.56 619.32
  Q 618.74 617.30 623.94 617.42
  C 636.99 617.72 645.82 629.32 643.83 642.12
  Q 643.32 645.35 641.05 649.23
  Q 637.95 654.54 633.04 660.30
  Q 626.87 667.53 619.73 673.45
  Q 582.32 704.48 534.90 711.23
  Q 529.85 711.95 524.47 712.11
  C 519.64 712.25 515.04 712.75 510.52 712.49
  C 504.12 712.11 498.23 712.18 491.89 711.38
  Q 461.02 707.48 434.76 693.79
  Q 415.58 683.81 399.25 668.57
  C 395.65 665.21 391.84 660.52 388.33 656.46
  Q 385.86 653.60 382.35 647.72
  Q 379.85 643.52 380.17 636.48
  C 380.90 620.46 398.91 612.48 411.83 621.00
  C 416.68 624.20 421.44 631.84 425.41 635.61
  Q 450.86 659.74 483.79 666.88
  Q 494.16 669.13 506.98 669.68
  Q 546.25 671.37 579.56 649.82
  C 588.81 643.84 597.74 636.18 604.45 627.11
  Q 608.86 621.15 613.56 619.32
  Z
  M 448.94 654.76
  Q 439.97 649.61 429.08 640.39
  C 423.63 635.79 420.04 631.07 415.07 625.53
  Q 408.22 617.88 398.05 618.96
  Q 391.98 619.60 388.17 622.89
  C 382.49 627.78 381.16 633.85 381.65 641.07
  C 381.93 645.22 384.53 649.65 386.84 652.65
  Q 399.01 668.53 415.12 680.13
  Q 415.67 680.52 422.60 685.31
  Q 426.52 688.02 430.39 690.01
  C 434.54 692.15 438.96 694.76 443.67 696.79
  Q 468.80 707.64 496.27 710.55
  C 504.51 711.42 510.12 711.01 520.29 711.04
  Q 525.71 711.06 531.65 710.18
  Q 542.84 708.52 542.97 708.50
  C 551.02 706.99 560.86 704.63 569.68 701.01
  Q 581.03 696.37 583.81 695.06
  Q 599.52 687.68 614.26 676.26
  Q 625.51 667.54 634.51 656.50
  C 639.92 649.87 644.24 642.30 642.33 633.87
  Q 640.69 626.61 635.10 622.45
  Q 629.02 617.94 620.52 619.01
  Q 614.91 619.71 612.38 621.09
  Q 609.83 622.47 606.38 626.68
  Q 599.30 635.35 596.75 637.72
  Q 572.51 660.27 540.88 667.93
  Q 537.90 668.65 534.48 669.09
  Q 531.23 669.50 528.06 670.12
  Q 523.43 671.04 518.36 670.97
  C 510.79 670.86 502.82 671.26 494.55 670.18
  Q 470.35 667.03 448.94 654.76
  Z"
/>
<path fill="#25705f" d="
  M 448.94 654.76
  Q 470.35 667.03 494.55 670.18
  C 502.82 671.26 510.79 670.86 518.36 670.97
  Q 523.43 671.04 528.06 670.12
  Q 531.23 669.50 534.48 669.09
  Q 537.90 668.65 540.88 667.93
  Q 572.51 660.27 596.75 637.72
  Q 599.30 635.35 606.38 626.68
  Q 609.83 622.47 612.38 621.09
  Q 614.91 619.71 620.52 619.01
  Q 629.02 617.94 635.10 622.45
  Q 640.69 626.61 642.33 633.87
  C 644.24 642.30 639.92 649.87 634.51 656.50
  Q 625.51 667.54 614.26 676.26
  Q 599.52 687.68 583.81 695.06
  Q 581.03 696.37 569.68 701.01
  C 560.86 704.63 551.02 706.99 542.97 708.50
  Q 542.84 708.52 531.65 710.18
  Q 525.71 711.06 520.29 711.04
  C 510.12 711.01 504.51 711.42 496.27 710.55
  Q 468.80 707.64 443.67 696.79
  C 438.96 694.76 434.54 692.15 430.39 690.01
  Q 426.52 688.02 422.60 685.31
  Q 415.67 680.52 415.12 680.13
  Q 399.01 668.53 386.84 652.65
  C 384.53 649.65 381.93 645.22 381.65 641.07
  C 381.16 633.85 382.49 627.78 388.17 622.89
  Q 391.98 619.60 398.05 618.96
  Q 408.22 617.88 415.07 625.53
  C 420.04 631.07 423.63 635.79 429.08 640.39
  Q 439.97 649.61 448.94 654.76
  Z"
/>
<path fill="#25705f" d="
  M 489.87 846.83
  L 483.08 846.39
  Q 486.44 845.82 489.87 846.83
  Z"
/>
<path fill="#25705f" d="
  M 511.46 847.69
  L 499.55 847.26
  Q 505.57 846.68 511.46 847.69
  Z"
/>
<path fill="#25705f" d="
  M 529.96 847.36
  L 520.50 847.67
  Q 525.19 846.62 529.96 847.36
  Z"
/>
</svg>
