<?xml version="1.0" encoding="UTF-8" standalone="no"?>
<!DOCTYPE svg PUBLIC "-//W3C//DTD SVG 1.1//EN" "http://www.w3.org/Graphics/SVG/1.1/DTD/svg11.dtd">
<svg xmlns="http://www.w3.org/2000/svg" version="1.1" viewBox="0.00 0.00 1024.00 1024.00">
<g stroke-width="2.00" fill="none" stroke-linecap="butt">
<path stroke="#092725" vector-effect="non-scaling-stroke" d="
  M 596.18 156.50
  Q 594.74 153.14 592.99 148.78
  C 589.33 139.69 583.38 131.20 576.86 124.25
  Q 572.06 119.12 565.82 114.67
  Q 558.54 109.47 553.52 106.75
  Q 542.83 100.96 526.53 97.68
  Q 520.42 96.44 513.42 96.52
  Q 502.98 96.62 500.29 97.02
  Q 460.41 102.91 437.57 136.09
  Q 431.85 144.39 428.48 154.75
  Q 427.65 157.27 424.99 157.27
  Q 394.93 157.27 378.03 157.17
  C 368.32 157.11 360.28 158.50 354.04 165.02
  Q 347.50 171.86 346.11 182.60
  C 345.85 184.58 345.28 186.07 343.18 186.12
  Q 327.12 186.46 288.95 186.20
  Q 274.99 186.10 268.62 187.01
  Q 257.40 188.62 248.84 191.82
  C 222.26 201.78 203.82 225.80 200.35 254.07
  Q 199.94 257.38 199.94 281.94
  Q 199.95 745.50 199.90 836.19
  Q 199.90 843.80 200.17 847.36
  Q 201.51 865.00 209.92 879.78
  Q 223.86 904.26 250.52 913.88
  Q 262.03 918.04 273.26 918.05
  Q 389.77 918.09 735.51 918.10
  Q 751.05 918.10 756.34 917.57
  Q 765.99 916.60 779.33 910.88
  C 782.71 909.43 785.28 907.43 788.51 905.52
  Q 792.23 903.30 795.03 900.93
  Q 811.76 886.76 819.20 866.56
  Q 821.59 860.07 822.56 853.75
  Q 823.31 848.91 823.31 840.51
  Q 823.51 442.00 823.17 258.04
  Q 823.16 249.59 820.49 240.63
  Q 815.69 224.52 805.08 212.42
  Q 784.32 188.75 752.73 186.59
  Q 744.19 186.01 727.04 186.25
  C 710.95 186.47 693.21 186.24 678.89 186.14
  A 1.59 1.58 86.9 0 1 677.33 184.73
  C 675.54 169.27 665.02 157.01 648.50 157.12
  Q 622.40 157.31 597.17 157.15
  A 1.08 1.08 0.0 0 1 596.18 156.50"
/>
<path stroke="#092725" vector-effect="non-scaling-stroke" d="
  M 376.52 191.88
  Q 376.17 193.38 376.11 194.99
  Q 375.40 214.33 375.98 239.92
  C 376.16 247.86 381.59 253.55 388.79 255.75
  Q 391.23 256.49 397.78 256.49
  Q 586.25 256.50 620.40 256.53
  Q 632.56 256.54 635.90 255.25
  Q 643.51 252.33 646.77 244.43
  Q 648.15 241.08 648.07 233.43
  Q 648.01 228.57 648.09 197.50
  Q 648.11 191.51 644.10 189.02
  Q 641.54 187.43 634.57 187.37
  Q 609.15 187.15 584.76 187.45
  Q 575.38 187.57 571.17 180.76
  Q 570.00 178.87 568.46 172.16
  Q 563.76 151.66 546.61 138.71
  Q 537.74 132.00 530.17 129.64
  Q 501.53 120.69 477.28 138.29
  Q 470.88 142.93 465.22 150.84
  C 463.35 153.45 461.98 156.82 460.80 158.69
  C 458.25 162.74 456.78 167.97 455.94 173.03
  Q 454.97 178.90 453.72 181.14
  Q 450.10 187.64 441.54 187.51
  Q 416.84 187.14 385.26 187.49
  Q 379.96 187.54 376.96 191.00
  A 2.03 1.96 72.6 0 0 376.52 191.88"
/>
<path stroke="#092725" vector-effect="non-scaling-stroke" d="
  M 677.37 219.18
  Q 676.92 225.77 677.11 236.07
  Q 677.27 244.35 676.21 249.39
  Q 672.17 268.75 655.83 279.40
  Q 652.67 281.46 647.40 283.74
  C 640.89 286.55 636.66 287.71 630.78 287.70
  Q 506.66 287.51 402.66 287.72
  Q 389.97 287.74 384.96 286.67
  Q 375.88 284.74 368.49 280.21
  Q 346.60 266.80 346.31 240.22
  Q 346.17 227.45 346.04 219.56
  A 1.97 1.96 89.3 0 0 344.07 217.63
  Q 319.41 217.78 282.00 217.93
  Q 279.75 217.94 275.61 217.86
  C 263.59 217.64 251.70 223.33 243.63 231.62
  Q 230.36 245.25 230.35 264.51
  Q 230.34 275.26 230.35 285.50
  Q 230.47 564.87 230.46 684.75
  Q 230.46 775.71 230.31 817.00
  Q 230.25 833.37 230.39 838.03
  Q 230.75 850.06 231.07 851.67
  A 9.21 9.07 27.3 0 0 231.80 853.90
  C 233.18 856.80 233.96 860.08 235.57 862.84
  Q 246.25 881.13 266.20 886.45
  Q 270.56 887.61 278.43 887.61
  Q 682.81 887.56 740.84 887.60
  Q 752.35 887.61 757.54 886.30
  Q 777.32 881.30 788.34 863.09
  Q 794.15 853.48 794.15 840.04
  Q 794.07 437.66 794.11 297.25
  Q 794.11 280.26 794.08 267.11
  Q 794.06 256.97 792.74 252.01
  C 788.55 236.25 775.27 223.38 759.20 219.03
  Q 754.04 217.64 743.64 217.64
  Q 724.28 217.65 679.05 217.62
  A 1.68 1.68 0.0 0 0 677.37 219.18"
/>
<path stroke="#092725" vector-effect="non-scaling-stroke" d="
  M 646.46 209.93
  L 646.47 196.56"
/>
<path stroke="#092725" vector-effect="non-scaling-stroke" d="
  M 560.64 501.71
  Q 560.56 500.98 560.35 500.88
  A 0.63 0.63 0.0 0 1 560.60 499.67
  Q 594.85 499.05 612.26 499.59
  Q 620.01 499.84 624.58 494.08
  Q 627.89 489.91 627.89 485.47
  Q 627.98 425.21 627.86 419.26
  C 627.73 412.47 625.38 407.06 619.10 404.30
  Q 616.58 403.20 609.75 403.28
  Q 584.31 403.59 560.87 403.30
  A 0.76 0.76 0.0 0 1 560.13 402.40
  C 560.43 400.83 559.31 399.85 559.29 398.21
  Q 558.90 360.92 559.30 348.25
  C 559.49 342.23 555.14 336.88 549.69 335.28
  Q 548.39 334.89 538.28 334.90
  Q 479.78 334.92 478.00 334.91
  Q 469.43 334.86 465.37 342.13
  C 463.72 345.09 463.87 350.90 463.88 354.31
  Q 463.95 394.75 463.81 399.52
  Q 463.76 400.94 463.54 401.53
  A 2.62 2.61 10.8 0 1 461.05 403.21
  C 453.60 403.07 446.76 403.52 440.64 403.45
  Q 416.32 403.20 408.75 403.48
  Q 404.94 403.62 403.10 404.61
  Q 395.31 408.81 395.57 419.05
  Q 395.86 429.84 395.66 484.77
  Q 395.62 494.65 403.24 498.26
  Q 406.45 499.78 417.14 499.59
  Q 440.15 499.19 460.68 499.77
  Q 462.41 499.82 463.04 500.43
  Q 463.82 501.21 463.82 502.76
  Q 463.80 538.19 463.92 552.54
  C 463.97 558.79 464.64 563.90 469.53 567.02
  Q 473.77 569.72 479.25 569.69
  Q 512.26 569.52 544.42 569.72
  Q 559.05 569.81 559.08 555.49
  Q 559.14 529.01 559.25 501.85
  A 0.32 0.32 0.0 0 1 559.87 501.76
  L 560.64 504.32"
/>
<path stroke="#092725" vector-effect="non-scaling-stroke" d="
  M 527.91 366.62
  L 527.94 365.79
  A 0.71 0.71 0.0 0 0 527.23 365.05
  L 497.15 365.05
  A 1.26 1.24 21.1 0 0 496.23 365.45
  L 494.75 367.02
  A 3.05 3.05 0.0 0 0 493.92 369.11
  Q 494.10 405.51 494.10 418.68
  C 494.11 425.65 491.61 431.39 484.93 433.66
  Q 482.95 434.33 473.52 434.15
  Q 472.20 434.12 428.58 434.22
  A 2.67 2.67 0.0 0 0 425.91 436.88
  Q 425.79 462.07 425.81 465.50
  Q 425.82 466.47 426.26 467.93
  A 2.05 2.04 -7.9 0 0 428.19 469.38
  Q 453.24 469.77 475.58 469.29
  Q 483.51 469.12 486.29 470.53
  Q 492.34 473.58 494.01 480.51
  A 2.41 2.29 -53.0 0 1 494.07 481.04
  L 494.14 535.50
  A 2.67 2.66 14.5 0 0 495.52 537.83
  Q 496.46 538.37 499.00 538.35
  Q 502.82 538.31 526.49 538.26
  C 528.59 538.26 529.32 535.35 529.33 533.50
  Q 529.59 506.85 529.31 481.53
  C 529.24 474.63 535.72 469.46 542.24 469.34
  Q 547.52 469.25 579.55 469.62
  Q 581.85 469.65 597.09 469.37
  A 1.01 1.01 0.0 0 0 598.06 468.18
  Q 598.05 468.17 597.89 467.98
  A 0.56 0.55 -50.2 0 1 597.84 467.33
  Q 598.40 466.40 598.36 464.25
  Q 598.14 450.14 598.56 437.18
  A 2.60 2.59 3.1 0 0 596.16 434.51
  Q 592.90 434.26 588.75 434.27
  Q 566.23 434.28 543.50 434.04
  C 534.07 433.94 529.29 428.00 529.60 418.97
  Q 529.63 418.02 529.63 413.82
  Q 529.60 390.95 529.65 369.57
  Q 529.66 367.44 528.08 367.70"
/>
<path stroke="#092725" vector-effect="non-scaling-stroke" d="
  M 712.73 635.59
  A 13.95 13.95 0.0 0 0 698.78 621.64
  L 325.64 621.64
  A 13.95 13.95 0.0 0 0 311.69 635.59
  L 311.69 638.27
  A 13.95 13.95 0.0 0 0 325.64 652.22
  L 698.78 652.22
  A 13.95 13.95 0.0 0 0 712.73 638.27
  L 712.73 635.59"
/>
<path stroke="#092725" vector-effect="non-scaling-stroke" d="
  M 637.76 718.48
  A 14.89 14.89 0.0 0 0 622.87 703.59
  L 326.31 703.59
  A 14.89 14.89 0.0 0 0 311.42 718.48
  L 311.42 720.28
  A 14.89 14.89 0.0 0 0 326.31 735.17
  L 622.87 735.17
  A 14.89 14.89 0.0 0 0 637.76 720.28
  L 637.76 718.48"
/>
<path stroke="#092725" vector-effect="non-scaling-stroke" d="
  M 522.73 800.63
  A 14.56 14.56 0.0 0 0 508.17 786.07
  L 326.07 786.07
  A 14.56 14.56 0.0 0 0 311.51 800.63
  L 311.51 802.95
  A 14.56 14.56 0.0 0 0 326.07 817.51
  L 508.17 817.51
  A 14.56 14.56 0.0 0 0 522.73 802.95
  L 522.73 800.63"
/>
</g>
<path fill="#010302" d="
  M 427.04 155.57
  Q 432.09 139.34 443.03 126.78
  Q 463.83 102.91 494.76 96.64
  Q 497.71 96.04 500.36 95.93
  C 502.55 95.83 505.02 95.27 507.84 95.20
  Q 545.27 94.25 573.24 119.05
  Q 590.05 133.96 596.82 155.29
  A 1.06 1.05 80.8 0 0 597.82 156.02
  L 653.41 156.02
  A 4.41 4.40 -37.5 0 1 654.55 156.17
  Q 672.39 160.83 677.44 178.14
  C 678.00 180.05 678.17 182.42 678.14 184.31
  A 0.62 0.62 0.0 0 0 678.76 184.94
  Q 712.86 185.03 737.01 184.87
  Q 753.91 184.76 763.35 186.68
  Q 793.31 192.76 811.40 218.57
  Q 820.14 231.02 823.23 245.94
  Q 824.67 252.87 824.67 268.21
  Q 824.63 688.25 824.76 843.30
  Q 824.77 850.92 822.95 858.53
  Q 816.42 885.91 794.10 903.07
  Q 779.73 914.11 763.15 917.77
  Q 755.68 919.41 747.25 919.41
  Q 328.55 919.39 284.77 919.43
  Q 267.01 919.45 259.84 917.93
  Q 247.32 915.28 236.18 908.55
  Q 215.01 895.76 204.91 872.82
  C 200.08 861.88 198.46 849.66 198.46 838.01
  Q 198.46 341.25 198.45 264.51
  Q 198.45 258.82 199.96 249.26
  Q 202.10 235.70 209.20 223.89
  Q 225.00 197.58 254.15 188.62
  Q 260.08 186.80 267.79 185.75
  Q 273.67 184.95 281.74 184.95
  Q 302.17 184.94 344.14 184.95
  A 0.70 0.70 0.0 0 0 344.84 184.25
  Q 344.86 179.35 346.60 174.76
  Q 352.22 159.93 368.22 156.12
  A 2.90 2.81 37.8 0 1 368.85 156.05
  L 426.46 155.99
  A 0.61 0.60 8.4 0 0 427.04 155.57
  Z
  M 596.18 156.50
  Q 594.74 153.14 592.99 148.78
  C 589.33 139.69 583.38 131.20 576.86 124.25
  Q 572.06 119.12 565.82 114.67
  Q 558.54 109.47 553.52 106.75
  Q 542.83 100.96 526.53 97.68
  Q 520.42 96.44 513.42 96.52
  Q 502.98 96.62 500.29 97.02
  Q 460.41 102.91 437.57 136.09
  Q 431.85 144.39 428.48 154.75
  Q 427.65 157.27 424.99 157.27
  Q 394.93 157.27 378.03 157.17
  C 368.32 157.11 360.28 158.50 354.04 165.02
  Q 347.50 171.86 346.11 182.60
  C 345.85 184.58 345.28 186.07 343.18 186.12
  Q 327.12 186.46 288.95 186.20
  Q 274.99 186.10 268.62 187.01
  Q 257.40 188.62 248.84 191.82
  C 222.26 201.78 203.82 225.80 200.35 254.07
  Q 199.94 257.38 199.94 281.94
  Q 199.95 745.50 199.90 836.19
  Q 199.90 843.80 200.17 847.36
  Q 201.51 865.00 209.92 879.78
  Q 223.86 904.26 250.52 913.88
  Q 262.03 918.04 273.26 918.05
  Q 389.77 918.09 735.51 918.10
  Q 751.05 918.10 756.34 917.57
  Q 765.99 916.60 779.33 910.88
  C 782.71 909.43 785.28 907.43 788.51 905.52
  Q 792.23 903.30 795.03 900.93
  Q 811.76 886.76 819.20 866.56
  Q 821.59 860.07 822.56 853.75
  Q 823.31 848.91 823.31 840.51
  Q 823.51 442.00 823.17 258.04
  Q 823.16 249.59 820.49 240.63
  Q 815.69 224.52 805.08 212.42
  Q 784.32 188.75 752.73 186.59
  Q 744.19 186.01 727.04 186.25
  C 710.95 186.47 693.21 186.24 678.89 186.14
  A 1.59 1.58 86.9 0 1 677.33 184.73
  C 675.54 169.27 665.02 157.01 648.50 157.12
  Q 622.40 157.31 597.17 157.15
  A 1.08 1.08 0.0 0 1 596.18 156.50
  Z"
/>
<path fill="#104a48" d="
  M 596.18 156.50
  A 1.08 1.08 0.0 0 0 597.17 157.15
  Q 622.40 157.31 648.50 157.12
  C 665.02 157.01 675.54 169.27 677.33 184.73
  A 1.59 1.58 86.9 0 0 678.89 186.14
  C 693.21 186.24 710.95 186.47 727.04 186.25
  Q 744.19 186.01 752.73 186.59
  Q 784.32 188.75 805.08 212.42
  Q 815.69 224.52 820.49 240.63
  Q 823.16 249.59 823.17 258.04
  Q 823.51 442.00 823.31 840.51
  Q 823.31 848.91 822.56 853.75
  Q 821.59 860.07 819.20 866.56
  Q 811.76 886.76 795.03 900.93
  Q 792.23 903.30 788.51 905.52
  C 785.28 907.43 782.71 909.43 779.33 910.88
  Q 765.99 916.60 756.34 917.57
  Q 751.05 918.10 735.51 918.10
  Q 389.77 918.09 273.26 918.05
  Q 262.03 918.04 250.52 913.88
  Q 223.86 904.26 209.92 879.78
  Q 201.51 865.00 200.17 847.36
  Q 199.90 843.80 199.90 836.19
  Q 199.95 745.50 199.94 281.94
  Q 199.94 257.38 200.35 254.07
  C 203.82 225.80 222.26 201.78 248.84 191.82
  Q 257.40 188.62 268.62 187.01
  Q 274.99 186.10 288.95 186.20
  Q 327.12 186.46 343.18 186.12
  C 345.28 186.07 345.85 184.58 346.11 182.60
  Q 347.50 171.86 354.04 165.02
  C 360.28 158.50 368.32 157.11 378.03 157.17
  Q 394.93 157.27 424.99 157.27
  Q 427.65 157.27 428.48 154.75
  Q 431.85 144.39 437.57 136.09
  Q 460.41 102.91 500.29 97.02
  Q 502.98 96.62 513.42 96.52
  Q 520.42 96.44 526.53 97.68
  Q 542.83 100.96 553.52 106.75
  Q 558.54 109.47 565.82 114.67
  Q 572.06 119.12 576.86 124.25
  C 583.38 131.20 589.33 139.69 592.99 148.78
  Q 594.74 153.14 596.18 156.50
  Z
  M 376.52 191.88
  Q 376.17 193.38 376.11 194.99
  Q 375.40 214.33 375.98 239.92
  C 376.16 247.86 381.59 253.55 388.79 255.75
  Q 391.23 256.49 397.78 256.49
  Q 586.25 256.50 620.40 256.53
  Q 632.56 256.54 635.90 255.25
  Q 643.51 252.33 646.77 244.43
  Q 648.15 241.08 648.07 233.43
  Q 648.01 228.57 648.09 197.50
  Q 648.11 191.51 644.10 189.02
  Q 641.54 187.43 634.57 187.37
  Q 609.15 187.15 584.76 187.45
  Q 575.38 187.57 571.17 180.76
  Q 570.00 178.87 568.46 172.16
  Q 563.76 151.66 546.61 138.71
  Q 537.74 132.00 530.17 129.64
  Q 501.53 120.69 477.28 138.29
  Q 470.88 142.93 465.22 150.84
  C 463.35 153.45 461.98 156.82 460.80 158.69
  C 458.25 162.74 456.78 167.97 455.94 173.03
  Q 454.97 178.90 453.72 181.14
  Q 450.10 187.64 441.54 187.51
  Q 416.84 187.14 385.26 187.49
  Q 379.96 187.54 376.96 191.00
  A 2.03 1.96 72.6 0 0 376.52 191.88
  Z
  M 677.37 219.18
  Q 676.92 225.77 677.11 236.07
  Q 677.27 244.35 676.21 249.39
  Q 672.17 268.75 655.83 279.40
  Q 652.67 281.46 647.40 283.74
  C 640.89 286.55 636.66 287.71 630.78 287.70
  Q 506.66 287.51 402.66 287.72
  Q 389.97 287.74 384.96 286.67
  Q 375.88 284.74 368.49 280.21
  Q 346.60 266.80 346.31 240.22
  Q 346.17 227.45 346.04 219.56
  A 1.97 1.96 89.3 0 0 344.07 217.63
  Q 319.41 217.78 282.00 217.93
  Q 279.75 217.94 275.61 217.86
  C 263.59 217.64 251.70 223.33 243.63 231.62
  Q 230.36 245.25 230.35 264.51
  Q 230.34 275.26 230.35 285.50
  Q 230.47 564.87 230.46 684.75
  Q 230.46 775.71 230.31 817.00
  Q 230.25 833.37 230.39 838.03
  Q 230.75 850.06 231.07 851.67
  A 9.21 9.07 27.3 0 0 231.80 853.90
  C 233.18 856.80 233.96 860.08 235.57 862.84
  Q 246.25 881.13 266.20 886.45
  Q 270.56 887.61 278.43 887.61
  Q 682.81 887.56 740.84 887.60
  Q 752.35 887.61 757.54 886.30
  Q 777.32 881.30 788.34 863.09
  Q 794.15 853.48 794.15 840.04
  Q 794.07 437.66 794.11 297.25
  Q 794.11 280.26 794.08 267.11
  Q 794.06 256.97 792.74 252.01
  C 788.55 236.25 775.27 223.38 759.20 219.03
  Q 754.04 217.64 743.64 217.64
  Q 724.28 217.65 679.05 217.62
  A 1.68 1.68 0.0 0 0 677.37 219.18
  Z"
/>
<path fill="#010302" d="
  M 376.96 191.00
  Q 379.96 187.54 385.26 187.49
  Q 416.84 187.14 441.54 187.51
  Q 450.10 187.64 453.72 181.14
  Q 454.97 178.90 455.94 173.03
  C 456.78 167.97 458.25 162.74 460.80 158.69
  C 461.98 156.82 463.35 153.45 465.22 150.84
  Q 470.88 142.93 477.28 138.29
  Q 501.53 120.69 530.17 129.64
  Q 537.74 132.00 546.61 138.71
  Q 563.76 151.66 568.46 172.16
  Q 570.00 178.87 571.17 180.76
  Q 575.38 187.57 584.76 187.45
  Q 609.15 187.15 634.57 187.37
  Q 641.54 187.43 644.10 189.02
  Q 648.11 191.51 648.09 197.50
  Q 648.01 228.57 648.07 233.43
  Q 648.15 241.08 646.77 244.43
  Q 643.51 252.33 635.90 255.25
  Q 632.56 256.54 620.40 256.53
  Q 586.25 256.50 397.78 256.49
  Q 391.23 256.49 388.79 255.75
  C 381.59 253.55 376.16 247.86 375.98 239.92
  Q 375.40 214.33 376.11 194.99
  Q 376.17 193.38 376.52 191.88
  A 2.03 1.96 72.6 0 1 376.96 191.00
  Z
  M 646.46 209.93
  L 646.47 196.56
  Q 646.45 188.97 639.50 188.96
  Q 605.10 188.86 584.01 188.96
  Q 574.50 189.01 569.71 181.36
  Q 568.49 179.42 567.27 173.55
  Q 563.03 153.17 546.68 140.36
  Q 532.94 129.59 517.22 128.11
  Q 505.50 127.00 495.35 130.36
  Q 468.57 139.25 459.03 166.26
  Q 458.18 168.67 457.34 173.68
  Q 456.51 178.69 455.34 181.00
  Q 452.17 187.27 444.49 188.91
  A 2.80 2.63 37.3 0 1 443.92 188.97
  Q 405.64 188.97 387.55 188.92
  C 382.30 188.91 377.29 189.43 377.26 195.51
  Q 377.16 216.14 377.17 238.19
  C 377.17 241.25 377.55 243.71 378.89 246.13
  Q 381.98 251.69 387.36 253.93
  Q 390.13 255.08 398.85 255.07
  Q 593.62 255.00 625.50 255.08
  Q 628.44 255.08 632.53 254.90
  A 3.63 3.52 33.8 0 0 633.52 254.72
  Q 634.69 254.33 637.19 253.16
  Q 646.13 248.96 646.22 238.51
  Q 646.33 224.18 646.46 209.93
  Z"
/>
<path fill="#104a48" d="
  M 646.46 209.93
  L 646.47 196.56
  L 646.46 209.93
  Z"
/>
<path fill="#010302" d="
  M 677.37 219.18
  A 1.68 1.68 0.0 0 1 679.05 217.62
  Q 724.28 217.65 743.64 217.64
  Q 754.04 217.64 759.20 219.03
  C 775.27 223.38 788.55 236.25 792.74 252.01
  Q 794.06 256.97 794.08 267.11
  Q 794.11 280.26 794.11 297.25
  Q 794.07 437.66 794.15 840.04
  Q 794.15 853.48 788.34 863.09
  Q 777.32 881.30 757.54 886.30
  Q 752.35 887.61 740.84 887.60
  Q 682.81 887.56 278.43 887.61
  Q 270.56 887.61 266.20 886.45
  Q 246.25 881.13 235.57 862.84
  C 233.96 860.08 233.18 856.80 231.80 853.90
  A 9.21 9.07 27.3 0 1 231.07 851.67
  Q 230.75 850.06 230.39 838.03
  Q 230.25 833.37 230.31 817.00
  Q 230.46 775.71 230.46 684.75
  Q 230.47 564.87 230.35 285.50
  Q 230.34 275.26 230.35 264.51
  Q 230.36 245.25 243.63 231.62
  C 251.70 223.33 263.59 217.64 275.61 217.86
  Q 279.75 217.94 282.00 217.93
  Q 319.41 217.78 344.07 217.63
  A 1.97 1.96 89.3 0 1 346.04 219.56
  Q 346.17 227.45 346.31 240.22
  Q 346.60 266.80 368.49 280.21
  Q 375.88 284.74 384.96 286.67
  Q 389.97 287.74 402.66 287.72
  Q 506.66 287.51 630.78 287.70
  C 636.66 287.71 640.89 286.55 647.40 283.74
  Q 652.67 281.46 655.83 279.40
  Q 672.17 268.75 676.21 249.39
  Q 677.27 244.35 677.11 236.07
  Q 676.92 225.77 677.37 219.18
  Z
  M 678.26 219.70
  Q 678.52 229.15 678.32 241.26
  Q 677.96 262.18 662.44 275.93
  Q 652.82 284.45 640.28 287.65
  Q 635.12 288.96 626.92 288.96
  Q 411.19 288.91 398.61 288.97
  Q 388.42 289.01 382.88 287.57
  Q 365.99 283.15 355.55 270.78
  Q 349.58 263.71 346.51 253.67
  Q 344.77 247.99 344.91 239.24
  Q 345.00 233.06 344.91 219.45
  A 0.48 0.47 89.4 0 0 344.44 218.98
  Q 310.42 218.91 274.20 218.96
  C 271.48 218.96 269.82 219.63 267.45 219.92
  Q 265.55 220.15 262.50 221.23
  Q 241.84 228.56 234.29 248.97
  Q 233.32 251.58 232.70 254.78
  Q 231.97 258.52 231.97 260.75
  Q 231.97 537.54 231.96 840.57
  Q 231.96 843.95 232.18 846.44
  C 233.81 864.67 247.77 880.02 265.09 884.67
  Q 270.58 886.15 273.00 886.15
  Q 506.74 886.18 749.75 886.15
  A 8.03 7.66 38.2 0 0 751.23 886.01
  C 755.08 885.28 758.38 884.91 761.27 883.85
  Q 782.65 875.96 790.43 855.20
  C 792.75 849.03 792.97 843.55 792.97 836.50
  Q 792.90 565.64 792.95 271.62
  Q 792.96 258.01 791.50 252.64
  C 788.71 242.39 782.88 233.86 774.13 227.64
  Q 768.60 223.71 766.93 223.07
  Q 764.12 222.01 761.27 220.99
  Q 758.48 219.99 757.99 219.96
  Q 756.16 219.87 754.56 219.39
  Q 753.17 218.99 749.41 218.98
  Q 716.76 218.91 678.98 218.96
  A 0.72 0.71 -1.1 0 0 678.26 219.70
  Z"
/>
<path fill="#010302" d="
  M 560.64 501.71
  Q 560.56 500.98 560.35 500.88
  A 0.63 0.63 0.0 0 1 560.60 499.67
  Q 594.85 499.05 612.26 499.59
  Q 620.01 499.84 624.58 494.08
  Q 627.89 489.91 627.89 485.47
  Q 627.98 425.21 627.86 419.26
  C 627.73 412.47 625.38 407.06 619.10 404.30
  Q 616.58 403.20 609.75 403.28
  Q 584.31 403.59 560.87 403.30
  A 0.76 0.76 0.0 0 1 560.13 402.40
  C 560.43 400.83 559.31 399.85 559.29 398.21
  Q 558.90 360.92 559.30 348.25
  C 559.49 342.23 555.14 336.88 549.69 335.28
  Q 548.39 334.89 538.28 334.90
  Q 479.78 334.92 478.00 334.91
  Q 469.43 334.86 465.37 342.13
  C 463.72 345.09 463.87 350.90 463.88 354.31
  Q 463.95 394.75 463.81 399.52
  Q 463.76 400.94 463.54 401.53
  A 2.62 2.61 10.8 0 1 461.05 403.21
  C 453.60 403.07 446.76 403.52 440.64 403.45
  Q 416.32 403.20 408.75 403.48
  Q 404.94 403.62 403.10 404.61
  Q 395.31 408.81 395.57 419.05
  Q 395.86 429.84 395.66 484.77
  Q 395.62 494.65 403.24 498.26
  Q 406.45 499.78 417.14 499.59
  Q 440.15 499.19 460.68 499.77
  Q 462.41 499.82 463.04 500.43
  Q 463.82 501.21 463.82 502.76
  Q 463.80 538.19 463.92 552.54
  C 463.97 558.79 464.64 563.90 469.53 567.02
  Q 473.77 569.72 479.25 569.69
  Q 512.26 569.52 544.42 569.72
  Q 559.05 569.81 559.08 555.49
  Q 559.14 529.01 559.25 501.85
  A 0.32 0.32 0.0 0 1 559.87 501.76
  L 560.64 504.32
  Q 560.58 526.75 560.70 549.40
  Q 560.75 560.16 559.41 562.87
  Q 556.54 568.63 549.26 570.81
  A 3.67 3.48 35.2 0 1 548.23 570.96
  L 475.91 570.96
  A 3.18 2.88 -35.3 0 1 475.17 570.87
  Q 467.14 568.97 463.96 562.34
  Q 462.36 559.01 462.55 548.46
  Q 462.65 543.49 462.62 501.65
  A 0.62 0.62 0.0 0 0 462.00 501.03
  Q 435.27 500.99 410.75 501.04
  Q 397.89 501.06 394.25 489.08
  A 2.50 2.39 38.0 0 1 394.15 488.39
  L 394.20 415.39
  A 2.34 2.13 -42.3 0 1 394.24 414.97
  Q 396.43 404.94 406.40 402.12
  A 3.33 3.29 36.6 0 1 407.32 401.99
  L 462.43 401.99
  A 0.32 0.32 0.0 0 0 462.75 401.67
  Q 462.68 365.30 462.75 351.75
  C 462.77 348.20 462.59 345.16 464.06 342.09
  Q 467.09 335.75 474.29 333.86
  Q 476.54 333.28 482.25 333.34
  Q 488.51 333.42 541.39 333.33
  Q 549.22 333.32 551.95 334.68
  C 558.96 338.18 560.84 343.73 560.69 351.97
  Q 560.54 360.17 560.64 401.56
  A 0.44 0.43 89.3 0 0 561.07 401.99
  L 615.49 401.99
  A 3.32 3.16 -36.1 0 1 616.33 402.10
  Q 629.09 405.44 629.12 418.58
  Q 629.19 446.03 629.15 482.39
  Q 629.14 488.76 627.86 491.45
  Q 625.19 497.04 619.64 499.65
  Q 616.87 500.96 610.14 500.97
  Q 594.42 501.02 560.99 500.98
  Q 560.52 500.98 560.64 501.71
  Z"
/>
<path fill="#104a48" d="
  M 560.64 501.71
  Q 560.92 502.93 560.64 504.32
  L 559.87 501.76
  A 0.32 0.32 0.0 0 0 559.25 501.85
  Q 559.14 529.01 559.08 555.49
  Q 559.05 569.81 544.42 569.72
  Q 512.26 569.52 479.25 569.69
  Q 473.77 569.72 469.53 567.02
  C 464.64 563.90 463.97 558.79 463.92 552.54
  Q 463.80 538.19 463.82 502.76
  Q 463.82 501.21 463.04 500.43
  Q 462.41 499.82 460.68 499.77
  Q 440.15 499.19 417.14 499.59
  Q 406.45 499.78 403.24 498.26
  Q 395.62 494.65 395.66 484.77
  Q 395.86 429.84 395.57 419.05
  Q 395.31 408.81 403.10 404.61
  Q 404.94 403.62 408.75 403.48
  Q 416.32 403.20 440.64 403.45
  C 446.76 403.52 453.60 403.07 461.05 403.21
  A 2.62 2.61 10.8 0 0 463.54 401.53
  Q 463.76 400.94 463.81 399.52
  Q 463.95 394.75 463.88 354.31
  C 463.87 350.90 463.72 345.09 465.37 342.13
  Q 469.43 334.86 478.00 334.91
  Q 479.78 334.92 538.28 334.90
  Q 548.39 334.89 549.69 335.28
  C 555.14 336.88 559.49 342.23 559.30 348.25
  Q 558.90 360.92 559.29 398.21
  C 559.31 399.85 560.43 400.83 560.13 402.40
  A 0.76 0.76 0.0 0 0 560.87 403.30
  Q 584.31 403.59 609.75 403.28
  Q 616.58 403.20 619.10 404.30
  C 625.38 407.06 627.73 412.47 627.86 419.26
  Q 627.98 425.21 627.89 485.47
  Q 627.89 489.91 624.58 494.08
  Q 620.01 499.84 612.26 499.59
  Q 594.85 499.05 560.60 499.67
  A 0.63 0.63 0.0 0 0 560.35 500.88
  Q 560.56 500.98 560.64 501.71
  Z
  M 528.08 367.70
  Q 528.18 367.03 527.91 366.62
  L 527.94 365.79
  A 0.71 0.71 0.0 0 0 527.23 365.05
  L 497.15 365.05
  A 1.26 1.24 21.1 0 0 496.23 365.45
  L 494.75 367.02
  A 3.05 3.05 0.0 0 0 493.92 369.11
  Q 494.10 405.51 494.10 418.68
  C 494.11 425.65 491.61 431.39 484.93 433.66
  Q 482.95 434.33 473.52 434.15
  Q 472.20 434.12 428.58 434.22
  A 2.67 2.67 0.0 0 0 425.91 436.88
  Q 425.79 462.07 425.81 465.50
  Q 425.82 466.47 426.26 467.93
  A 2.05 2.04 -7.9 0 0 428.19 469.38
  Q 453.24 469.77 475.58 469.29
  Q 483.51 469.12 486.29 470.53
  Q 492.34 473.58 494.01 480.51
  A 2.41 2.29 -53.0 0 1 494.07 481.04
  L 494.14 535.50
  A 2.67 2.66 14.5 0 0 495.52 537.83
  Q 496.46 538.37 499.00 538.35
  Q 502.82 538.31 526.49 538.26
  C 528.59 538.26 529.32 535.35 529.33 533.50
  Q 529.59 506.85 529.31 481.53
  C 529.24 474.63 535.72 469.46 542.24 469.34
  Q 547.52 469.25 579.55 469.62
  Q 581.85 469.65 597.09 469.37
  A 1.01 1.01 0.0 0 0 598.06 468.18
  Q 598.05 468.17 597.89 467.98
  A 0.56 0.55 -50.2 0 1 597.84 467.33
  Q 598.40 466.40 598.36 464.25
  Q 598.14 450.14 598.56 437.18
  A 2.60 2.59 3.1 0 0 596.16 434.51
  Q 592.90 434.26 588.75 434.27
  Q 566.23 434.28 543.50 434.04
  C 534.07 433.94 529.29 428.00 529.60 418.97
  Q 529.63 418.02 529.63 413.82
  Q 529.60 390.95 529.65 369.57
  Q 529.66 367.44 528.08 367.70
  Z"
/>
<path fill="#010302" d="
  M 527.91 366.62
  L 496.48 366.61
  A 0.96 0.95 90.0 0 0 495.53 367.57
  Q 495.58 387.79 495.54 413.84
  Q 495.52 422.79 495.00 424.62
  C 493.00 431.62 487.06 435.75 479.51 435.68
  Q 475.80 435.64 427.50 435.63
  A 0.52 0.52 0.0 0 0 426.98 436.15
  L 426.98 467.51
  A 0.47 0.46 -90.0 0 0 427.44 467.98
  Q 456.39 467.95 480.76 467.99
  C 488.82 468.01 495.35 474.70 495.42 482.76
  Q 495.61 504.84 495.44 535.92
  A 1.11 1.10 0.3 0 0 496.55 537.03
  L 527.70 537.03
  A 0.29 0.29 0.0 0 0 527.99 536.74
  Q 528.06 487.99 527.98 485.29
  Q 527.79 479.32 529.25 476.39
  Q 532.61 469.68 540.61 468.01
  A 2.03 1.86 -47.5 0 1 540.95 467.98
  L 596.59 468.03
  A 0.48 0.47 -90.0 0 0 597.06 467.55
  L 597.06 436.21
  A 0.48 0.47 90.0 0 0 596.59 435.73
  Q 575.84 435.63 545.25 435.75
  Q 539.50 435.77 536.89 434.58
  C 531.60 432.16 528.06 427.42 528.06 421.25
  Q 528.04 394.51 528.08 367.70
  Q 529.66 367.44 529.65 369.57
  Q 529.60 390.95 529.63 413.82
  Q 529.63 418.02 529.60 418.97
  C 529.29 428.00 534.07 433.94 543.50 434.04
  Q 566.23 434.28 588.75 434.27
  Q 592.90 434.26 596.16 434.51
  A 2.60 2.59 3.1 0 1 598.56 437.18
  Q 598.14 450.14 598.36 464.25
  Q 598.40 466.40 597.84 467.33
  A 0.56 0.55 -50.2 0 0 597.89 467.98
  Q 598.05 468.17 598.06 468.18
  A 1.01 1.01 0.0 0 1 597.09 469.37
  Q 581.85 469.65 579.55 469.62
  Q 547.52 469.25 542.24 469.34
  C 535.72 469.46 529.24 474.63 529.31 481.53
  Q 529.59 506.85 529.33 533.50
  C 529.32 535.35 528.59 538.26 526.49 538.26
  Q 502.82 538.31 499.00 538.35
  Q 496.46 538.37 495.52 537.83
  A 2.67 2.66 14.5 0 1 494.14 535.50
  L 494.07 481.04
  A 2.41 2.29 -53.0 0 0 494.01 480.51
  Q 492.34 473.58 486.29 470.53
  Q 483.51 469.12 475.58 469.29
  Q 453.24 469.77 428.19 469.38
  A 2.05 2.04 -7.9 0 1 426.26 467.93
  Q 425.82 466.47 425.81 465.50
  Q 425.79 462.07 425.91 436.88
  A 2.67 2.67 0.0 0 1 428.58 434.22
  Q 472.20 434.12 473.52 434.15
  Q 482.95 434.33 484.93 433.66
  C 491.61 431.39 494.11 425.65 494.10 418.68
  Q 494.10 405.51 493.92 369.11
  A 3.05 3.05 0.0 0 1 494.75 367.02
  L 496.23 365.45
  A 1.26 1.24 21.1 0 1 497.15 365.05
  L 527.23 365.05
  A 0.71 0.71 0.0 0 1 527.94 365.79
  L 527.91 366.62
  Z"
/>
<path fill="#010302" d="
  M 714.41 637.58
  A 16.12 16.12 0.0 0 1 698.29 653.70
  L 326.17 653.70
  A 16.12 16.12 0.0 0 1 310.05 637.58
  L 310.05 636.28
  A 16.12 16.12 0.0 0 1 326.17 620.16
  L 698.29 620.16
  A 16.12 16.12 0.0 0 1 714.41 636.28
  L 714.41 637.58
  Z
  M 712.73 635.59
  A 13.95 13.95 0.0 0 0 698.78 621.64
  L 325.64 621.64
  A 13.95 13.95 0.0 0 0 311.69 635.59
  L 311.69 638.27
  A 13.95 13.95 0.0 0 0 325.64 652.22
  L 698.78 652.22
  A 13.95 13.95 0.0 0 0 712.73 638.27
  L 712.73 635.59
  Z"
/>
<rect fill="#104a48" x="311.69" y="621.64" width="401.04" height="30.58" rx="13.95"/>
<path fill="#010302" d="
  M 639.1307 719.6329
  A 16.78 16.78 0.0 0 1 622.3800 736.4421
  L 326.9004 736.9578
  A 16.78 16.78 0.0 0 1 310.0912 720.2071
  L 310.0893 719.1471
  A 16.78 16.78 0.0 0 1 326.8400 702.3379
  L 622.3196 701.8222
  A 16.78 16.78 0.0 0 1 639.1288 718.5729
  L 639.1307 719.6329
  Z
  M 637.76 718.48
  A 14.89 14.89 0.0 0 0 622.87 703.59
  L 326.31 703.59
  A 14.89 14.89 0.0 0 0 311.42 718.48
  L 311.42 720.28
  A 14.89 14.89 0.0 0 0 326.31 735.17
  L 622.87 735.17
  A 14.89 14.89 0.0 0 0 637.76 720.28
  L 637.76 718.48
  Z"
/>
<rect fill="#104a48" x="311.42" y="703.59" width="326.34" height="31.58" rx="14.89"/>
<path fill="#010302" d="
  M 524.3709 802.2230
  A 16.55 16.55 0.0 0 1 507.8498 818.8018
  L 326.6101 819.1181
  A 16.55 16.55 0.0 0 1 310.0312 802.5970
  L 310.0291 801.3770
  A 16.55 16.55 0.0 0 1 326.5502 784.7982
  L 507.7899 784.4819
  A 16.55 16.55 0.0 0 1 524.3688 801.0030
  L 524.3709 802.2230
  Z
  M 522.73 800.63
  A 14.56 14.56 0.0 0 0 508.17 786.07
  L 326.07 786.07
  A 14.56 14.56 0.0 0 0 311.51 800.63
  L 311.51 802.95
  A 14.56 14.56 0.0 0 0 326.07 817.51
  L 508.17 817.51
  A 14.56 14.56 0.0 0 0 522.73 802.95
  L 522.73 800.63
  Z"
/>
<rect fill="#104a48" x="311.51" y="786.07" width="211.22" height="31.44" rx="14.56"/>
</svg>
