<?xml version="1.0" encoding="UTF-8" standalone="no"?>
<!DOCTYPE svg PUBLIC "-//W3C//DTD SVG 1.1//EN" "http://www.w3.org/Graphics/SVG/1.1/DTD/svg11.dtd">
<svg xmlns="http://www.w3.org/2000/svg" version="1.1" viewBox="0.00 0.00 1024.00 1024.00">
<g stroke-width="2.00" fill="none" stroke-linecap="butt">
<path stroke="#031c32" vector-effect="non-scaling-stroke" d="
  M 563.73 446.21
  Q 564.12 446.00 564.48 446.17
  A 0.37 0.37 0.0 0 1 564.69 446.47
  L 565.28 451.42
  A 2.04 2.03 86.5 0 0 567.30 453.21
  L 578.34 453.21
  A 1.58 1.58 0.0 0 0 579.92 451.60
  Q 579.57 435.37 579.79 421.65
  Q 579.85 417.95 579.50 413.87
  C 578.91 407.04 578.52 403.19 575.29 397.88
  C 572.58 393.42 565.55 389.22 561.00 388.67
  Q 556.44 388.11 547.41 388.57
  C 541.80 388.86 535.28 390.76 530.48 393.24
  Q 525.97 395.56 528.89 399.58
  Q 530.48 401.75 531.60 403.82
  A 1.31 1.29 -26.2 0 0 533.28 404.38
  Q 538.80 401.86 545.22 400.74
  Q 552.15 399.52 556.23 401.10
  Q 561.55 403.15 563.68 409.17
  A 2.94 2.84 -56.1 0 1 563.84 410.06
  Q 563.88 412.19 561.78 413.73
  A 1.60 1.58 28.3 0 1 560.72 414.04
  C 553.69 413.54 548.16 414.69 540.82 416.33
  Q 534.55 417.74 528.52 422.47
  A 4.13 4.08 89.7 0 0 527.70 423.31
  Q 523.87 428.53 523.57 435.28
  Q 523.27 441.87 526.88 446.89
  C 530.60 452.07 537.82 455.05 543.76 454.67
  Q 549.79 454.28 551.75 453.75
  Q 557.08 452.32 561.01 447.32
  A 0.65 0.64 -32.8 0 1 562.15 447.56
  L 562.27 448.02"
/>
<path stroke="#031c32" vector-effect="non-scaling-stroke" d="
  M 618.95 435.53
  Q 616.54 436.03 616.08 430.62
  A 3.46 3.44 -56.2 0 0 615.92 429.80
  Q 609.35 409.57 603.73 392.80
  C 603.08 390.87 601.91 389.99 599.84 390.03
  Q 594.63 390.13 588.04 390.42
  A 1.31 1.30 -11.3 0 0 586.87 392.17
  Q 596.84 419.63 608.14 448.12
  Q 608.65 449.42 609.97 454.47
  A 3.18 3.07 -47.2 0 1 610.00 455.93
  Q 607.44 467.80 595.19 468.58
  A 1.72 1.72 0.0 0 0 593.58 470.50
  L 594.51 478.32
  A 2.30 2.29 -3.5 0 0 596.80 480.34
  C 600.08 480.32 605.66 480.35 609.04 478.94
  C 617.33 475.47 623.18 467.30 625.80 459.12
  Q 627.11 455.02 628.62 451.18
  Q 638.42 426.13 647.17 401.78
  C 648.27 398.71 649.58 395.91 650.99 392.01
  A 1.45 1.45 0.0 0 0 649.62 390.07
  L 636.75 390.07
  A 2.98 2.98 0.0 0 0 633.91 392.15
  Q 629.25 406.97 628.24 410.56
  Q 627.07 414.72 625.51 418.93
  Q 624.34 422.11 623.14 427.40
  Q 622.81 428.90 620.72 435.84
  A 0.41 0.40 26.2 0 1 620.09 436.05
  L 619.41 435.56"
/>
<path stroke="#031c32" vector-effect="non-scaling-stroke" d="
  M 774.32 448.24
  Q 775.78 447.74 775.88 448.73
  Q 776.06 450.41 776.20 451.70
  A 1.50 1.49 -2.7 0 0 777.69 453.05
  L 788.81 453.05
  A 1.33 1.33 0.0 0 0 790.14 451.72
  L 790.14 391.78
  A 1.64 1.64 0.0 0 0 788.50 390.14
  L 777.33 390.14
  A 2.05 2.05 0.0 0 0 775.28 392.19
  Q 775.32 404.93 775.06 426.43
  Q 774.96 434.30 768.91 438.99
  A 4.37 4.35 -76.1 0 1 768.05 439.51
  C 763.36 441.72 755.30 442.08 751.25 438.40
  C 746.81 434.36 746.02 427.41 746.07 421.50
  Q 746.13 415.85 746.11 391.69
  A 1.40 1.40 0.0 0 0 744.71 390.29
  L 733.20 390.29
  A 1.56 1.55 89.8 0 0 731.65 391.86
  Q 731.73 411.94 731.49 429.39
  C 731.43 433.18 732.08 436.01 733.15 439.68
  Q 736.87 452.49 750.55 454.47
  Q 763.18 456.31 772.28 447.61
  Q 772.59 447.32 772.91 447.37
  Q 773.26 447.43 773.58 447.65"
/>
<path stroke="#031c32" vector-effect="non-scaling-stroke" d="
  M 600.00 560.25
  L 600.37 560.86
  A 0.43 0.43 0.0 0 1 600.10 561.50
  C 592.98 563.06 585.97 561.85 584.39 553.71
  C 583.69 550.07 583.51 544.53 583.61 541.25
  Q 583.91 530.54 583.95 521.11
  A 1.79 1.79 0.0 0 1 585.74 519.32
  L 600.58 519.32
  A 1.08 1.07 -87.7 0 0 601.65 518.33
  L 601.95 514.34
  A 0.72 0.71 36.4 0 0 601.90 514.03
  Q 600.99 511.94 601.30 509.59
  A 1.47 1.47 0.0 0 0 599.84 507.93
  L 586.01 507.93
  A 1.69 1.68 -6.2 0 1 584.36 506.61
  Q 583.42 502.41 584.00 498.41
  Q 584.00 498.39 584.00 498.38
  L 583.52 490.36
  A 4.60 4.59 -38.4 0 1 583.70 488.83
  L 584.40 486.52
  A 1.31 1.31 0.0 0 0 583.18 484.83
  Q 581.42 484.79 580.92 484.92
  Q 571.62 487.27 568.50 488.01
  A 1.41 1.41 0.0 0 0 567.41 489.41
  L 567.83 505.95
  A 0.19 0.17 76.5 0 1 567.74 506.11
  L 567.33 506.38
  A 0.20 0.20 0.0 0 1 567.07 506.17
  Q 567.19 503.64 566.24 501.45"
/>
<path stroke="#031c32" vector-effect="non-scaling-stroke" d="
  M 602.09 559.96
  Q 605.31 562.71 605.99 568.95
  Q 606.16 570.56 605.58 571.44
  C 603.44 574.72 594.51 575.74 590.57 575.71
  Q 586.25 575.68 583.78 575.18
  C 571.62 572.70 568.06 561.99 567.92 551.06
  Q 567.80 541.20 567.95 523.02
  Q 567.96 521.52 567.67 519.61
  A 0.73 0.72 -4.1 0 0 566.95 518.99
  L 559.00 518.99
  A 1.65 1.64 -90.0 0 1 557.36 517.34
  L 557.36 510.19
  A 2.08 2.07 87.9 0 1 559.28 508.12
  L 566.03 507.62
  A 0.05 0.03 9.2 0 0 566.07 507.60
  L 566.25 507.30
  A 0.18 0.18 0.0 0 0 566.10 507.03
  L 557.54 506.39"
/>
<path stroke="#031c32" vector-effect="non-scaling-stroke" d="
  M 566.32 547.01
  Q 567.08 533.50 566.90 520.05
  A 0.49 0.49 0.0 0 0 566.14 519.65
  Q 565.84 519.85 565.74 520.21"
/>
<path stroke="#031c32" vector-effect="non-scaling-stroke" d="
  M 606.22 631.17
  Q 605.58 631.59 605.23 631.27
  Q 604.59 630.67 605.21 629.81
  A 0.87 0.86 59.3 0 0 605.36 629.21
  L 604.97 625.95
  A 0.91 0.90 86.8 0 0 604.07 625.14
  L 591.62 625.14
  A 1.28 1.27 -90.0 0 0 590.35 626.42
  L 590.35 687.85
  A 1.59 1.59 0.0 0 0 591.94 689.44
  L 604.53 689.44
  A 1.54 1.54 0.0 0 0 606.07 687.84
  Q 605.56 672.39 605.87 652.31
  Q 606.01 643.43 612.77 639.19
  Q 619.72 634.82 628.11 637.95
  C 635.54 640.71 636.42 650.86 636.45 657.26
  Q 636.52 673.02 636.10 685.68
  Q 636.01 688.24 636.07 688.37
  Q 636.72 689.68 638.11 689.63
  Q 645.32 689.42 650.92 689.56
  A 1.39 1.39 0.0 0 0 652.34 688.04
  Q 652.06 685.19 652.06 683.00
  Q 652.03 664.77 652.12 646.88
  Q 652.13 644.55 650.36 638.26
  Q 648.99 633.37 646.26 630.54
  C 638.74 622.73 626.41 622.01 616.81 625.32
  Q 612.28 626.88 608.70 631.02
  A 0.45 0.44 52.0 0 1 607.97 630.93
  L 607.84 630.66"
/>
<path stroke="#08253e" vector-effect="non-scaling-stroke" d="
  M 664.47 689.30
  Q 665.37 657.81 664.47 626.30"
/>
<path stroke="#08253e" vector-effect="non-scaling-stroke" d="
  M 286.08 327.39
  Q 280.91 325.70 278.92 325.33
  C 272.04 324.06 267.52 322.85 262.22 322.41
  Q 236.23 320.23 210.11 324.50
  Q 206.16 325.14 199.89 326.74
  Q 191.70 328.82 189.77 329.50
  Q 159.90 339.91 138.60 356.39
  Q 130.23 362.87 121.49 371.85
  Q 117.86 375.58 113.86 380.44
  Q 109.10 386.23 106.74 389.48
  Q 102.24 395.70 96.96 405.02
  Q 91.88 414.02 88.93 421.54
  Q 80.54 442.93 78.20 462.76
  C 77.79 466.21 77.21 468.88 77.00 471.69
  Q 74.97 498.81 81.18 525.59
  Q 82.30 530.43 84.62 537.32
  Q 88.10 547.63 88.64 548.90
  Q 91.86 556.49 97.47 567.20
  C 100.69 573.34 105.31 579.24 108.83 584.65
  Q 112.83 590.80 118.45 596.80
  Q 128.65 607.67 135.95 613.57
  C 149.25 624.33 162.84 633.18 178.21 639.68
  Q 190.82 645.01 211.55 649.63
  Q 222.70 652.11 238.25 652.13
  Q 256.02 652.14 269.67 650.05
  Q 278.96 648.62 287.21 646.23
  Q 297.16 643.35 304.22 640.43
  Q 315.90 635.61 329.21 627.70
  Q 337.20 622.95 343.78 617.56
  Q 353.93 609.24 357.32 606.06
  Q 368.07 595.97 378.88 580.64
  Q 398.52 552.80 405.37 519.43
  C 406.53 513.79 406.94 508.68 407.56 504.41
  Q 408.28 499.52 408.17 493.06
  Q 408.03 484.92 408.25 476.75
  Q 408.31 474.33 407.32 466.48
  Q 406.83 462.56 406.72 461.76
  Q 405.46 452.32 402.57 442.17
  Q 401.83 439.58 401.76 439.43
  C 400.70 437.21 400.70 435.40 399.64 432.63
  Q 393.60 416.95 391.14 412.33
  Q 378.52 388.55 362.32 371.69
  Q 344.16 352.79 318.62 339.91
  Q 307.71 334.40 299.54 331.46
  C 295.65 330.06 290.95 328.99 286.08 327.39"
/>
<path stroke="#08253e" vector-effect="non-scaling-stroke" d="
  M 140.94 599.64
  Q 147.31 605.53 157.73 612.74
  Q 179.76 627.97 205.82 634.62
  Q 214.37 636.80 228.79 638.10
  C 231.07 638.30 233.66 638.99 236.11 638.99
  Q 251.04 638.97 258.37 637.80
  C 262.56 637.13 265.33 636.94 269.17 636.20
  Q 281.71 633.76 290.00 630.96
  Q 296.85 628.64 305.86 624.55
  Q 313.28 621.17 320.87 616.35
  C 348.41 598.85 371.39 574.28 383.59 543.87
  Q 387.60 533.87 391.27 518.96
  C 392.53 513.89 392.82 507.97 393.90 502.75
  C 394.26 501.03 394.06 499.22 393.94 497.76
  A 6.90 6.66 47.6 0 1 393.98 496.29
  Q 395.46 485.87 394.85 479.99
  Q 394.40 475.70 393.53 468.02
  Q 393.51 467.81 392.85 462.39
  Q 391.47 451.09 386.26 436.62
  Q 386.21 436.49 384.21 431.02
  C 381.94 424.81 378.64 418.68 375.50 412.75
  Q 372.70 407.47 362.89 393.80
  C 359.94 389.69 356.71 386.72 353.91 383.25
  C 350.14 378.58 346.09 375.78 341.63 371.60
  C 337.80 368.00 333.35 365.27 329.27 362.10
  Q 326.38 359.85 322.29 357.45
  Q 297.94 343.13 270.24 337.67
  C 266.47 336.92 263.46 337.15 260.20 336.62
  Q 256.36 335.98 252.63 336.01
  Q 252.00 336.02 245.00 335.47
  C 237.39 334.87 227.79 335.43 219.09 336.78
  Q 196.54 340.29 176.77 349.84
  Q 160.56 357.67 154.73 362.05
  Q 143.26 370.67 136.56 376.82
  Q 134.70 378.53 128.70 384.65
  A 8.12 8.07 83.5 0 0 127.61 386.03
  C 125.34 389.68 121.81 392.71 119.42 395.99
  Q 99.12 423.93 93.27 454.78
  Q 91.26 465.36 90.53 483.00
  C 90.30 488.55 91.23 493.49 91.12 497.97
  Q 91.03 501.88 91.91 505.98
  Q 91.91 505.99 93.10 513.97
  Q 93.74 518.19 97.30 532.24
  Q 97.84 534.36 102.37 545.89
  C 105.17 553.01 109.27 560.11 112.80 566.22
  Q 118.42 575.94 126.07 584.51
  Q 134.32 593.75 137.70 596.68
  Q 138.21 597.12 140.94 599.64"
/>
<path stroke="#276865" vector-effect="non-scaling-stroke" d="
  M 345.70 403.94
  Q 346.48 404.38 346.80 403.87"
/>
<path stroke="#254d36" vector-effect="non-scaling-stroke" d="
  M 351.71 403.72
  Q 352.21 403.90 352.79 403.72"
/>
<path stroke="#276865" vector-effect="non-scaling-stroke" d="
  M 256.10 480.68
  Q 255.83 481.06 256.21 481.76"
/>
<path stroke="#276865" vector-effect="non-scaling-stroke" d="
  M 256.21 482.03
  Q 256.08 482.65 256.29 483.30"
/>
<path stroke="#276865" vector-effect="non-scaling-stroke" d="
  M 140.21 403.88
  Q 140.76 404.25 141.50 403.95"
/>
<path stroke="#254d36" vector-effect="non-scaling-stroke" d="
  M 261.33 608.96
  L 259.22 608.78"
/>
<path stroke="#276865" vector-effect="non-scaling-stroke" d="
  M 229.35 608.76
  L 227.23 609.03"
/>
<path stroke="#254d36" vector-effect="non-scaling-stroke" d="
  M 227.23 609.03
  L 226.46 606.92"
/>
<path stroke="#254d36" vector-effect="non-scaling-stroke" d="
  M 245.96 615.95
  L 245.84 625.32
  A 2.24 2.16 -0.9 0 1 243.70 627.45
  L 243.59 627.45
  A 2.22 2.11 -3.3 0 1 241.29 625.50
  L 241.07 622.44"
/>
<path stroke="#031c32" vector-effect="non-scaling-stroke" d="
  M 498.84 407.41
  Q 498.03 406.82 498.23 405.68
  Q 498.48 404.25 499.91 403.97
  A 1.77 1.56 -59.9 0 0 500.30 403.84
  Q 510.63 398.54 511.03 387.29
  C 511.13 384.40 509.93 379.87 509.21 377.68
  A 4.89 4.66 21.8 0 0 508.79 376.76
  Q 505.65 371.45 500.30 368.22
  Q 499.38 367.67 492.64 364.99
  A 3.26 3.23 -31.2 0 0 491.64 364.75
  Q 486.99 364.33 484.51 364.35
  Q 456.61 364.68 449.31 364.58
  A 1.02 1.01 0.3 0 0 448.28 365.59
  L 448.28 451.57
  A 1.73 1.72 -0.3 0 0 450.03 453.29
  Q 467.87 453.05 485.73 452.90
  Q 494.41 452.83 501.88 448.40
  C 511.62 442.62 514.01 432.47 511.91 421.61
  Q 510.61 414.91 504.59 411.19
  Q 500.92 408.93 498.84 407.41"
/>
<path stroke="#031c32" vector-effect="non-scaling-stroke" d="
  M 464.11 378.95
  L 464.21 399.37
  A 1.97 1.97 0.0 0 0 466.19 401.33
  L 481.29 401.25
  A 13.69 11.54 -0.3 0 0 494.92 389.64
  L 494.92 388.36
  A 13.69 11.54 -0.3 0 0 481.17 376.89
  L 466.07 376.97
  A 1.97 1.97 0.0 0 0 464.11 378.95"
/>
<path stroke="#031c32" vector-effect="non-scaling-stroke" d="
  M 464.16 415.09
  L 464.12 438.83
  A 2.11 2.11 0.0 0 0 466.23 440.95
  L 481.15 440.97
  A 15.47 13.51 0.1 0 0 496.64 427.49
  L 496.64 426.55
  A 15.47 13.51 0.1 0 0 481.19 413.01
  L 466.27 412.99
  A 2.11 2.11 0.0 0 0 464.16 415.09"
/>
<path stroke="#031c32" vector-effect="non-scaling-stroke" d="
  M 720.8368 416.9564
  A 29.65 29.65 0.0 0 0 690.1700 388.3592
  L 684.3936 388.5609
  A 29.65 29.65 0.0 0 0 655.7964 419.2276
  L 656.0232 425.7236
  A 29.65 29.65 0.0 0 0 686.6900 454.3208
  L 692.4664 454.1191
  A 29.65 29.65 0.0 0 0 721.0636 423.4524
  L 720.8368 416.9564"
/>
<path stroke="#031c32" vector-effect="non-scaling-stroke" d="
  M 563.89 423.52
  Q 562.48 422.70 560.80 422.64
  Q 551.63 422.33 543.59 426.30
  A 3.76 3.47 -78.3 0 0 542.68 426.95
  C 537.95 431.63 536.28 437.75 542.33 442.19
  A 3.14 2.97 69.5 0 0 543.33 442.68
  Q 551.62 445.06 559.28 440.24
  Q 562.86 437.98 563.94 434.00
  A 1.14 0.94 -39.3 0 0 563.98 433.80
  L 564.74 425.15
  A 1.72 1.69 17.8 0 0 563.89 423.52"
/>
<path stroke="#031c32" vector-effect="non-scaling-stroke" d="
  M 688.2179 442.1274
  A 21.14 17.98 90.9 0 0 706.5278 421.2724
  A 21.14 17.98 90.9 0 0 688.8821 399.8526
  A 21.14 17.98 90.9 0 0 670.5722 420.7076
  A 21.14 17.98 90.9 0 0 688.2179 442.1274"
/>
<path stroke="#031c32" vector-effect="non-scaling-stroke" d="
  M 549.3869 486.6429
  A 10.35 9.83 1.4 0 0 539.2802 476.5629
  A 10.35 9.83 1.4 0 0 528.6931 486.1371
  A 10.35 9.83 1.4 0 0 538.7998 496.2171
  A 10.35 9.83 1.4 0 0 549.3869 486.6429"
/>
<path stroke="#031c32" vector-effect="non-scaling-stroke" d="
  M 516.06 494.25
  C 512.42 489.60 509.00 487.61 503.08 484.67
  Q 498.77 482.54 493.95 481.94
  Q 473.53 479.38 458.19 491.17
  C 448.37 498.71 442.41 510.20 441.46 523.07
  Q 441.02 529.17 441.36 532.78
  C 442.85 548.32 450.73 562.80 465.10 570.14
  C 474.75 575.06 485.42 576.36 495.67 574.57
  Q 508.17 572.40 517.04 563.28
  C 518.70 561.57 518.38 560.56 516.69 559.07
  Q 513.12 555.90 510.75 553.40
  A 1.50 1.49 -39.1 0 0 508.81 553.21
  C 505.14 555.82 501.84 558.50 498.11 559.73
  Q 491.53 561.90 486.42 561.36
  Q 472.98 559.91 464.86 549.79
  C 458.76 542.18 457.41 531.22 458.56 521.48
  C 459.32 514.94 463.05 507.59 467.50 503.03
  C 474.98 495.34 484.19 494.35 494.20 496.63
  Q 500.14 497.98 504.88 502.90
  A 1.69 1.69 0.0 0 0 507.19 503.03
  L 515.90 495.80
  A 1.12 1.11 51.1 0 0 516.06 494.25"
/>
<path stroke="#031c32" vector-effect="non-scaling-stroke" d="
  M 546.89 508.88
  A 1.05 1.05 0.0 0 0 545.84 507.83
  L 532.42 507.83
  A 1.05 1.05 0.0 0 0 531.37 508.88
  L 531.37 572.18
  A 1.05 1.05 0.0 0 0 532.42 573.23
  L 545.84 573.23
  A 1.05 1.05 0.0 0 0 546.89 572.18
  L 546.89 508.88"
/>
<path stroke="#031c32" vector-effect="non-scaling-stroke" d="
  M 639.96 555.91
  A 1.22 1.21 76.2 0 1 638.59 555.07
  L 624.11 509.33
  A 0.96 0.62 32.9 0 0 624.02 509.13
  Q 622.90 507.36 620.49 507.50
  Q 614.12 507.88 609.13 507.79
  A 1.70 1.69 -9.5 0 0 607.50 510.07
  L 631.43 575.07
  A 3.56 3.55 -44.3 0 1 631.39 577.62
  Q 628.78 584.02 623.10 588.75
  A 1.14 1.06 -69.8 0 1 622.63 588.99
  L 615.75 590.61
  A 1.79 1.79 0.0 0 0 614.39 592.55
  L 615.20 599.30
  A 2.73 2.73 0.0 0 0 618.04 601.71
  Q 622.61 601.49 628.27 600.05
  C 638.24 597.51 642.99 588.81 646.40 579.96
  Q 660.33 543.84 672.49 509.39
  A 1.27 1.27 0.0 0 0 671.29 507.70
  L 658.23 507.70
  A 1.73 1.72 8.4 0 0 656.58 508.92
  C 655.85 511.37 654.96 513.13 654.34 515.16
  Q 644.29 547.97 642.15 554.20
  Q 641.67 555.60 639.96 555.91"
/>
<path stroke="#031c32" vector-effect="non-scaling-stroke" d="
  M 579.8380 603.3157
  A 9.89 9.34 -12.7 0 0 568.1366 596.3785
  A 9.89 9.34 -12.7 0 0 560.5420 607.6643
  A 9.89 9.34 -12.7 0 0 572.2434 614.6015
  A 9.89 9.34 -12.7 0 0 579.8380 603.3157"
/>
<path stroke="#031c32" vector-effect="non-scaling-stroke" d="
  M 683.7954 604.3501
  A 10.01 9.28 -7.0 0 0 672.7291 596.3592
  A 10.01 9.28 -7.0 0 0 663.9246 606.7899
  A 10.01 9.28 -7.0 0 0 674.9909 614.7808
  A 10.01 9.28 -7.0 0 0 683.7954 604.3501"
/>
<path stroke="#031c32" vector-effect="non-scaling-stroke" d="
  M 519.12 673.96
  L 511.39 667.57
  A 0.91 0.90 -33.0 0 0 510.55 667.40
  C 506.40 668.68 505.15 672.19 501.53 673.98
  Q 494.92 677.26 487.82 677.66
  Q 484.76 677.84 481.30 677.00
  C 475.58 675.61 469.96 673.20 466.07 668.48
  C 456.28 656.58 455.21 638.97 462.94 625.53
  Q 466.87 618.71 474.36 614.83
  Q 490.03 606.70 505.86 618.31
  A 2.62 2.62 0.0 0 0 509.21 618.11
  Q 511.89 615.60 515.23 612.23
  Q 516.94 610.51 515.34 608.96
  C 509.47 603.26 502.88 599.85 494.68 598.59
  C 487.15 597.44 476.94 597.49 469.25 601.07
  Q 462.63 604.16 460.55 605.56
  Q 455.00 609.29 450.91 614.63
  C 439.10 630.11 438.15 651.11 446.31 668.39
  Q 448.72 673.48 452.39 677.30
  C 458.00 683.15 463.66 687.37 471.54 689.48
  C 477.76 691.15 482.56 692.44 488.85 691.71
  Q 494.94 691.00 497.48 690.44
  Q 510.96 687.49 519.42 677.05
  A 2.21 2.20 39.5 0 0 519.12 673.96"
/>
<path stroke="#031c32" vector-effect="non-scaling-stroke" d="
  M 546.7371 599.8235
  A 1.45 1.45 0.0 0 0 545.2896 598.3710
  L 532.7696 598.3491
  A 1.45 1.45 0.0 0 0 531.3171 599.7966
  L 531.1629 688.1165
  A 1.45 1.45 0.0 0 0 532.6104 689.5690
  L 545.1304 689.5909
  A 1.45 1.45 0.0 0 0 546.5829 688.1434
  L 546.7371 599.8235"
/>
<path stroke="#031c32" vector-effect="non-scaling-stroke" d="
  M 745.04 641.46
  L 746.39 640.68
  A 1.59 1.59 0.0 0 0 746.99 640.05
  L 750.71 632.89
  A 1.89 1.88 32.9 0 0 750.20 630.53
  Q 742.39 624.46 732.50 623.65
  Q 719.47 622.58 709.24 627.70
  C 702.54 631.05 697.16 638.54 695.22 645.32
  Q 693.06 652.86 693.27 660.32
  C 693.53 669.22 697.53 679.18 705.16 684.62
  Q 714.70 691.42 726.22 691.57
  C 735.38 691.69 745.10 689.27 751.26 682.49
  Q 752.74 680.87 751.46 679.07
  Q 750.05 677.06 748.25 673.59
  C 747.45 672.05 746.05 671.12 744.60 672.47
  C 738.12 678.47 729.63 679.86 721.69 677.00
  C 713.32 674.00 709.36 667.29 708.73 658.71
  Q 707.96 648.18 715.66 640.47
  C 720.54 635.59 729.49 634.32 735.60 637.43
  Q 740.26 639.79 743.66 641.50
  A 1.46 1.46 0.0 0 0 745.04 641.46"
/>
<path stroke="#031c32" vector-effect="non-scaling-stroke" d="
  M 577.00 689.44
  A 0.52 0.52 0.0 0 0 577.52 688.92
  L 577.52 625.61
  A 0.52 0.52 0.0 0 0 577.00 625.09
  L 562.60 625.09
  A 0.52 0.52 0.0 0 0 562.08 625.61
  L 562.08 688.92
  A 0.52 0.52 0.0 0 0 562.60 689.44
  L 577.00 689.44"
/>
<path stroke="#031c32" vector-effect="non-scaling-stroke" d="
  M 681.4449 625.5265
  A 0.69 0.69 0.0 0 0 680.7537 624.8377
  L 666.5937 624.8624
  A 0.69 0.69 0.0 0 0 665.9049 625.5536
  L 666.0151 688.6535
  A 0.69 0.69 0.0 0 0 666.7063 689.3423
  L 680.8663 689.3176
  A 0.69 0.69 0.0 0 0 681.5551 688.6264
  L 681.4449 625.5265"
/>
</g>
<path fill="#010103" d="
  M 100.82 395.58
  C 121.29 363.87 152.45 340.28 188.09 328.60
  Q 218.96 318.50 252.08 320.38
  C 295.40 322.84 336.82 341.87 366.12 373.93
  C 389.60 399.61 405.20 432.99 408.88 467.77
  Q 411.02 487.95 408.50 508.27
  Q 405.36 533.73 394.61 556.39
  Q 377.02 593.49 344.39 618.86
  C 313.84 642.62 277.46 654.51 238.86 653.72
  Q 222.41 653.39 207.78 650.35
  Q 163.99 641.27 129.84 610.15
  Q 92.19 575.83 80.09 527.67
  C 75.85 510.77 74.34 492.41 75.23 474.76
  Q 75.65 466.64 77.82 454.56
  Q 83.64 422.19 100.82 395.58
  Z
  M 286.08 327.39
  Q 280.91 325.70 278.92 325.33
  C 272.04 324.06 267.52 322.85 262.22 322.41
  Q 236.23 320.23 210.11 324.50
  Q 206.16 325.14 199.89 326.74
  Q 191.70 328.82 189.77 329.50
  Q 159.90 339.91 138.60 356.39
  Q 130.23 362.87 121.49 371.85
  Q 117.86 375.58 113.86 380.44
  Q 109.10 386.23 106.74 389.48
  Q 102.24 395.70 96.96 405.02
  Q 91.88 414.02 88.93 421.54
  Q 80.54 442.93 78.20 462.76
  C 77.79 466.21 77.21 468.88 77.00 471.69
  Q 74.97 498.81 81.18 525.59
  Q 82.30 530.43 84.62 537.32
  Q 88.10 547.63 88.64 548.90
  Q 91.86 556.49 97.47 567.20
  C 100.69 573.34 105.31 579.24 108.83 584.65
  Q 112.83 590.80 118.45 596.80
  Q 128.65 607.67 135.95 613.57
  C 149.25 624.33 162.84 633.18 178.21 639.68
  Q 190.82 645.01 211.55 649.63
  Q 222.70 652.11 238.25 652.13
  Q 256.02 652.14 269.67 650.05
  Q 278.96 648.62 287.21 646.23
  Q 297.16 643.35 304.22 640.43
  Q 315.90 635.61 329.21 627.70
  Q 337.20 622.95 343.78 617.56
  Q 353.93 609.24 357.32 606.06
  Q 368.07 595.97 378.88 580.64
  Q 398.52 552.80 405.37 519.43
  C 406.53 513.79 406.94 508.68 407.56 504.41
  Q 408.28 499.52 408.17 493.06
  Q 408.03 484.92 408.25 476.75
  Q 408.31 474.33 407.32 466.48
  Q 406.83 462.56 406.72 461.76
  Q 405.46 452.32 402.57 442.17
  Q 401.83 439.58 401.76 439.43
  C 400.70 437.21 400.70 435.40 399.64 432.63
  Q 393.60 416.95 391.14 412.33
  Q 378.52 388.55 362.32 371.69
  Q 344.16 352.79 318.62 339.91
  Q 307.71 334.40 299.54 331.46
  C 295.65 330.06 290.95 328.99 286.08 327.39
  Z"
/>
<path fill="#0e4979" d="
  M 286.08 327.39
  C 290.95 328.99 295.65 330.06 299.54 331.46
  Q 307.71 334.40 318.62 339.91
  Q 344.16 352.79 362.32 371.69
  Q 378.52 388.55 391.14 412.33
  Q 393.60 416.95 399.64 432.63
  C 400.70 435.40 400.70 437.21 401.76 439.43
  Q 401.83 439.58 402.57 442.17
  Q 405.46 452.32 406.72 461.76
  Q 406.83 462.56 407.32 466.48
  Q 408.31 474.33 408.25 476.75
  Q 408.03 484.92 408.17 493.06
  Q 408.28 499.52 407.56 504.41
  C 406.94 508.68 406.53 513.79 405.37 519.43
  Q 398.52 552.80 378.88 580.64
  Q 368.07 595.97 357.32 606.06
  Q 353.93 609.24 343.78 617.56
  Q 337.20 622.95 329.21 627.70
  Q 315.90 635.61 304.22 640.43
  Q 297.16 643.35 287.21 646.23
  Q 278.96 648.62 269.67 650.05
  Q 256.02 652.14 238.25 652.13
  Q 222.70 652.11 211.55 649.63
  Q 190.82 645.01 178.21 639.68
  C 162.84 633.18 149.25 624.33 135.95 613.57
  Q 128.65 607.67 118.45 596.80
  Q 112.83 590.80 108.83 584.65
  C 105.31 579.24 100.69 573.34 97.47 567.20
  Q 91.86 556.49 88.64 548.90
  Q 88.10 547.63 84.62 537.32
  Q 82.30 530.43 81.18 525.59
  Q 74.97 498.81 77.00 471.69
  C 77.21 468.88 77.79 466.21 78.20 462.76
  Q 80.54 442.93 88.93 421.54
  Q 91.88 414.02 96.96 405.02
  Q 102.24 395.70 106.74 389.48
  Q 109.10 386.23 113.86 380.44
  Q 117.86 375.58 121.49 371.85
  Q 130.23 362.87 138.60 356.39
  Q 159.90 339.91 189.77 329.50
  Q 191.70 328.82 199.89 326.74
  Q 206.16 325.14 210.11 324.50
  Q 236.23 320.23 262.22 322.41
  C 267.52 322.85 272.04 324.06 278.92 325.33
  Q 280.91 325.70 286.08 327.39
  Z
  M 140.94 599.64
  Q 147.31 605.53 157.73 612.74
  Q 179.76 627.97 205.82 634.62
  Q 214.37 636.80 228.79 638.10
  C 231.07 638.30 233.66 638.99 236.11 638.99
  Q 251.04 638.97 258.37 637.80
  C 262.56 637.13 265.33 636.94 269.17 636.20
  Q 281.71 633.76 290.00 630.96
  Q 296.85 628.64 305.86 624.55
  Q 313.28 621.17 320.87 616.35
  C 348.41 598.85 371.39 574.28 383.59 543.87
  Q 387.60 533.87 391.27 518.96
  C 392.53 513.89 392.82 507.97 393.90 502.75
  C 394.26 501.03 394.06 499.22 393.94 497.76
  A 6.90 6.66 47.6 0 1 393.98 496.29
  Q 395.46 485.87 394.85 479.99
  Q 394.40 475.70 393.53 468.02
  Q 393.51 467.81 392.85 462.39
  Q 391.47 451.09 386.26 436.62
  Q 386.21 436.49 384.21 431.02
  C 381.94 424.81 378.64 418.68 375.50 412.75
  Q 372.70 407.47 362.89 393.80
  C 359.94 389.69 356.71 386.72 353.91 383.25
  C 350.14 378.58 346.09 375.78 341.63 371.60
  C 337.80 368.00 333.35 365.27 329.27 362.10
  Q 326.38 359.85 322.29 357.45
  Q 297.94 343.13 270.24 337.67
  C 266.47 336.92 263.46 337.15 260.20 336.62
  Q 256.36 335.98 252.63 336.01
  Q 252.00 336.02 245.00 335.47
  C 237.39 334.87 227.79 335.43 219.09 336.78
  Q 196.54 340.29 176.77 349.84
  Q 160.56 357.67 154.73 362.05
  Q 143.26 370.67 136.56 376.82
  Q 134.70 378.53 128.70 384.65
  A 8.12 8.07 83.5 0 0 127.61 386.03
  C 125.34 389.68 121.81 392.71 119.42 395.99
  Q 99.12 423.93 93.27 454.78
  Q 91.26 465.36 90.53 483.00
  C 90.30 488.55 91.23 493.49 91.12 497.97
  Q 91.03 501.88 91.91 505.98
  Q 91.91 505.99 93.10 513.97
  Q 93.74 518.19 97.30 532.24
  Q 97.84 534.36 102.37 545.89
  C 105.17 553.01 109.27 560.11 112.80 566.22
  Q 118.42 575.94 126.07 584.51
  Q 134.32 593.75 137.70 596.68
  Q 138.21 597.12 140.94 599.64
  Z"
/>
<path fill="#010103" d="
  M 140.94 599.64
  Q 138.21 597.12 137.70 596.68
  Q 134.32 593.75 126.07 584.51
  Q 118.42 575.94 112.80 566.22
  C 109.27 560.11 105.17 553.01 102.37 545.89
  Q 97.84 534.36 97.30 532.24
  Q 93.74 518.19 93.10 513.97
  Q 91.91 505.99 91.91 505.98
  Q 91.03 501.88 91.12 497.97
  C 91.23 493.49 90.30 488.55 90.53 483.00
  Q 91.26 465.36 93.27 454.78
  Q 99.12 423.93 119.42 395.99
  C 121.81 392.71 125.34 389.68 127.61 386.03
  A 8.12 8.07 83.5 0 1 128.70 384.65
  Q 134.70 378.53 136.56 376.82
  Q 143.26 370.67 154.73 362.05
  Q 160.56 357.67 176.77 349.84
  Q 196.54 340.29 219.09 336.78
  C 227.79 335.43 237.39 334.87 245.00 335.47
  Q 252.00 336.02 252.63 336.01
  Q 256.36 335.98 260.20 336.62
  C 263.46 337.15 266.47 336.92 270.24 337.67
  Q 297.94 343.13 322.29 357.45
  Q 326.38 359.85 329.27 362.10
  C 333.35 365.27 337.80 368.00 341.63 371.60
  C 346.09 375.78 350.14 378.58 353.91 383.25
  C 356.71 386.72 359.94 389.69 362.89 393.80
  Q 372.70 407.47 375.50 412.75
  C 378.64 418.68 381.94 424.81 384.21 431.02
  Q 386.21 436.49 386.26 436.62
  Q 391.47 451.09 392.85 462.39
  Q 393.51 467.81 393.53 468.02
  Q 394.40 475.70 394.85 479.99
  Q 395.46 485.87 393.98 496.29
  A 6.90 6.66 47.6 0 0 393.94 497.76
  C 394.06 499.22 394.26 501.03 393.90 502.75
  C 392.82 507.97 392.53 513.89 391.27 518.96
  Q 387.60 533.87 383.59 543.87
  C 371.39 574.28 348.41 598.85 320.87 616.35
  Q 313.28 621.17 305.86 624.55
  Q 296.85 628.64 290.00 630.96
  Q 281.71 633.76 269.17 636.20
  C 265.33 636.94 262.56 637.13 258.37 637.80
  Q 251.04 638.97 236.11 638.99
  C 233.66 638.99 231.07 638.30 228.79 638.10
  Q 214.37 636.80 205.82 634.62
  Q 179.76 627.97 157.73 612.74
  Q 147.31 605.53 140.94 599.64
  Z
  M 112.20 409.46
  C 96.53 435.70 90.54 463.96 92.08 494.18
  C 94.83 547.90 124.57 594.22 171.92 619.82
  Q 199.48 634.72 231.26 636.98
  Q 237.33 637.42 253.76 636.95
  C 256.79 636.87 258.93 636.17 261.84 636.03
  Q 263.24 635.96 267.89 635.09
  Q 304.52 628.29 334.01 605.26
  Q 355.29 588.65 368.92 568.19
  Q 386.44 541.87 391.56 508.38
  Q 391.80 506.82 392.50 499.81
  C 393.29 491.94 393.10 483.86 392.93 476.82
  C 392.87 474.14 392.15 471.92 392.07 469.51
  Q 392.00 467.19 391.50 464.03
  C 386.33 431.39 370.22 400.96 346.82 378.01
  Q 340.34 371.66 332.21 365.90
  Q 286.72 333.68 230.79 337.23
  Q 206.73 338.76 181.62 349.21
  Q 159.70 358.32 142.24 373.91
  Q 123.37 390.76 112.20 409.46
  Z"
/>
<path fill="#489968" d="
  M 345.70 403.94
  Q 346.48 404.38 346.80 403.87
  L 351.71 403.72
  Q 352.21 403.90 352.79 403.72
  C 358.68 404.50 356.91 413.30 354.34 416.38
  C 349.42 422.29 342.20 422.92 334.75 422.00
  C 322.86 420.53 311.45 417.20 301.47 413.86
  A 0.40 0.40 0.0 0 0 301.04 414.49
  Q 302.75 416.55 305.77 417.71
  Q 314.52 421.08 323.88 423.37
  Q 328.19 424.42 328.69 424.74
  A 1.88 1.84 64.1 0 0 329.47 425.02
  Q 332.70 425.37 332.15 428.86
  A 1.63 1.60 70.1 0 1 331.78 429.67
  Q 330.76 430.89 329.17 431.42
  Q 321.53 433.98 313.52 433.00
  Q 299.64 431.30 288.16 423.69
  A 0.36 0.35 88.4 0 0 287.68 424.20
  Q 289.11 426.11 291.08 427.44
  Q 298.59 432.50 305.96 435.18
  A 0.53 0.53 0.0 0 1 306.27 435.89
  Q 305.32 438.01 304.95 438.25
  Q 297.07 443.49 287.83 442.16
  C 282.58 441.41 276.00 437.70 271.39 434.79
  A 0.29 0.29 0.0 0 0 270.98 435.16
  Q 272.30 437.89 274.61 440.20
  A 1.59 1.55 -72.5 0 1 275.05 441.07
  Q 275.38 443.14 273.43 443.70
  A 2.05 1.99 39.2 0 1 272.61 443.77
  Q 259.68 442.26 253.04 431.51
  A 0.51 0.50 33.2 0 0 252.11 431.70
  C 252.01 432.39 252.39 432.95 252.40 433.63
  Q 252.62 464.55 253.07 470.17
  Q 253.26 472.64 256.10 480.68
  Q 255.83 481.06 256.21 481.76
  Q 256.21 481.89 256.21 482.03
  Q 256.08 482.65 256.29 483.30
  Q 255.25 484.01 253.86 484.03
  Q 242.67 484.19 233.53 483.87
  A 0.76 0.75 -1.8 0 1 232.81 483.20
  C 232.57 481.06 233.62 479.98 234.17 478.18
  Q 236.54 470.33 236.61 466.50
  Q 236.91 449.07 236.84 431.33
  A 0.32 0.32 0.0 0 0 236.33 431.07
  Q 235.40 431.74 235.05 432.31
  Q 232.25 436.91 228.22 439.40
  Q 222.01 443.23 215.77 444.09
  A 1.60 1.59 89.4 0 1 213.97 442.32
  L 214.28 439.74
  A 0.66 0.66 0.0 0 1 214.47 439.33
  L 218.61 434.80
  A 0.54 0.54 0.0 0 0 217.97 433.96
  C 210.66 437.65 206.97 439.65 199.54 441.72
  Q 190.82 444.15 181.59 440.33
  C 179.92 439.63 178.84 438.51 178.21 437.14
  A 1.32 1.31 67.6 0 1 178.95 435.35
  Q 186.55 432.54 193.55 428.86
  Q 195.10 428.05 198.79 424.13
  A 0.51 0.51 0.0 0 0 198.78 423.42
  L 198.58 423.22
  A 0.26 0.26 0.0 0 0 198.21 423.21
  Q 194.48 426.57 184.60 430.39
  Q 177.54 433.12 167.77 433.22
  C 164.03 433.26 158.73 432.56 156.84 428.81
  A 2.06 2.06 0.0 0 1 157.84 426.00
  L 160.36 424.88
  A 2.88 2.70 25.0 0 1 160.88 424.71
  Q 165.90 423.70 168.73 422.95
  Q 178.64 420.33 187.74 415.00
  Q 189.06 414.23 189.80 413.45
  A 0.31 0.31 0.0 0 0 189.47 412.95
  Q 180.90 415.99 171.42 418.85
  Q 159.81 422.34 148.00 422.31
  C 138.23 422.29 128.85 417.98 132.48 405.89
  A 2.53 2.52 7.3 0 1 134.82 404.09
  L 140.21 403.88
  Q 140.76 404.25 141.50 403.95
  Q 148.32 403.80 153.50 402.53
  Q 163.58 400.08 170.38 397.12
  Q 182.67 391.79 184.31 391.08
  Q 190.41 388.45 195.80 387.35
  Q 198.43 386.81 203.76 387.11
  Q 208.06 387.36 212.32 391.09
  A 0.98 0.93 -88.6 0 1 212.51 391.30
  L 216.39 397.07
  A 0.75 0.47 31.7 0 1 216.44 397.17
  C 218.77 402.89 220.12 406.69 225.61 408.90
  Q 230.75 410.97 236.26 411.44
  A 0.60 0.59 1.3 0 0 236.91 410.83
  Q 236.78 407.39 235.67 404.34
  Q 235.45 403.74 232.82 401.39
  A 3.24 3.01 -10.2 0 0 232.01 400.87
  C 228.37 399.25 222.01 396.15 220.50 392.23
  A 2.15 2.14 76.1 0 1 222.25 389.32
  L 226.15 388.85
  A 0.67 0.66 -10.1 0 0 226.72 388.04
  C 224.59 379.04 227.42 369.77 235.88 364.96
  Q 240.58 362.28 246.53 363.11
  Q 251.92 363.86 256.38 367.79
  C 261.71 372.49 262.46 381.75 261.93 388.26
  A 0.73 0.73 0.0 0 0 262.70 389.05
  Q 266.65 388.82 267.81 391.48
  A 1.03 1.01 42.4 0 1 267.85 392.21
  Q 267.00 394.89 265.96 395.46
  Q 259.89 398.78 256.57 400.34
  A 3.78 3.27 8.5 0 0 255.89 400.77
  Q 251.30 404.46 251.98 410.77
  A 0.70 0.70 0.0 0 0 252.74 411.39
  Q 261.05 410.58 266.74 405.81
  A 5.77 5.64 86.5 0 0 267.91 404.46
  C 270.36 400.53 272.21 394.62 275.27 391.49
  Q 281.13 385.48 290.69 387.21
  C 298.58 388.64 305.13 391.59 314.48 395.67
  Q 327.97 401.54 339.38 403.69
  Q 340.67 403.93 345.70 403.94
  Z"
/>
<path fill="#010103" d="
  M 499.38 406.48
  Q 512.43 411.69 513.98 424.56
  C 516.14 442.59 502.12 454.12 485.25 454.53
  Q 471.58 454.86 447.57 454.65
  A 0.53 0.53 0.0 0 1 447.04 454.12
  L 447.04 363.66
  A 0.57 0.57 0.0 0 1 447.61 363.09
  L 487.64 363.09
  A 3.40 3.09 47.8 0 1 488.26 363.15
  Q 491.02 363.70 493.40 364.26
  Q 503.08 366.51 508.59 374.13
  Q 510.83 377.23 511.63 381.83
  Q 513.97 395.29 503.96 403.43
  C 502.42 404.67 500.56 404.83 499.29 405.85
  A 0.37 0.37 0.0 0 0 499.38 406.48
  Z
  M 498.84 407.41
  Q 498.03 406.82 498.23 405.68
  Q 498.48 404.25 499.91 403.97
  A 1.77 1.56 -59.9 0 0 500.30 403.84
  Q 510.63 398.54 511.03 387.29
  C 511.13 384.40 509.93 379.87 509.21 377.68
  A 4.89 4.66 21.8 0 0 508.79 376.76
  Q 505.65 371.45 500.30 368.22
  Q 499.38 367.67 492.64 364.99
  A 3.26 3.23 -31.2 0 0 491.64 364.75
  Q 486.99 364.33 484.51 364.35
  Q 456.61 364.68 449.31 364.58
  A 1.02 1.01 0.3 0 0 448.28 365.59
  L 448.28 451.57
  A 1.73 1.72 -0.3 0 0 450.03 453.29
  Q 467.87 453.05 485.73 452.90
  Q 494.41 452.83 501.88 448.40
  C 511.62 442.62 514.01 432.47 511.91 421.61
  Q 510.61 414.91 504.59 411.19
  Q 500.92 408.93 498.84 407.41
  Z"
/>
<path fill="#053661" d="
  M 498.84 407.41
  Q 500.92 408.93 504.59 411.19
  Q 510.61 414.91 511.91 421.61
  C 514.01 432.47 511.62 442.62 501.88 448.40
  Q 494.41 452.83 485.73 452.90
  Q 467.87 453.05 450.03 453.29
  A 1.73 1.72 -0.3 0 1 448.28 451.57
  L 448.28 365.59
  A 1.02 1.01 0.3 0 1 449.31 364.58
  Q 456.61 364.68 484.51 364.35
  Q 486.99 364.33 491.64 364.75
  A 3.26 3.23 -31.2 0 1 492.64 364.99
  Q 499.38 367.67 500.30 368.22
  Q 505.65 371.45 508.79 376.76
  A 4.89 4.66 21.8 0 1 509.21 377.68
  C 509.93 379.87 511.13 384.40 511.03 387.29
  Q 510.63 398.54 500.30 403.84
  A 1.77 1.56 -59.9 0 1 499.91 403.97
  Q 498.48 404.25 498.23 405.68
  Q 498.03 406.82 498.84 407.41
  Z
  M 464.11 378.95
  L 464.21 399.37
  A 1.97 1.97 0.0 0 0 466.19 401.33
  L 481.29 401.25
  A 13.69 11.54 -0.3 0 0 494.92 389.64
  L 494.92 388.36
  A 13.69 11.54 -0.3 0 0 481.17 376.89
  L 466.07 376.97
  A 1.97 1.97 0.0 0 0 464.11 378.95
  Z
  M 464.16 415.09
  L 464.12 438.83
  A 2.11 2.11 0.0 0 0 466.23 440.95
  L 481.15 440.97
  A 15.47 13.51 0.1 0 0 496.64 427.49
  L 496.64 426.55
  A 15.47 13.51 0.1 0 0 481.19 413.01
  L 466.27 412.99
  A 2.11 2.11 0.0 0 0 464.16 415.09
  Z"
/>
<path fill="#010103" d="
  M 464.11 378.95
  A 1.97 1.97 0.0 0 1 466.07 376.97
  L 481.17 376.89
  A 13.69 11.54 -0.3 0 1 494.92 388.36
  L 494.92 389.64
  A 13.69 11.54 -0.3 0 1 481.29 401.25
  L 466.19 401.33
  A 1.97 1.97 0.0 0 1 464.21 399.37
  L 464.11 378.95
  Z
  M 465.27 378.87
  L 465.35 399.45
  A 0.58 0.58 0.0 0 0 465.93 400.03
  L 481.22 399.97
  A 11.93 9.77 -0.2 0 0 493.11 390.16
  L 493.11 387.96
  A 11.93 9.77 -0.2 0 0 481.14 378.23
  L 465.85 378.29
  A 0.58 0.58 0.0 0 0 465.27 378.87
  Z"
/>
<path fill="#010103" d="
  M 563.73 446.21
  Q 564.12 446.00 564.48 446.17
  A 0.37 0.37 0.0 0 1 564.69 446.47
  L 565.28 451.42
  A 2.04 2.03 86.5 0 0 567.30 453.21
  L 578.34 453.21
  A 1.58 1.58 0.0 0 0 579.92 451.60
  Q 579.57 435.37 579.79 421.65
  Q 579.85 417.95 579.50 413.87
  C 578.91 407.04 578.52 403.19 575.29 397.88
  C 572.58 393.42 565.55 389.22 561.00 388.67
  Q 556.44 388.11 547.41 388.57
  C 541.80 388.86 535.28 390.76 530.48 393.24
  Q 525.97 395.56 528.89 399.58
  Q 530.48 401.75 531.60 403.82
  A 1.31 1.29 -26.2 0 0 533.28 404.38
  Q 538.80 401.86 545.22 400.74
  Q 552.15 399.52 556.23 401.10
  Q 561.55 403.15 563.68 409.17
  A 2.94 2.84 -56.1 0 1 563.84 410.06
  Q 563.88 412.19 561.78 413.73
  A 1.60 1.58 28.3 0 1 560.72 414.04
  C 553.69 413.54 548.16 414.69 540.82 416.33
  Q 534.55 417.74 528.52 422.47
  A 4.13 4.08 89.7 0 0 527.70 423.31
  Q 523.87 428.53 523.57 435.28
  Q 523.27 441.87 526.88 446.89
  C 530.60 452.07 537.82 455.05 543.76 454.67
  Q 549.79 454.28 551.75 453.75
  Q 557.08 452.32 561.01 447.32
  A 0.65 0.64 -32.8 0 1 562.15 447.56
  L 562.27 448.02
  Q 556.58 454.98 547.49 455.99
  C 545.18 456.25 539.70 456.26 536.89 455.45
  C 528.28 452.96 522.80 446.69 522.12 437.58
  Q 521.32 426.93 529.11 420.31
  Q 534.19 415.99 544.56 413.83
  Q 553.19 412.03 561.41 412.33
  A 1.23 1.23 0.0 0 0 562.65 410.86
  Q 560.93 402.32 552.49 401.82
  Q 541.75 401.19 532.90 407.23
  A 1.11 1.10 60.9 0 1 531.27 406.76
  L 526.17 395.29
  A 0.59 0.58 -29.8 0 1 526.37 394.57
  C 532.09 390.63 538.80 388.22 545.24 387.27
  Q 548.38 386.80 555.08 386.90
  Q 560.72 386.98 564.75 388.41
  C 578.09 393.17 581.12 405.13 581.08 418.00
  Q 581.01 440.38 581.24 453.75
  A 0.99 0.98 89.7 0 1 580.26 454.75
  L 565.11 454.75
  A 0.98 0.98 0.0 0 1 564.13 453.81
  L 563.73 446.21
  Z"
/>
<path fill="#010103" d="
  M 654.70 416.48
  C 654.97 414.68 655.09 412.72 655.54 411.25
  Q 662.07 390.04 684.13 386.96
  C 695.66 385.36 707.41 389.10 714.98 398.28
  C 721.24 405.86 723.72 416.43 722.21 426.27
  C 721.93 428.06 721.81 430.02 721.35 431.50
  Q 714.83 452.70 692.77 455.78
  C 681.24 457.38 669.49 453.64 661.92 444.47
  C 655.65 436.88 653.18 426.32 654.70 416.48
  Z
  M 720.8368 416.9564
  A 29.65 29.65 0.0 0 0 690.1700 388.3592
  L 684.3936 388.5609
  A 29.65 29.65 0.0 0 0 655.7964 419.2276
  L 656.0232 425.7236
  A 29.65 29.65 0.0 0 0 686.6900 454.3208
  L 692.4664 454.1191
  A 29.65 29.65 0.0 0 0 721.0636 423.4524
  L 720.8368 416.9564
  Z"
/>
<path fill="#053661" d="
  M 563.73 446.21
  L 562.27 448.02
  L 562.15 447.56
  A 0.65 0.64 -32.8 0 0 561.01 447.32
  Q 557.08 452.32 551.75 453.75
  Q 549.79 454.28 543.76 454.67
  C 537.82 455.05 530.60 452.07 526.88 446.89
  Q 523.27 441.87 523.57 435.28
  Q 523.87 428.53 527.70 423.31
  A 4.13 4.08 89.7 0 1 528.52 422.47
  Q 534.55 417.74 540.82 416.33
  C 548.16 414.69 553.69 413.54 560.72 414.04
  A 1.60 1.58 28.3 0 0 561.78 413.73
  Q 563.88 412.19 563.84 410.06
  A 2.94 2.84 -56.1 0 0 563.68 409.17
  Q 561.55 403.15 556.23 401.10
  Q 552.15 399.52 545.22 400.74
  Q 538.80 401.86 533.28 404.38
  A 1.31 1.29 -26.2 0 1 531.60 403.82
  Q 530.48 401.75 528.89 399.58
  Q 525.97 395.56 530.48 393.24
  C 535.28 390.76 541.80 388.86 547.41 388.57
  Q 556.44 388.11 561.00 388.67
  C 565.55 389.22 572.58 393.42 575.29 397.88
  C 578.52 403.19 578.91 407.04 579.50 413.87
  Q 579.85 417.95 579.79 421.65
  Q 579.57 435.37 579.92 451.60
  A 1.58 1.58 0.0 0 1 578.34 453.21
  L 567.30 453.21
  A 2.04 2.03 86.5 0 1 565.28 451.42
  L 564.69 446.47
  A 0.37 0.37 0.0 0 0 564.48 446.17
  Q 564.12 446.00 563.73 446.21
  Z
  M 563.89 423.52
  Q 562.48 422.70 560.80 422.64
  Q 551.63 422.33 543.59 426.30
  A 3.76 3.47 -78.3 0 0 542.68 426.95
  C 537.95 431.63 536.28 437.75 542.33 442.19
  A 3.14 2.97 69.5 0 0 543.33 442.68
  Q 551.62 445.06 559.28 440.24
  Q 562.86 437.98 563.94 434.00
  A 1.14 0.94 -39.3 0 0 563.98 433.80
  L 564.74 425.15
  A 1.72 1.69 17.8 0 0 563.89 423.52
  Z"
/>
<path fill="#053661" d="
  M 721.0636 423.4524
  A 29.65 29.65 0.0 0 1 692.4664 454.1191
  L 686.6900 454.3208
  A 29.65 29.65 0.0 0 1 656.0232 425.7236
  L 655.7964 419.2276
  A 29.65 29.65 0.0 0 1 684.3936 388.5609
  L 690.1700 388.3592
  A 29.65 29.65 0.0 0 1 720.8368 416.9564
  L 721.0636 423.4524
  Z
  M 688.2179 442.1274
  A 21.14 17.98 90.9 0 0 706.5278 421.2724
  A 21.14 17.98 90.9 0 0 688.8821 399.8526
  A 21.14 17.98 90.9 0 0 670.5722 420.7076
  A 21.14 17.98 90.9 0 0 688.2179 442.1274
  Z"
/>
<path fill="#010103" d="
  M 618.95 435.53
  Q 616.54 436.03 616.08 430.62
  A 3.46 3.44 -56.2 0 0 615.92 429.80
  Q 609.35 409.57 603.73 392.80
  C 603.08 390.87 601.91 389.99 599.84 390.03
  Q 594.63 390.13 588.04 390.42
  A 1.31 1.30 -11.3 0 0 586.87 392.17
  Q 596.84 419.63 608.14 448.12
  Q 608.65 449.42 609.97 454.47
  A 3.18 3.07 -47.2 0 1 610.00 455.93
  Q 607.44 467.80 595.19 468.58
  A 1.72 1.72 0.0 0 0 593.58 470.50
  L 594.51 478.32
  A 2.30 2.29 -3.5 0 0 596.80 480.34
  C 600.08 480.32 605.66 480.35 609.04 478.94
  C 617.33 475.47 623.18 467.30 625.80 459.12
  Q 627.11 455.02 628.62 451.18
  Q 638.42 426.13 647.17 401.78
  C 648.27 398.71 649.58 395.91 650.99 392.01
  A 1.45 1.45 0.0 0 0 649.62 390.07
  L 636.75 390.07
  A 2.98 2.98 0.0 0 0 633.91 392.15
  Q 629.25 406.97 628.24 410.56
  Q 627.07 414.72 625.51 418.93
  Q 624.34 422.11 623.14 427.40
  Q 622.81 428.90 620.72 435.84
  A 0.41 0.40 26.2 0 1 620.09 436.05
  L 619.41 435.56
  L 633.57 389.39
  A 1.00 0.99 -81.2 0 1 634.52 388.69
  L 652.85 388.69
  A 0.46 0.45 -79.3 0 1 653.27 389.31
  Q 644.74 411.84 627.37 458.61
  Q 626.27 461.59 623.16 467.67
  Q 620.34 473.19 615.39 476.82
  C 609.77 480.94 601.93 481.96 595.00 482.03
  A 1.47 1.47 0.0 0 1 593.53 480.73
  L 592.04 468.21
  A 1.06 1.05 -1.3 0 1 593.17 467.03
  Q 606.02 468.04 608.92 455.35
  A 1.14 1.08 -50.0 0 0 608.88 454.73
  L 584.12 389.20
  A 0.36 0.36 0.0 0 1 584.46 388.71
  L 602.86 388.71
  A 1.07 1.07 0.0 0 1 603.88 389.45
  L 618.95 435.53
  Z"
/>
<path fill="#010103" d="
  M 774.32 448.24
  Q 775.78 447.74 775.88 448.73
  Q 776.06 450.41 776.20 451.70
  A 1.50 1.49 -2.7 0 0 777.69 453.05
  L 788.81 453.05
  A 1.33 1.33 0.0 0 0 790.14 451.72
  L 790.14 391.78
  A 1.64 1.64 0.0 0 0 788.50 390.14
  L 777.33 390.14
  A 2.05 2.05 0.0 0 0 775.28 392.19
  Q 775.32 404.93 775.06 426.43
  Q 774.96 434.30 768.91 438.99
  A 4.37 4.35 -76.1 0 1 768.05 439.51
  C 763.36 441.72 755.30 442.08 751.25 438.40
  C 746.81 434.36 746.02 427.41 746.07 421.50
  Q 746.13 415.85 746.11 391.69
  A 1.40 1.40 0.0 0 0 744.71 390.29
  L 733.20 390.29
  A 1.56 1.55 89.8 0 0 731.65 391.86
  Q 731.73 411.94 731.49 429.39
  C 731.43 433.18 732.08 436.01 733.15 439.68
  Q 736.87 452.49 750.55 454.47
  Q 763.18 456.31 772.28 447.61
  Q 772.59 447.32 772.91 447.37
  Q 773.26 447.43 773.58 447.65
  Q 768.71 453.73 761.69 455.42
  Q 755.17 456.99 747.33 455.39
  Q 738.57 453.60 733.35 444.43
  Q 731.92 441.92 730.68 435.92
  Q 729.99 432.62 730.02 427.03
  Q 730.09 408.77 730.02 389.29
  A 0.55 0.54 90.0 0 1 730.56 388.74
  L 747.28 388.74
  A 0.62 0.62 0.0 0 1 747.90 389.36
  Q 747.88 393.69 747.87 422.44
  Q 747.87 427.17 748.39 429.97
  C 749.39 435.39 753.08 439.62 758.37 439.95
  Q 768.45 440.57 772.06 433.45
  Q 773.82 429.98 773.74 418.76
  Q 773.57 395.92 773.75 389.34
  A 0.58 0.58 0.0 0 1 774.33 388.78
  L 790.83 388.78
  A 0.70 0.69 -0.0 0 1 791.53 389.47
  L 791.53 453.95
  A 0.83 0.83 0.0 0 1 790.70 454.78
  L 775.35 454.78
  A 0.54 0.54 0.0 0 1 774.81 454.28
  L 774.32 448.24
  Z"
/>
<path fill="#053661" d="
  M 618.95 435.53
  Q 619.18 435.55 619.41 435.56
  L 620.09 436.05
  A 0.41 0.40 26.2 0 0 620.72 435.84
  Q 622.81 428.90 623.14 427.40
  Q 624.34 422.11 625.51 418.93
  Q 627.07 414.72 628.24 410.56
  Q 629.25 406.97 633.91 392.15
  A 2.98 2.98 0.0 0 1 636.75 390.07
  L 649.62 390.07
  A 1.45 1.45 0.0 0 1 650.99 392.01
  C 649.58 395.91 648.27 398.71 647.17 401.78
  Q 638.42 426.13 628.62 451.18
  Q 627.11 455.02 625.80 459.12
  C 623.18 467.30 617.33 475.47 609.04 478.94
  C 605.66 480.35 600.08 480.32 596.80 480.34
  A 2.30 2.29 -3.5 0 1 594.51 478.32
  L 593.58 470.50
  A 1.72 1.72 0.0 0 1 595.19 468.58
  Q 607.44 467.80 610.00 455.93
  A 3.18 3.07 -47.2 0 0 609.97 454.47
  Q 608.65 449.42 608.14 448.12
  Q 596.84 419.63 586.87 392.17
  A 1.31 1.30 -11.3 0 1 588.04 390.42
  Q 594.63 390.13 599.84 390.03
  C 601.91 389.99 603.08 390.87 603.73 392.80
  Q 609.35 409.57 615.92 429.80
  A 3.46 3.44 -56.2 0 1 616.08 430.62
  Q 616.54 436.03 618.95 435.53
  Z"
/>
<path fill="#053661" d="
  M 774.32 448.24
  Q 774.01 447.40 773.58 447.65
  Q 773.26 447.43 772.91 447.37
  Q 772.59 447.32 772.28 447.61
  Q 763.18 456.31 750.55 454.47
  Q 736.87 452.49 733.15 439.68
  C 732.08 436.01 731.43 433.18 731.49 429.39
  Q 731.73 411.94 731.65 391.86
  A 1.56 1.55 89.8 0 1 733.20 390.29
  L 744.71 390.29
  A 1.40 1.40 0.0 0 1 746.11 391.69
  Q 746.13 415.85 746.07 421.50
  C 746.02 427.41 746.81 434.36 751.25 438.40
  C 755.30 442.08 763.36 441.72 768.05 439.51
  A 4.37 4.35 -76.1 0 0 768.91 438.99
  Q 774.96 434.30 775.06 426.43
  Q 775.32 404.93 775.28 392.19
  A 2.05 2.05 0.0 0 1 777.33 390.14
  L 788.50 390.14
  A 1.64 1.64 0.0 0 1 790.14 391.78
  L 790.14 451.72
  A 1.33 1.33 0.0 0 1 788.81 453.05
  L 777.69 453.05
  A 1.50 1.49 -2.7 0 1 776.20 451.70
  Q 776.06 450.41 775.88 448.73
  Q 775.78 447.74 774.32 448.24
  Z"
/>
<path fill="#010103" d="
  M 688.2179 442.1274
  A 21.14 17.98 90.9 0 1 670.5722 420.7076
  A 21.14 17.98 90.9 0 1 688.8821 399.8526
  A 21.14 17.98 90.9 0 1 706.5278 421.2724
  A 21.14 17.98 90.9 0 1 688.2179 442.1274
  Z
  M 688.3427 440.7795
  A 19.66 16.70 90.4 0 0 705.1796 421.2366
  A 19.66 16.70 90.4 0 0 688.6173 401.4605
  A 19.66 16.70 90.4 0 0 671.7804 421.0034
  A 19.66 16.70 90.4 0 0 688.3427 440.7795
  Z"
/>
<path fill="#010103" d="
  M 352.79 403.72
  Q 352.21 403.90 351.71 403.72
  Q 352.26 403.51 352.79 403.72
  Z"
/>
<path fill="#053661" d="
  M 141.50 403.95
  Q 140.76 404.25 140.21 403.88
  L 141.50 403.95
  Z"
/>
<path fill="#053661" d="
  M 346.80 403.87
  Q 346.48 404.38 345.70 403.94
  L 346.80 403.87
  Z"
/>
<path fill="#010103" d="
  M 464.16 415.09
  A 2.11 2.11 0.0 0 1 466.27 412.99
  L 481.19 413.01
  A 15.47 13.51 0.1 0 1 496.64 426.55
  L 496.64 427.49
  A 15.47 13.51 0.1 0 1 481.15 440.97
  L 466.23 440.95
  A 2.11 2.11 0.0 0 1 464.12 438.83
  L 464.16 415.09
  Z
  M 465.32 415.14
  L 465.40 439.28
  A 0.41 0.41 0.0 0 0 465.81 439.69
  L 482.06 439.63
  A 12.86 11.64 -0.2 0 0 494.88 427.95
  L 494.88 426.27
  A 12.86 11.64 -0.2 0 0 481.98 414.67
  L 465.73 414.73
  A 0.41 0.41 0.0 0 0 465.32 415.14
  Z"
/>
<path fill="#010103" d="
  M 563.89 423.52
  A 1.72 1.69 17.8 0 1 564.74 425.15
  L 563.98 433.80
  A 1.14 0.94 -39.3 0 1 563.94 434.00
  Q 562.86 437.98 559.28 440.24
  Q 551.62 445.06 543.33 442.68
  A 3.14 2.97 69.5 0 1 542.33 442.19
  C 536.28 437.75 537.95 431.63 542.68 426.95
  A 3.76 3.47 -78.3 0 1 543.59 426.30
  Q 551.63 422.33 560.80 422.64
  Q 562.48 422.70 563.89 423.52
  Z
  M 562.53 424.11
  Q 554.21 423.86 546.50 426.44
  Q 542.45 427.79 540.95 431.06
  C 538.72 435.91 540.58 441.06 546.24 441.95
  C 553.64 443.11 561.96 439.48 562.71 431.21
  Q 563.15 426.49 563.01 424.57
  A 0.49 0.49 0.0 0 0 562.53 424.11
  Z"
/>
<path fill="#489968" d="
  M 261.33 608.96
  L 259.22 608.78
  C 257.40 606.11 255.39 602.69 253.17 600.79
  C 249.91 598.01 244.87 595.62 240.54 597.55
  C 234.72 600.14 232.53 603.54 229.35 608.76
  L 227.23 609.03
  L 226.46 606.92
  Q 226.09 598.65 233.22 593.97
  Q 234.42 593.19 235.42 592.13
  A 0.41 0.41 0.0 0 0 235.33 591.49
  Q 226.06 586.17 223.11 576.06
  C 220.56 567.32 223.79 556.98 230.44 550.81
  A 0.54 0.54 0.0 0 0 230.33 549.94
  Q 222.43 545.63 221.41 544.77
  Q 205.02 531.04 212.44 510.20
  Q 213.53 507.16 219.45 500.14
  A 0.42 0.41 34.8 0 0 219.33 499.51
  Q 216.09 497.69 216.05 497.67
  C 204.01 492.80 188.04 481.38 190.04 466.28
  C 191.44 455.65 201.39 450.48 211.25 451.18
  Q 211.81 451.22 215.60 451.85
  C 220.45 452.64 227.42 456.38 229.22 461.38
  C 230.16 464.02 226.77 467.19 224.93 468.86
  A 0.92 0.89 -65.1 0 1 224.33 469.09
  L 221.26 469.09
  A 1.19 1.15 -21.4 0 1 220.42 468.74
  C 218.13 466.36 214.02 463.06 210.62 464.31
  Q 207.29 465.54 206.42 469.76
  A 2.54 2.50 42.6 0 0 206.48 470.97
  Q 208.55 477.65 214.93 482.16
  Q 225.01 489.29 238.26 491.92
  Q 243.41 492.94 248.79 491.80
  Q 262.45 488.93 272.19 481.92
  C 276.24 479.01 279.74 475.58 280.61 470.55
  A 2.59 2.43 -46.8 0 0 280.61 469.66
  Q 279.55 463.96 274.41 464.04
  A 2.92 2.81 -54.2 0 0 273.53 464.20
  Q 269.25 465.74 266.85 468.53
  A 1.87 1.85 -71.4 0 1 265.60 469.16
  Q 263.45 469.33 261.04 468.45
  A 0.85 0.84 82.2 0 1 260.65 468.15
  L 257.76 463.97
  A 1.22 1.20 -58.4 0 1 257.56 463.08
  Q 258.34 458.43 261.34 456.29
  Q 272.00 448.70 284.78 452.16
  Q 290.75 453.78 294.30 459.29
  C 299.53 467.40 297.12 477.62 290.70 484.51
  Q 281.95 493.90 269.38 498.43
  A 1.21 1.20 -35.2 0 0 269.02 500.49
  Q 276.30 506.53 277.74 516.04
  Q 280.37 533.32 267.25 543.80
  Q 262.40 547.67 257.56 549.68
  A 0.63 0.63 0.0 0 0 257.35 550.69
  C 266.11 559.84 268.25 574.92 259.51 585.03
  Q 256.70 588.28 252.23 591.27
  A 0.54 0.54 0.0 0 0 252.10 592.05
  Q 252.36 592.37 256.02 595.03
  Q 262.46 599.72 261.83 607.99
  Q 261.77 608.70 261.33 608.96
  Z
  M 227.71 515.47
  Q 230.20 516.69 231.68 518.16
  A 2.85 2.84 -48.5 0 1 231.91 521.93
  C 230.22 524.09 228.35 527.40 229.40 530.48
  Q 232.13 538.51 240.87 541.73
  A 3.61 3.32 55.5 0 0 241.83 541.95
  Q 248.95 542.57 254.24 538.28
  C 259.95 533.65 262.63 525.86 256.73 520.09
  A 0.94 0.93 73.7 0 0 256.28 519.84
  L 255.79 519.66
  A 0.82 0.82 0.0 0 1 255.46 518.37
  L 258.33 514.90
  A 3.36 3.36 0.0 0 0 258.41 510.71
  Q 257.19 509.13 255.15 507.90
  Q 240.56 499.12 229.09 511.44
  Q 228.73 511.82 227.42 514.67
  A 0.61 0.60 25.3 0 0 227.71 515.47
  Z
  M 239.73 571.35
  C 238.74 572.85 234.98 575.50 235.08 577.86
  C 235.27 581.99 238.63 584.80 241.89 586.81
  A 2.45 2.44 44.4 0 0 244.47 586.79
  L 248.49 584.23
  A 2.33 2.33 0.0 0 0 249.15 583.62
  Q 251.47 580.47 251.50 575.94
  A 1.42 1.39 -67.8 0 0 251.08 574.91
  L 247.39 571.22
  A 0.74 0.73 -57.6 0 1 247.22 570.45
  Q 248.07 568.19 249.98 566.85
  A 1.61 1.53 -6.7 0 0 250.48 566.25
  Q 251.16 564.71 250.95 563.01
  Q 250.10 556.21 243.89 555.82
  C 241.06 555.64 239.71 556.67 237.74 558.47
  C 233.49 562.32 233.82 567.45 239.29 569.86
  A 1.02 1.01 -61.6 0 1 239.73 571.35
  Z"
/>
<path fill="#010103" d="
  M 550.4255 485.8903
  A 11.45 11.13 -1.6 0 1 539.2908 497.3357
  A 11.45 11.13 -1.6 0 1 527.5345 486.5297
  A 11.45 11.13 -1.6 0 1 538.6692 475.0843
  A 11.45 11.13 -1.6 0 1 550.4255 485.8903
  Z
  M 549.3869 486.6429
  A 10.35 9.83 1.4 0 0 539.2802 476.5629
  A 10.35 9.83 1.4 0 0 528.6931 486.1371
  A 10.35 9.83 1.4 0 0 538.7998 496.2171
  A 10.35 9.83 1.4 0 0 549.3869 486.6429
  Z"
/>
<ellipse fill="#053661" cx="0.00" cy="0.00" transform="translate(539.04,486.39) rotate(1.4)" rx="10.35" ry="9.83"/>
<path fill="#010103" d="
  M 520.19 561.40
  Q 510.38 573.33 495.76 575.91
  Q 484.59 577.87 474.08 575.10
  Q 463.27 572.25 455.07 564.79
  Q 446.33 556.83 442.53 545.22
  Q 440.21 538.18 439.88 529.68
  Q 439.54 521.05 441.58 514.04
  C 446.86 495.91 460.81 483.56 479.32 480.68
  C 492.89 478.57 507.14 482.55 516.59 492.62
  Q 517.30 493.39 517.87 494.38
  A 1.05 1.05 0.0 0 1 517.63 495.70
  L 506.71 504.78
  A 1.04 1.03 -42.4 0 1 505.33 504.72
  Q 496.77 496.27 484.28 496.92
  C 473.26 497.49 464.70 505.05 461.42 515.37
  C 455.39 534.38 463.28 557.53 485.74 559.86
  Q 498.48 561.18 508.72 551.37
  A 1.39 1.39 0.0 0 1 510.66 551.40
  L 520.16 560.90
  A 0.38 0.37 42.0 0 1 520.19 561.40
  Z
  M 516.06 494.25
  C 512.42 489.60 509.00 487.61 503.08 484.67
  Q 498.77 482.54 493.95 481.94
  Q 473.53 479.38 458.19 491.17
  C 448.37 498.71 442.41 510.20 441.46 523.07
  Q 441.02 529.17 441.36 532.78
  C 442.85 548.32 450.73 562.80 465.10 570.14
  C 474.75 575.06 485.42 576.36 495.67 574.57
  Q 508.17 572.40 517.04 563.28
  C 518.70 561.57 518.38 560.56 516.69 559.07
  Q 513.12 555.90 510.75 553.40
  A 1.50 1.49 -39.1 0 0 508.81 553.21
  C 505.14 555.82 501.84 558.50 498.11 559.73
  Q 491.53 561.90 486.42 561.36
  Q 472.98 559.91 464.86 549.79
  C 458.76 542.18 457.41 531.22 458.56 521.48
  C 459.32 514.94 463.05 507.59 467.50 503.03
  C 474.98 495.34 484.19 494.35 494.20 496.63
  Q 500.14 497.98 504.88 502.90
  A 1.69 1.69 0.0 0 0 507.19 503.03
  L 515.90 495.80
  A 1.12 1.11 51.1 0 0 516.06 494.25
  Z"
/>
<path fill="#053661" d="
  M 256.21 481.76
  Q 255.83 481.06 256.10 480.68
  L 256.21 481.76
  Z"
/>
<path fill="#053661" d="
  M 516.06 494.25
  A 1.12 1.11 51.1 0 1 515.90 495.80
  L 507.19 503.03
  A 1.69 1.69 0.0 0 1 504.88 502.90
  Q 500.14 497.98 494.20 496.63
  C 484.19 494.35 474.98 495.34 467.50 503.03
  C 463.05 507.59 459.32 514.94 458.56 521.48
  C 457.41 531.22 458.76 542.18 464.86 549.79
  Q 472.98 559.91 486.42 561.36
  Q 491.53 561.90 498.11 559.73
  C 501.84 558.50 505.14 555.82 508.81 553.21
  A 1.50 1.49 -39.1 0 1 510.75 553.40
  Q 513.12 555.90 516.69 559.07
  C 518.38 560.56 518.70 561.57 517.04 563.28
  Q 508.17 572.40 495.67 574.57
  C 485.42 576.36 474.75 575.06 465.10 570.14
  C 450.73 562.80 442.85 548.32 441.36 532.78
  Q 441.02 529.17 441.46 523.07
  C 442.41 510.20 448.37 498.71 458.19 491.17
  Q 473.53 479.38 493.95 481.94
  Q 498.77 482.54 503.08 484.67
  C 509.00 487.61 512.42 489.60 516.06 494.25
  Z"
/>
<path fill="#053661" d="
  M 256.29 483.30
  Q 256.08 482.65 256.21 482.03
  Q 256.59 482.55 256.29 483.30
  Z"
/>
<path fill="#010103" d="
  M 600.00 560.25
  L 600.37 560.86
  A 0.43 0.43 0.0 0 1 600.10 561.50
  C 592.98 563.06 585.97 561.85 584.39 553.71
  C 583.69 550.07 583.51 544.53 583.61 541.25
  Q 583.91 530.54 583.95 521.11
  A 1.79 1.79 0.0 0 1 585.74 519.32
  L 600.58 519.32
  A 1.08 1.07 -87.7 0 0 601.65 518.33
  L 601.95 514.34
  A 0.72 0.71 36.4 0 0 601.90 514.03
  Q 600.99 511.94 601.30 509.59
  A 1.47 1.47 0.0 0 0 599.84 507.93
  L 586.01 507.93
  A 1.69 1.68 -6.2 0 1 584.36 506.61
  Q 583.42 502.41 584.00 498.41
  Q 584.00 498.39 584.00 498.38
  L 583.52 490.36
  A 4.60 4.59 -38.4 0 1 583.70 488.83
  L 584.40 486.52
  A 1.31 1.31 0.0 0 0 583.18 484.83
  Q 581.42 484.79 580.92 484.92
  Q 571.62 487.27 568.50 488.01
  A 1.41 1.41 0.0 0 0 567.41 489.41
  L 567.83 505.95
  A 0.19 0.17 76.5 0 1 567.74 506.11
  L 567.33 506.38
  A 0.20 0.20 0.0 0 1 567.07 506.17
  Q 567.19 503.64 566.24 501.45
  L 566.08 487.74
  A 0.66 0.65 82.9 0 1 566.58 487.09
  L 583.52 483.09
  A 1.20 1.19 -6.6 0 1 584.99 484.25
  L 584.99 505.83
  A 0.43 0.42 -90.0 0 0 585.41 506.26
  L 602.49 506.26
  A 0.43 0.43 0.0 0 1 602.92 506.69
  L 602.92 520.20
  A 0.36 0.36 0.0 0 1 602.56 520.56
  L 585.30 520.56
  A 0.33 0.33 0.0 0 0 584.97 520.89
  L 584.98 549.76
  A 5.04 4.90 -55.1 0 0 585.24 551.35
  Q 585.45 551.97 586.17 554.60
  C 587.88 560.77 594.17 561.40 600.00 560.25
  Z"
/>
<path fill="#053661" d="
  M 600.00 560.25
  L 602.09 559.96
  Q 605.31 562.71 605.99 568.95
  Q 606.16 570.56 605.58 571.44
  C 603.44 574.72 594.51 575.74 590.57 575.71
  Q 586.25 575.68 583.78 575.18
  C 571.62 572.70 568.06 561.99 567.92 551.06
  Q 567.80 541.20 567.95 523.02
  Q 567.96 521.52 567.67 519.61
  A 0.73 0.72 -4.1 0 0 566.95 518.99
  L 559.00 518.99
  A 1.65 1.64 -90.0 0 1 557.36 517.34
  L 557.36 510.19
  A 2.08 2.07 87.9 0 1 559.28 508.12
  L 566.03 507.62
  A 0.05 0.03 9.2 0 0 566.07 507.60
  L 566.25 507.30
  A 0.18 0.18 0.0 0 0 566.10 507.03
  L 557.54 506.39
  L 565.48 506.22
  A 0.54 0.54 0.0 0 0 566.01 505.71
  L 566.24 501.45
  Q 567.19 503.64 567.07 506.17
  A 0.20 0.20 0.0 0 0 567.33 506.38
  L 567.74 506.11
  A 0.19 0.17 76.5 0 0 567.83 505.95
  L 567.41 489.41
  A 1.41 1.41 0.0 0 1 568.50 488.01
  Q 571.62 487.27 580.92 484.92
  Q 581.42 484.79 583.18 484.83
  A 1.31 1.31 0.0 0 1 584.40 486.52
  L 583.70 488.83
  A 4.60 4.59 -38.4 0 0 583.52 490.36
  L 584.00 498.38
  Q 584.00 498.39 584.00 498.41
  Q 583.42 502.41 584.36 506.61
  A 1.69 1.68 -6.2 0 0 586.01 507.93
  L 599.84 507.93
  A 1.47 1.47 0.0 0 1 601.30 509.59
  Q 600.99 511.94 601.90 514.03
  A 0.72 0.71 36.4 0 1 601.95 514.34
  L 601.65 518.33
  A 1.08 1.07 -87.7 0 1 600.58 519.32
  L 585.74 519.32
  A 1.79 1.79 0.0 0 0 583.95 521.11
  Q 583.91 530.54 583.61 541.25
  C 583.51 544.53 583.69 550.07 584.39 553.71
  C 585.97 561.85 592.98 563.06 600.10 561.50
  A 0.43 0.43 0.0 0 0 600.37 560.86
  L 600.00 560.25
  Z"
/>
<path fill="#010103" d="
  M 548.35 574.19
  A 0.60 0.60 0.0 0 1 547.75 574.79
  L 530.23 574.79
  A 0.60 0.60 0.0 0 1 529.63 574.19
  L 529.63 506.71
  A 0.60 0.60 0.0 0 1 530.23 506.11
  L 547.75 506.11
  A 0.60 0.60 0.0 0 1 548.35 506.71
  L 548.35 574.19
  Z
  M 546.89 508.88
  A 1.05 1.05 0.0 0 0 545.84 507.83
  L 532.42 507.83
  A 1.05 1.05 0.0 0 0 531.37 508.88
  L 531.37 572.18
  A 1.05 1.05 0.0 0 0 532.42 573.23
  L 545.84 573.23
  A 1.05 1.05 0.0 0 0 546.89 572.18
  L 546.89 508.88
  Z"
/>
<path fill="#010103" d="
  M 674.40 505.95
  A 0.66 0.65 -80.8 0 1 675.03 506.83
  Q 659.87 548.46 648.62 578.09
  C 646.10 584.74 643.41 590.17 639.08 594.88
  C 633.11 601.36 623.33 603.06 614.71 603.00
  A 0.73 0.72 -2.7 0 1 614.00 602.36
  L 612.53 590.04
  A 0.92 0.92 0.0 0 1 613.55 589.01
  C 621.69 589.91 627.59 584.75 630.01 577.42
  A 3.41 3.38 44.0 0 0 629.96 575.17
  Q 621.97 554.06 611.20 524.60
  Q 607.75 515.17 605.08 506.75
  A 0.48 0.47 -8.5 0 1 605.54 506.14
  L 623.73 506.14
  A 1.15 1.13 -8.7 0 1 624.82 506.93
  L 639.95 554.85
  A 0.33 0.33 0.0 0 0 640.58 554.85
  Q 644.66 541.91 655.12 507.88
  Q 655.68 506.04 658.28 506.08
  Q 666.54 506.21 674.40 505.95
  Z
  M 639.96 555.91
  A 1.22 1.21 76.2 0 1 638.59 555.07
  L 624.11 509.33
  A 0.96 0.62 32.9 0 0 624.02 509.13
  Q 622.90 507.36 620.49 507.50
  Q 614.12 507.88 609.13 507.79
  A 1.70 1.69 -9.5 0 0 607.50 510.07
  L 631.43 575.07
  A 3.56 3.55 -44.3 0 1 631.39 577.62
  Q 628.78 584.02 623.10 588.75
  A 1.14 1.06 -69.8 0 1 622.63 588.99
  L 615.75 590.61
  A 1.79 1.79 0.0 0 0 614.39 592.55
  L 615.20 599.30
  A 2.73 2.73 0.0 0 0 618.04 601.71
  Q 622.61 601.49 628.27 600.05
  C 638.24 597.51 642.99 588.81 646.40 579.96
  Q 660.33 543.84 672.49 509.39
  A 1.27 1.27 0.0 0 0 671.29 507.70
  L 658.23 507.70
  A 1.73 1.72 8.4 0 0 656.58 508.92
  C 655.85 511.37 654.96 513.13 654.34 515.16
  Q 644.29 547.97 642.15 554.20
  Q 641.67 555.60 639.96 555.91
  Z"
/>
<path fill="#010103" d="
  M 557.54 506.39
  L 566.10 507.03
  A 0.18 0.18 0.0 0 1 566.25 507.30
  L 566.07 507.60
  A 0.05 0.03 9.2 0 1 566.03 507.62
  L 559.28 508.12
  A 2.08 2.07 87.9 0 0 557.36 510.19
  L 557.36 517.34
  A 1.65 1.64 -90.0 0 0 559.00 518.99
  L 566.95 518.99
  A 0.73 0.72 -4.1 0 1 567.67 519.61
  Q 567.96 521.52 567.95 523.02
  Q 567.80 541.20 567.92 551.06
  C 568.06 561.99 571.62 572.70 583.78 575.18
  Q 586.25 575.68 590.57 575.71
  C 594.51 575.74 603.44 574.72 605.58 571.44
  Q 606.16 570.56 605.99 568.95
  Q 605.31 562.71 602.09 559.96
  Q 602.87 559.16 604.46 558.73
  A 0.91 0.91 0.0 0 1 605.60 559.49
  L 606.97 570.98
  A 2.45 2.44 74.0 0 1 605.60 573.47
  Q 596.95 577.62 587.16 576.85
  Q 579.24 576.22 574.48 572.21
  Q 569.42 567.94 567.58 560.47
  Q 565.77 553.14 566.32 547.01
  Q 567.08 533.50 566.90 520.05
  A 0.49 0.49 0.0 0 0 566.14 519.65
  Q 565.84 519.85 565.74 520.21
  L 556.47 520.42
  A 0.59 0.59 0.0 0 1 555.87 519.83
  L 555.87 507.12
  A 0.44 0.41 61.8 0 1 555.93 506.90
  Q 556.40 506.12 557.54 506.39
  Z"
/>
<path fill="#053661" d="
  M 639.96 555.91
  Q 641.67 555.60 642.15 554.20
  Q 644.29 547.97 654.34 515.16
  C 654.96 513.13 655.85 511.37 656.58 508.92
  A 1.73 1.72 8.4 0 1 658.23 507.70
  L 671.29 507.70
  A 1.27 1.27 0.0 0 1 672.49 509.39
  Q 660.33 543.84 646.40 579.96
  C 642.99 588.81 638.24 597.51 628.27 600.05
  Q 622.61 601.49 618.04 601.71
  A 2.73 2.73 0.0 0 1 615.20 599.30
  L 614.39 592.55
  A 1.79 1.79 0.0 0 1 615.75 590.61
  L 622.63 588.99
  A 1.14 1.06 -69.8 0 0 623.10 588.75
  Q 628.78 584.02 631.39 577.62
  A 3.56 3.55 -44.3 0 0 631.43 575.07
  L 607.50 510.07
  A 1.70 1.69 -9.5 0 1 609.13 507.79
  Q 614.12 507.88 620.49 507.50
  Q 622.90 507.36 624.02 509.13
  A 0.96 0.62 32.9 0 1 624.11 509.33
  L 638.59 555.07
  A 1.22 1.21 76.2 0 0 639.96 555.91
  Z"
/>
<rect fill="#053661" x="531.37" y="507.83" width="15.52" height="65.40" rx="1.05"/>
<rect fill="#489968" x="-5.05" y="-11.73" transform="translate(244.08,524.01) rotate(0.4)" width="10.10" height="23.46" rx="4.82"/>
<path fill="#053661" d="
  M 566.32 547.01
  Q 565.91 532.12 566.22 522.00
  Q 566.26 520.66 565.74 520.21
  Q 565.84 519.85 566.14 519.65
  A 0.49 0.49 0.0 0 1 566.90 520.05
  Q 567.08 533.50 566.32 547.01
  Z"
/>
<path fill="#010103" d="
  M 580.9134 602.4654
  A 11.15 10.76 -15.9 0 1 573.1378 615.8683
  A 11.15 10.76 -15.9 0 1 559.4666 608.5746
  A 11.15 10.76 -15.9 0 1 567.2422 595.1717
  A 11.15 10.76 -15.9 0 1 580.9134 602.4654
  Z
  M 579.8380 603.3157
  A 9.89 9.34 -12.7 0 0 568.1366 596.3785
  A 9.89 9.34 -12.7 0 0 560.5420 607.6643
  A 9.89 9.34 -12.7 0 0 572.2434 614.6015
  A 9.89 9.34 -12.7 0 0 579.8380 603.3157
  Z"
/>
<path fill="#010103" d="
  M 684.2633 601.3430
  A 11.14 10.70 -21.8 0 1 677.8936 615.4148
  A 11.14 10.70 -21.8 0 1 663.5767 609.6170
  A 11.14 10.70 -21.8 0 1 669.9464 595.5452
  A 11.14 10.70 -21.8 0 1 684.2633 601.3430
  Z
  M 683.7954 604.3501
  A 10.01 9.28 -7.0 0 0 672.7291 596.3592
  A 10.01 9.28 -7.0 0 0 663.9246 606.7899
  A 10.01 9.28 -7.0 0 0 674.9909 614.7808
  A 10.01 9.28 -7.0 0 0 683.7954 604.3501
  Z"
/>
<ellipse fill="#053661" cx="0.00" cy="0.00" transform="translate(570.19,605.49) rotate(-12.7)" rx="9.89" ry="9.34"/>
<path fill="#010103" d="
  M 510.64 665.47
  L 521.17 674.19
  A 1.45 1.45 0.0 0 1 521.52 676.01
  C 518.03 682.38 510.11 687.36 503.25 690.04
  Q 492.84 694.12 481.29 692.83
  Q 453.76 689.76 443.26 665.10
  C 442.06 662.28 441.16 658.20 440.39 655.47
  A 5.42 5.39 -55.1 0 1 440.20 654.39
  C 439.91 649.89 439.24 646.68 439.53 642.51
  Q 440.44 629.55 446.23 619.43
  Q 454.31 605.31 469.69 599.32
  C 477.77 596.17 486.54 595.89 495.28 597.24
  C 503.63 598.53 511.74 602.87 517.58 609.62
  A 1.52 1.51 -41.7 0 1 517.45 611.73
  L 507.42 620.88
  A 0.70 0.70 0.0 0 1 506.48 620.89
  C 499.89 615.06 492.27 611.86 483.16 613.40
  Q 477.76 614.31 473.88 616.61
  Q 463.37 622.84 460.50 635.16
  C 456.70 651.49 462.34 671.16 480.56 675.39
  Q 491.32 677.90 501.29 672.43
  C 504.66 670.58 506.63 668.02 509.40 665.50
  A 0.95 0.95 0.0 0 1 510.64 665.47
  Z
  M 519.12 673.96
  L 511.39 667.57
  A 0.91 0.90 -33.0 0 0 510.55 667.40
  C 506.40 668.68 505.15 672.19 501.53 673.98
  Q 494.92 677.26 487.82 677.66
  Q 484.76 677.84 481.30 677.00
  C 475.58 675.61 469.96 673.20 466.07 668.48
  C 456.28 656.58 455.21 638.97 462.94 625.53
  Q 466.87 618.71 474.36 614.83
  Q 490.03 606.70 505.86 618.31
  A 2.62 2.62 0.0 0 0 509.21 618.11
  Q 511.89 615.60 515.23 612.23
  Q 516.94 610.51 515.34 608.96
  C 509.47 603.26 502.88 599.85 494.68 598.59
  C 487.15 597.44 476.94 597.49 469.25 601.07
  Q 462.63 604.16 460.55 605.56
  Q 455.00 609.29 450.91 614.63
  C 439.10 630.11 438.15 651.11 446.31 668.39
  Q 448.72 673.48 452.39 677.30
  C 458.00 683.15 463.66 687.37 471.54 689.48
  C 477.76 691.15 482.56 692.44 488.85 691.71
  Q 494.94 691.00 497.48 690.44
  Q 510.96 687.49 519.42 677.05
  A 2.21 2.20 39.5 0 0 519.12 673.96
  Z"
/>
<ellipse fill="#053661" cx="0.00" cy="0.00" transform="translate(673.86,605.57) rotate(-7.0)" rx="10.01" ry="9.28"/>
<path fill="#010103" d="
  M 548.13 690.48
  A 0.45 0.45 0.0 0 1 547.68 690.93
  L 530.00 690.93
  A 0.45 0.45 0.0 0 1 529.55 690.48
  L 529.55 597.20
  A 0.45 0.45 0.0 0 1 530.00 596.75
  L 547.68 596.75
  A 0.45 0.45 0.0 0 1 548.13 597.20
  L 548.13 690.48
  Z
  M 546.7371 599.8235
  A 1.45 1.45 0.0 0 0 545.2896 598.3710
  L 532.7696 598.3491
  A 1.45 1.45 0.0 0 0 531.3171 599.7966
  L 531.1629 688.1165
  A 1.45 1.45 0.0 0 0 532.6104 689.5690
  L 545.1304 689.5909
  A 1.45 1.45 0.0 0 0 546.5829 688.1434
  L 546.7371 599.8235
  Z"
/>
<path fill="#053661" d="
  M 519.12 673.96
  A 2.21 2.20 39.5 0 1 519.42 677.05
  Q 510.96 687.49 497.48 690.44
  Q 494.94 691.00 488.85 691.71
  C 482.56 692.44 477.76 691.15 471.54 689.48
  C 463.66 687.37 458.00 683.15 452.39 677.30
  Q 448.72 673.48 446.31 668.39
  C 438.15 651.11 439.10 630.11 450.91 614.63
  Q 455.00 609.29 460.55 605.56
  Q 462.63 604.16 469.25 601.07
  C 476.94 597.49 487.15 597.44 494.68 598.59
  C 502.88 599.85 509.47 603.26 515.34 608.96
  Q 516.94 610.51 515.23 612.23
  Q 511.89 615.60 509.21 618.11
  A 2.62 2.62 0.0 0 1 505.86 618.31
  Q 490.03 606.70 474.36 614.83
  Q 466.87 618.71 462.94 625.53
  C 455.21 638.97 456.28 656.58 466.07 668.48
  C 469.96 673.20 475.58 675.61 481.30 677.00
  Q 484.76 677.84 487.82 677.66
  Q 494.92 677.26 501.53 673.98
  C 505.15 672.19 506.40 668.68 510.55 667.40
  A 0.91 0.90 -33.0 0 1 511.39 667.57
  L 519.12 673.96
  Z"
/>
<rect fill="#053661" x="-7.71" y="-45.61" transform="translate(538.95,643.97) rotate(0.1)" width="15.42" height="91.22" rx="1.45"/>
<path fill="#489968" d="
  M 245.96 615.95
  L 245.84 625.32
  A 2.24 2.16 -0.9 0 1 243.70 627.45
  L 243.59 627.45
  A 2.22 2.11 -3.3 0 1 241.29 625.50
  L 241.07 622.44
  L 241.09 608.52
  A 2.30 2.26 -0.8 0 1 243.33 606.26
  L 243.40 606.26
  A 2.26 2.19 -1.8 0 1 245.73 608.38
  L 245.96 615.95
  Z"
/>
<path fill="#010103" d="
  M 226.46 606.92
  L 227.23 609.03
  Q 226.03 608.75 226.46 606.92
  Z"
/>
<path fill="#053661" d="
  M 229.35 608.76
  Q 228.58 609.86 227.23 609.03
  L 229.35 608.76
  Z"
/>
<path fill="#010103" d="
  M 261.33 608.96
  Q 260.26 610.47 259.22 608.78
  L 261.33 608.96
  Z"
/>
<path fill="#010103" d="
  M 245.96 615.95
  L 246.00 627.25
  A 0.71 0.70 83.3 0 1 245.46 627.94
  Q 243.37 628.43 241.70 627.81
  A 1.04 1.03 4.4 0 1 241.06 627.07
  Q 240.54 624.75 241.07 622.44
  L 241.29 625.50
  A 2.22 2.11 -3.3 0 0 243.59 627.45
  L 243.70 627.45
  A 2.24 2.16 -0.9 0 0 245.84 625.32
  L 245.96 615.95
  Z"
/>
<path fill="#010103" d="
  M 606.22 631.17
  Q 605.58 631.59 605.23 631.27
  Q 604.59 630.67 605.21 629.81
  A 0.87 0.86 59.3 0 0 605.36 629.21
  L 604.97 625.95
  A 0.91 0.90 86.8 0 0 604.07 625.14
  L 591.62 625.14
  A 1.28 1.27 -90.0 0 0 590.35 626.42
  L 590.35 687.85
  A 1.59 1.59 0.0 0 0 591.94 689.44
  L 604.53 689.44
  A 1.54 1.54 0.0 0 0 606.07 687.84
  Q 605.56 672.39 605.87 652.31
  Q 606.01 643.43 612.77 639.19
  Q 619.72 634.82 628.11 637.95
  C 635.54 640.71 636.42 650.86 636.45 657.26
  Q 636.52 673.02 636.10 685.68
  Q 636.01 688.24 636.07 688.37
  Q 636.72 689.68 638.11 689.63
  Q 645.32 689.42 650.92 689.56
  A 1.39 1.39 0.0 0 0 652.34 688.04
  Q 652.06 685.19 652.06 683.00
  Q 652.03 664.77 652.12 646.88
  Q 652.13 644.55 650.36 638.26
  Q 648.99 633.37 646.26 630.54
  C 638.74 622.73 626.41 622.01 616.81 625.32
  Q 612.28 626.88 608.70 631.02
  A 0.45 0.44 52.0 0 1 607.97 630.93
  L 607.84 630.66
  Q 610.51 626.69 614.56 624.81
  Q 624.97 619.98 636.01 623.05
  Q 647.56 626.26 651.56 637.25
  C 653.33 642.09 653.78 648.30 653.76 654.02
  Q 653.65 676.12 653.74 690.14
  A 0.81 0.80 90.0 0 1 652.94 690.95
  L 635.39 690.95
  A 0.38 0.37 -90.0 0 1 635.02 690.57
  Q 635.04 683.42 635.05 655.99
  C 635.05 651.19 634.65 646.90 632.14 643.40
  C 628.32 638.08 621.28 636.75 615.23 639.37
  C 607.58 642.68 606.81 650.18 607.01 658.64
  Q 607.23 668.44 607.07 690.46
  A 0.48 0.47 -89.4 0 1 606.60 690.93
  L 589.53 690.93
  A 0.57 0.57 0.0 0 1 588.96 690.36
  L 588.96 624.03
  A 0.66 0.66 0.0 0 1 589.62 623.37
  L 606.15 623.37
  A 0.50 0.50 0.0 0 1 606.65 623.90
  L 606.22 631.17
  Z"
/>
<path fill="#010103" d="
  M 747.56 670.26
  L 753.80 681.08
  A 0.53 0.52 -38.4 0 1 753.72 681.71
  Q 749.62 685.99 748.60 686.63
  Q 731.49 697.32 713.21 690.50
  C 698.60 685.05 690.96 671.49 691.73 656.05
  C 692.27 645.01 697.00 634.81 706.18 628.21
  Q 712.00 624.03 720.13 622.62
  Q 731.65 620.60 742.26 624.52
  Q 747.11 626.31 752.44 630.97
  A 0.78 0.78 0.0 0 1 752.64 631.86
  Q 750.06 637.73 745.90 643.19
  A 1.76 1.75 -52.8 0 1 743.45 643.53
  Q 741.48 642.06 737.92 640.02
  Q 734.30 637.95 731.84 637.61
  C 723.85 636.52 717.72 638.87 713.16 645.46
  C 709.13 651.30 709.42 660.45 712.10 666.67
  Q 714.85 673.08 721.89 675.62
  C 730.84 678.86 739.26 675.75 746.29 670.03
  A 0.85 0.85 0.0 0 1 747.56 670.26
  Z
  M 745.04 641.46
  L 746.39 640.68
  A 1.59 1.59 0.0 0 0 746.99 640.05
  L 750.71 632.89
  A 1.89 1.88 32.9 0 0 750.20 630.53
  Q 742.39 624.46 732.50 623.65
  Q 719.47 622.58 709.24 627.70
  C 702.54 631.05 697.16 638.54 695.22 645.32
  Q 693.06 652.86 693.27 660.32
  C 693.53 669.22 697.53 679.18 705.16 684.62
  Q 714.70 691.42 726.22 691.57
  C 735.38 691.69 745.10 689.27 751.26 682.49
  Q 752.74 680.87 751.46 679.07
  Q 750.05 677.06 748.25 673.59
  C 747.45 672.05 746.05 671.12 744.60 672.47
  C 738.12 678.47 729.63 679.86 721.69 677.00
  C 713.32 674.00 709.36 667.29 708.73 658.71
  Q 707.96 648.18 715.66 640.47
  C 720.54 635.59 729.49 634.32 735.60 637.43
  Q 740.26 639.79 743.66 641.50
  A 1.46 1.46 0.0 0 0 745.04 641.46
  Z"
/>
<path fill="#010103" d="
  M 579.0080 690.4238
  A 0.51 0.51 0.0 0 1 578.4989 690.9347
  L 561.0190 690.9652
  A 0.51 0.51 0.0 0 1 560.5081 690.4561
  L 560.3920 623.9362
  A 0.51 0.51 0.0 0 1 560.9011 623.4253
  L 578.3810 623.3948
  A 0.51 0.51 0.0 0 1 578.8919 623.9039
  L 579.0080 690.4238
  Z
  M 577.00 689.44
  A 0.52 0.52 0.0 0 0 577.52 688.92
  L 577.52 625.61
  A 0.52 0.52 0.0 0 0 577.00 625.09
  L 562.60 625.09
  A 0.52 0.52 0.0 0 0 562.08 625.61
  L 562.08 688.92
  A 0.52 0.52 0.0 0 0 562.60 689.44
  L 577.00 689.44
  Z"
/>
<path fill="#010103" d="
  M 664.47 689.30
  Q 665.37 657.81 664.47 626.30
  Q 663.80 625.02 664.21 623.89
  A 0.74 0.74 0.0 0 1 664.90 623.41
  L 682.34 623.41
  A 0.65 0.65 0.0 0 1 682.99 624.06
  L 682.99 690.42
  A 0.54 0.53 -0.0 0 1 682.45 690.95
  L 664.91 690.95
  A 0.80 0.80 0.0 0 1 664.37 690.74
  Q 663.66 690.09 664.47 689.30
  Z
  M 681.4449 625.5265
  A 0.69 0.69 0.0 0 0 680.7537 624.8377
  L 666.5937 624.8624
  A 0.69 0.69 0.0 0 0 665.9049 625.5536
  L 666.0151 688.6535
  A 0.69 0.69 0.0 0 0 666.7063 689.3423
  L 680.8663 689.3176
  A 0.69 0.69 0.0 0 0 681.5551 688.6264
  L 681.4449 625.5265
  Z"
/>
<path fill="#053661" d="
  M 606.22 631.17
  Q 607.13 631.98 607.84 630.66
  L 607.97 630.93
  A 0.45 0.44 52.0 0 0 608.70 631.02
  Q 612.28 626.88 616.81 625.32
  C 626.41 622.01 638.74 622.73 646.26 630.54
  Q 648.99 633.37 650.36 638.26
  Q 652.13 644.55 652.12 646.88
  Q 652.03 664.77 652.06 683.00
  Q 652.06 685.19 652.34 688.04
  A 1.39 1.39 0.0 0 1 650.92 689.56
  Q 645.32 689.42 638.11 689.63
  Q 636.72 689.68 636.07 688.37
  Q 636.01 688.24 636.10 685.68
  Q 636.52 673.02 636.45 657.26
  C 636.42 650.86 635.54 640.71 628.11 637.95
  Q 619.72 634.82 612.77 639.19
  Q 606.01 643.43 605.87 652.31
  Q 605.56 672.39 606.07 687.84
  A 1.54 1.54 0.0 0 1 604.53 689.44
  L 591.94 689.44
  A 1.59 1.59 0.0 0 1 590.35 687.85
  L 590.35 626.42
  A 1.28 1.27 90.0 0 1 591.62 625.14
  L 604.07 625.14
  A 0.91 0.90 86.8 0 1 604.97 625.95
  L 605.36 629.21
  A 0.87 0.86 59.3 0 1 605.21 629.81
  Q 604.59 630.67 605.23 631.27
  Q 605.58 631.59 606.22 631.17
  Z"
/>
<path fill="#053661" d="
  M 745.04 641.46
  A 1.46 1.46 0.0 0 1 743.66 641.50
  Q 740.26 639.79 735.60 637.43
  C 729.49 634.32 720.54 635.59 715.66 640.47
  Q 707.96 648.18 708.73 658.71
  C 709.36 667.29 713.32 674.00 721.69 677.00
  C 729.63 679.86 738.12 678.47 744.60 672.47
  C 746.05 671.12 747.45 672.05 748.25 673.59
  Q 750.05 677.06 751.46 679.07
  Q 752.74 680.87 751.26 682.49
  C 745.10 689.27 735.38 691.69 726.22 691.57
  Q 714.70 691.42 705.16 684.62
  C 697.53 679.18 693.53 669.22 693.27 660.32
  Q 693.06 652.86 695.22 645.32
  C 697.16 638.54 702.54 631.05 709.24 627.70
  Q 719.47 622.58 732.50 623.65
  Q 742.39 624.46 750.20 630.53
  A 1.89 1.88 32.9 0 1 750.71 632.89
  L 746.99 640.05
  A 1.59 1.59 0.0 0 1 746.39 640.68
  L 745.04 641.46
  Z"
/>
<path fill="#053661" d="
  M 577.00 689.44
  L 562.60 689.44
  A 0.52 0.52 0.0 0 1 562.08 688.92
  L 562.08 625.61
  A 0.52 0.52 0.0 0 1 562.60 625.09
  L 577.00 625.09
  A 0.52 0.52 0.0 0 1 577.52 625.61
  L 577.52 688.92
  A 0.52 0.52 0.0 0 1 577.00 689.44
  Z"
/>
<rect fill="#053661" x="-7.77" y="-32.24" transform="translate(673.73,657.09) rotate(-0.1)" width="15.54" height="64.48" rx="0.69"/>
<path fill="#0e4979" d="
  M 664.47 689.30
  Q 663.56 657.81 664.47 626.30
  Q 665.37 657.81 664.47 689.30
  Z"
/>
</svg>
